<?xml version="1.0" encoding="UTF-8" standalone="no"?>
<!-- Created with Inkscape (http://www.inkscape.org/) -->
<svg
   xmlns:svg="http://www.w3.org/2000/svg"
   xmlns="http://www.w3.org/2000/svg"
   version="1.0"
   width="730"
   height="730"
   id="svg2"
   xml:space="preserve"><defs
     id="defs5" /><g
     transform="matrix(0,1.25,1.25,0,-163.4,-12.29375)"
     id="g11"><path
       d="M 49.7165,442.613 L 16.3755,468.009 L 55.9335,481.845 L 26.9705,512.099 L 68.2015,519.54 L 44.3305,554.037 L 86.2305,554.897 L 68.0415,592.654 L 109.5675,587.059 L 97.5085,627.151 L 137.6385,615.098 L 131.9995,656.606 L 169.7435,638.405 L 170.6715,680.281 L 205.1015,656.421 L 212.5795,697.621 L 242.8515,668.658 L 256.6815,708.198 L 282.0465,674.869 L 301.8845,711.765 L 321.7275,674.869 L 347.0995,708.198 L 360.9175,668.658 L 391.2075,697.621 L 398.6615,656.36 L 433.1095,680.219 L 434.0125,638.343 L 471.7635,656.544 L 466.1175,615.037 L 506.2545,627.09 L 494.1705,586.936 L 535.7025,592.592 L 517.4945,554.836 L 559.3895,553.914 L 535.4995,519.479 L 576.7305,512.038 L 547.7615,481.722 L 587.3195,467.887 L 553.9655,442.552 L 590.8675,422.689 L 553.9535,402.827 L 587.3075,377.492 L 547.7495,363.656 L 576.7115,333.403 L 535.4755,325.9 L 559.3525,291.465 L 517.4525,290.542 L 535.6415,252.847 L 494.1215,258.443 L 506.1925,218.35 L 466.0565,230.403 L 471.7075,188.896 L 433.9575,207.098 L 433.0225,165.221 L 398.5875,189.08 L 391.1225,147.818 L 360.8435,176.843 L 347.0195,137.242 L 321.6475,170.632 L 301.8105,133.675 L 281.9665,170.632 L 256.6015,137.242 L 242.7775,176.843 L 212.4985,147.88 L 205.0345,189.08 L 170.5985,165.221 L 169.6825,207.098 L 131.9315,188.896 L 137.5705,230.465 L 97.4465,218.35 L 109.5175,258.505 L 67.9925,252.847 L 86.1945,290.603 L 44.2995,291.526 L 68.1825,325.962 L 26.9465,333.403 L 55.9155,363.718 L 16.3565,377.554 L 49.7105,402.889 L 12.8025,422.751 L 49.7165,442.613"
       id="zacken"
       style="fill:#21489f;fill-opacity:1;fill-rule:nonzero;stroke:none" /><path
       d="M 553.8495,422.873 C 553.8495,562.03 441.0175,674.869 301.8295,674.869 C 162.6535,674.869 49.8155,562.03 49.8155,422.873 C 49.8155,283.654 162.6535,170.878 301.8295,170.878 C 441.0175,170.878 553.8495,283.654 553.8495,422.873"
       id="kreis_gruen"
       style="fill:#d9e690;fill-opacity:1;fill-rule:nonzero;stroke:none" /><path
       d="M 474.3085,422.873 C 474.3085,518.125 397.0925,595.359 301.8285,595.359 C 206.5835,595.359 129.3675,518.125 129.3675,422.873 C 129.3675,327.622 206.5835,250.388 301.8285,250.388 C 397.0925,250.388 474.3085,327.622 474.3085,422.873"
       id="kreis_blau"
       style="fill:#21489f;fill-opacity:1;fill-rule:nonzero;stroke:none" /><path
       d="M 365.125,162.28125 L 358.59375,182.78125 L 337.0625,182.6875 L 354.5,195.25 L 347.8125,215.6875 L 365.125,202.9375 L 382.5,215.6875 L 375.71875,195.25 L 393.25,182.6875 L 371.71875,182.78125 L 365.125,162.28125 z M 277.03125,185.84375 L 270.40625,206.34375 L 248.96875,206.25 L 266.40625,218.8125 L 259.65625,239.25 L 277.03125,226.53125 L 294.3125,239.25 L 287.625,218.8125 L 305.09375,206.25 L 283.5625,206.34375 L 277.03125,185.84375 z M 453.34375,185.84375 L 446.8125,206.34375 L 425.3125,206.25 L 442.75,218.8125 L 436,239.25 L 453.34375,226.53125 L 470.71875,239.25 L 463.96875,218.8125 L 481.40625,206.25 L 459.875,206.34375 L 453.34375,185.84375 z M 212.0625,250.875 L 205.53125,271.34375 L 184.03125,271.25 L 201.46875,283.84375 L 194.78125,304.28125 L 212.0625,291.5625 L 229.4375,304.28125 L 222.6875,283.84375 L 240.21875,271.25 L 218.6875,271.34375 L 212.0625,250.875 z M 518.21875,250.875 L 511.6875,271.34375 L 490.1875,271.25 L 507.625,283.84375 L 500.9375,304.28125 L 518.21875,291.5625 L 535.59375,304.28125 L 528.84375,283.84375 L 546.28125,271.25 L 524.84375,271.34375 L 518.21875,250.875 z M 188.15625,339.25 L 181.625,359.75 L 160.125,359.65625 L 177.5625,372.21875 L 170.8125,392.625 L 188.15625,379.90625 L 205.53125,392.625 L 198.78125,372.21875 L 216.21875,359.65625 L 194.71875,359.75 L 188.15625,339.25 z M 542.21875,339.25 L 535.59375,359.75 L 514.15625,359.65625 L 531.59375,372.21875 L 524.84375,392.625 L 542.21875,379.90625 L 559.5,392.625 L 552.8125,372.21875 L 570.28125,359.65625 L 548.75,359.75 L 542.21875,339.25 z M 211.84375,427.65625 L 205.3125,448.125 L 183.78125,448.0625 L 201.25,460.625 L 194.5625,481.0625 L 211.84375,468.34375 L 229.21875,481.0625 L 222.4375,460.625 L 239.90625,448.0625 L 218.46875,448.125 L 211.84375,427.65625 z M 518.53125,427.65625 L 511.9375,448.125 L 490.40625,448.0625 L 507.9375,460.625 L 501.15625,481.0625 L 518.53125,468.34375 L 535.84375,481.0625 L 529.15625,460.625 L 546.59375,448.0625 L 525.0625,448.125 L 518.53125,427.65625 z M 277.03125,492.65625 L 270.40625,513.15625 L 248.96875,513.0625 L 266.40625,525.625 L 259.65625,546.0625 L 277.03125,533.34375 L 294.3125,546.0625 L 287.625,525.625 L 305.09375,513.0625 L 283.5625,513.15625 L 277.03125,492.65625 z M 453.34375,492.65625 L 446.8125,513.15625 L 425.3125,513.0625 L 442.75,525.625 L 436,546.0625 L 453.34375,533.34375 L 470.71875,546.0625 L 463.96875,525.625 L 481.40625,513.0625 L 459.875,513.15625 L 453.34375,492.65625 z M 365.125,516.65625 L 358.59375,537.15625 L 337.0625,537.0625 L 354.5,549.625 L 347.8125,570.0625 L 365.125,557.34375 L 382.5,570.0625 L 375.71875,549.625 L 393.25,537.0625 L 371.71875,537.15625 L 365.125,516.65625 z"
       transform="matrix(0,0.8,0.8,0,9.835,130.72)"
       id="sterne"
       style="fill:#ffffff;fill-opacity:1;fill-rule:nonzero;stroke:none" /><path
       d="M 373.8125,87.03125 L 371.125,121.28125 L 376.5625,121.6875 L 377.5625,109.46875 C 378.025,103.82625 378.25249,99.278752 378.40625,94.84375 L 378.5625,94.8125 C 379.87,98.8025 381.73251,103.19625 383.5,107.0625 L 390.78125,122.8125 L 396.9375,123.28125 L 399.5625,89.03125 L 394.09375,88.59375 L 393.15625,100.53125 C 392.69625,105.76625 392.56251,110.20875 392.5625,114.8125 L 392.46875,114.8125 C 391.23875,110.98375 389.70249,106.84875 387.78125,102.875 L 380.5625,87.5625 L 373.8125,87.03125 z M 354.125,87.40625 L 346.59375,87.8125 L 337.96875,122.65625 L 344.125,122.3125 L 346.375,112.46875 L 356.75,111.90625 L 360.1875,121.46875 L 366.5625,121.125 L 354.125,87.40625 z M 410.84375,91.125 L 403.78125,124.15625 C 405.54875,124.8175 408.07374,125.55 411.53125,126.28125 C 417.68125,127.6175 423.06249,127.16375 426.90625,124.8125 C 430.59625,122.5675 433.4425,118.51125 434.75,112.53125 C 435.98125,106.805 434.97499,102.39 432.4375,99.09375 C 430.055,95.8725 426.23126,93.713752 420.3125,92.4375 C 416.8525,91.6925 413.45749,91.223753 410.84375,91.125 z M 316.84375,91.46875 L 310.9375,92.4375 L 316.625,126.3125 L 335.75,123.09375 L 334.84375,117.9375 L 321.59375,120.15625 L 316.84375,91.46875 z M 350.34375,92.59375 L 350.4375,92.59375 C 351.0525,94.55375 351.745,96.853748 352.4375,98.90625 L 355.4375,107.21875 L 347.125,107.6875 L 349.125,99.09375 C 349.58625,97.02625 349.95874,94.607497 350.34375,92.59375 z M 415.6875,96.8125 C 416.53375,96.78125 417.93626,96.920003 419.78125,97.3125 C 427.08375,98.88 430.22375,103.99625 428.53125,111.40625 C 426.76375,119.93 421.31376,123.34 413.78125,121.65625 C 412.55125,121.4025 411.29999,121.16625 410.53125,120.84375 L 415.6875,96.8125 z M 290.625,97.25 L 272.5625,103 L 282.9375,135.71875 L 301.6875,129.75 L 300.15625,124.84375 L 287.09375,129.03125 L 284.03125,119.40625 L 295.71875,115.6875 L 294.15625,110.8125 L 282.46875,114.5625 L 279.78125,106.09375 L 292.15625,102.15625 L 290.625,97.25 z M 445.59375,98.3125 L 440.90625,133.25 L 446.90625,135.53125 L 456.1875,121.78125 C 458.4925,118.4525 460.28001,115.57375 462.125,112.34375 L 462.1875,112.375 C 461.18875,115.98875 460.58375,119.26 459.96875,123.21875 L 457.4375,139.53125 L 463.34375,141.78125 L 483.78125,112.8125 L 478.09375,110.65625 L 469.40625,123.96875 C 467.1,127.55875 465.04751,130.96 463.125,134.28125 L 463.03125,134.25 C 463.8775,130.59875 464.6525,126.7925 465.34375,122.6875 L 467.875,106.75 L 462.03125,104.53125 L 453.21875,117.8125 C 450.835,121.5325 448.52,125.02875 446.75,128.21875 L 446.65625,128.1875 C 447.34875,124.805 448.21376,120.415 448.90625,116.21875 L 451.59375,100.5625 L 445.59375,98.3125 z M 262.28125,106.6875 L 256.875,109.125 L 262.5625,121.6875 L 249.96875,127.375 L 244.28125,114.8125 L 238.90625,117.28125 L 253.03125,148.5625 L 258.5,146.125 L 252.1875,132.34375 L 264.8125,126.625 L 271.03125,140.4375 L 276.5,137.96875 L 262.28125,106.6875 z M 490.46875,116.84375 L 474.8125,147.40625 L 480.09375,150.125 L 495.78125,119.5625 L 490.46875,116.84375 z M 231.375,122.34375 C 229.99125,122.4125 227.13251,123.1425 223.75,125.1875 C 215.295,130.39125 212.45625,140.09625 218.375,149.75 C 223.83125,158.65875 232.8175,161.2475 241.65625,155.84375 C 244.96125,153.8 247.2,151.4775 247.96875,150.09375 L 244.59375,146.40625 C 243.67125,147.86625 241.825,149.60626 239.75,150.875 C 233.6,154.61875 227.52875,152.68374 223.53125,146.25 C 219.22625,139.20875 221.07626,132.95875 226.6875,129.5 C 229.07,128.08625 231.1525,127.48125 232.84375,127.28125 L 231.375,122.34375 z M 504.15625,124.46875 L 486.25,153.28125 L 491.25,156.375 L 498.71875,144.375 L 501.3125,145.96875 C 504.08,147.845 504.70751,149.89 503.09375,154.1875 C 501.6325,158.3075 500.77875,161.0975 500.625,162.21875 L 505.84375,165.4375 C 505.9975,163.955 507.39625,160.1425 508.78125,155.96875 C 509.8575,152.7175 509.86751,149.94375 508.40625,147.9375 L 508.46875,147.78125 C 511.69625,148.39625 515.69497,147.36 518,143.59375 C 519.53875,141.11875 520.00373,138.56374 519.3125,136.28125 C 518.4675,133.48375 516.15378,131.10749 512.15625,128.625 C 509.235,126.81125 506.23124,125.29875 504.15625,124.46875 z M 506.84375,131.28125 C 507.45875,131.45875 508.5425,131.94625 510.15625,132.9375 C 513.4625,134.9825 514.68502,137.79375 512.6875,141 C 510.92,143.8975 507.53874,144.49625 504.15625,142.375 L 501.15625,140.5 L 506.84375,131.28125 z M 528.375,139.34375 L 525.15625,143.5 L 532.4375,149.21875 L 514.53125,172.125 L 519.21875,175.78125 L 537.125,152.875 L 544.53125,158.6875 L 547.75,154.53125 L 528.375,139.34375 z M 202.84375,140.78125 C 200.92125,141.09625 198.4075,142.05126 195.5625,144.21875 C 190.02875,148.53875 189.08749,154.6675 192.46875,159.09375 C 195.54375,163.0075 200.09126,163.2775 205.625,161.59375 C 209.85375,160.295 212.07375,160.51 213.6875,162.5625 C 215.37875,164.77625 214.84125,167.56875 211.84375,169.90625 C 209.3825,171.77375 206.47875,172.73875 204.25,173 L 206.375,177.90625 C 208.52625,177.7 211.99625,176.34875 214.6875,174.25 C 221.37375,169.0925 221.53876,162.85751 218.15625,158.5 C 215.1575,154.595 211.15375,153.90376 205.3125,155.59375 C 200.77625,156.8475 198.45875,157.03625 196.84375,154.9375 C 195.69125,153.36875 195.6275,150.65 198.625,148.34375 C 201.085,146.47625 203.47501,145.88 204.78125,145.6875 L 202.84375,140.78125 z M 180.40625,157.4375 L 176.03125,161.4375 L 199.09375,186.875 L 203.46875,182.875 L 180.40625,157.4375 z M 552.96875,162.40625 C 550.30719,162.29594 547.77249,163.29438 545.8125,165.3125 C 542.35375,168.8775 542.75873,173.42875 545.21875,178.625 C 547.14125,182.6525 547.28253,184.905 545.4375,186.78125 C 543.515,188.8025 540.67503,188.69125 537.90625,186.03125 C 535.755,183.9175 534.36499,181.16 533.75,178.96875 L 529.21875,181.8125 C 529.75625,183.865 531.52628,187.10875 534.0625,189.5 C 540.135,195.34125 546.28125,194.62249 550.125,190.65625 C 553.58375,187.0975 553.66128,183.01875 551.125,177.46875 C 549.20375,173.16375 548.74997,170.96876 550.59375,169.0625 C 551.9775,167.6325 554.57627,167.2225 557.34375,169.84375 C 559.49625,171.9575 560.52126,174.2475 560.90625,175.53125 L 565.4375,172.875 C 564.82125,171.03875 563.50622,168.67125 560.96875,166.21875 C 558.4325,163.76687 555.63031,162.51656 552.96875,162.40625 z M 169.25,169.3125 C 167.7125,169.905 164.95375,171.63501 162.1875,174.59375 C 154.96,182.565 155.13125,192.71374 163.125,200.03125 C 166.96875,203.575 171.41125,205.37126 175.5625,205.1875 C 179.94375,204.995 183.79626,202.94875 187.5625,198.875 C 190.48375,195.6625 192.38751,191.895 193.15625,189.8125 L 180.40625,178.0625 L 172.5625,186.59375 L 176.25,189.90625 L 180.09375,185.65625 L 186.46875,191.4375 C 186.23875,192.28375 185.39875,193.67499 183.9375,195.25 C 179.40375,200.25375 172.85875,200.48376 167.09375,195.21875 C 161.17625,189.8225 161.34125,183.2675 166.03125,178.125 C 168.33625,175.58875 170.32625,174.42626 172.09375,173.65625 L 169.25,169.3125 z M 570.625,184.9375 C 566.73661,184.99745 562.70648,186.49476 558.90625,189.65625 C 550.835,196.3275 549.57752,205.5525 556.1875,213.53125 C 558.64875,216.54375 561.28873,218.44 562.75,219.03125 L 565.96875,215.125 C 564.355,214.42625 562.34875,212.80501 560.8125,210.9375 C 556.27625,205.42625 557.28375,199.09251 563.125,194.28125 C 569.505,189.0075 575.86627,189.88875 580.09375,195 C 581.8625,197.08375 582.72625,199.12875 583.1875,200.78125 L 587.875,198.5625 C 587.64625,197.21 586.47377,194.51999 583.9375,191.5 C 580.34875,187.18492 575.62436,184.86042 570.625,184.9375 z M 147.96875,200.46875 C 143.33533,200.42166 138.995,202.45164 135.96875,206.875 C 130.74125,214.45375 133.37875,223.8475 142.0625,229.8125 C 150.365,235.5225 159.74125,234.93125 164.96875,227.34375 C 170.04125,219.91875 168.32876,210.73626 158.875,204.21875 C 155.34383,201.79719 151.57252,200.50538 147.96875,200.46875 z M 593.9375,205.3125 L 564.96875,223.6875 L 568.125,228.71875 L 580.875,220.625 L 588.25,232.28125 L 575.5,240.375 L 578.71875,245.40625 L 607.6875,227.03125 L 604.5625,222 L 592.875,229.375 L 585.5,217.6875 L 597.15625,210.34375 L 593.9375,205.3125 z M 145.96875,206.46875 C 149.03561,206.25966 152.51664,207.50023 155.5,209.5625 C 161.4175,213.62125 164.25874,219.5 161.03125,224.25 C 157.8025,228.9625 151.26501,228.5375 145.5,224.59375 C 139.65875,220.58125 136.66249,214.68625 139.96875,209.8125 C 141.44805,207.66383 143.58341,206.63137 145.96875,206.46875 z M 119.15625,236.0625 L 116.3125,241.3125 L 146.65625,257.40625 L 155.71875,240.28125 L 151.125,237.84375 L 144.8125,249.6875 L 119.15625,236.0625 z M 616.53125,244.53125 L 580.9375,249.3125 L 583.5,254.90625 L 593.46875,253.40625 L 597.78125,262.84375 L 590.1875,269.5625 L 592.875,275.375 L 619.6875,251.4375 L 616.53125,244.53125 z M 613.46875,249.8125 L 613.46875,249.90625 C 611.855,251.175 609.92753,252.6175 608.3125,254.0625 L 601.71875,259.9375 L 598.25,252.3125 L 606.9375,251.0625 C 609.08875,250.74 611.39375,250.19624 613.46875,249.8125 z M 119.4375,254.15625 C 113.53642,254.3704 108.48172,257.49507 106.15625,263.625 C 102.85125,272.21875 107.63,280.73376 117.46875,284.5 C 126.84625,288.0975 135.81874,285.31251 139.125,276.71875 C 142.3525,268.30125 138.605,259.76875 127.84375,255.65625 C 124.98555,254.56563 122.11981,254.05891 119.4375,254.15625 z M 118.9375,260.375 C 121.13175,260.30554 123.50188,260.75735 125.75,261.625 C 132.51375,264.185 136.5925,269.24374 134.59375,274.625 C 132.5175,279.9675 126.1275,281.08499 119.59375,278.59375 C 112.98375,276.0725 108.70625,271.04251 110.78125,265.53125 C 112.12656,262.05313 115.28042,260.49076 118.9375,260.375 z M 626.90625,269.25 L 594.25,279.8125 L 596.09375,285.46875 L 609.9375,281 L 613.625,292.4375 L 618.53125,290.84375 L 614.84375,279.40625 L 623.84375,276.5 L 627.84375,288.75 L 632.6875,287.1875 L 626.90625,269.25 z M 99.09375,286.53125 L 97.53125,292.28125 L 130.6875,301.3125 L 132.21875,295.5625 L 99.09375,286.53125 z M 634.4375,293.15625 L 629.3125,294.25 L 631.21875,303.34375 L 602.78125,309.375 L 604,315.1875 L 632.4375,309.1875 L 634.375,318.375 L 639.53125,317.28125 L 634.4375,293.15625 z M 101.25,302.71875 C 99.282773,302.84086 97.61656,303.70468 96.40625,305.03125 C 94.4075,306.92875 93.331247,309.48501 92.5625,313.8125 C 91.9475,317.1025 91.641248,320.54001 91.71875,322.46875 L 124.90625,328.625 C 125.3675,327.1875 126.0725,324.73626 126.6875,321.5 C 127.76375,315.64375 127.44125,311.70624 125.75,309.03125 C 124.44375,306.87875 122.3875,305.21 119.3125,304.65625 C 114.7,303.79625 111.3175,306.35 109.78125,309.5625 L 109.6875,309.5625 C 108.92,305.8425 106.46375,303.4525 103.3125,302.875 C 102.60156,302.74469 101.90574,302.67805 101.25,302.71875 z M 101.8125,308.78125 C 102.16588,308.77475 102.54359,308.83328 102.9375,308.90625 C 105.7825,309.4375 107.395,312.08251 106.625,316.125 L 106.09375,319.125 L 96.84375,317.40625 C 96.84375,316.76125 96.941253,315.77625 97.25,314.0625 C 97.854844,310.8075 99.338815,308.82672 101.8125,308.78125 z M 116.59375,310.6875 C 117.0312,310.66822 117.51,310.69094 118,310.78125 C 122.15,311.55 123.06625,315.17874 122.375,318.9375 C 122.0675,320.275 121.90125,321.26876 121.59375,322 L 110.625,319.96875 L 111.15625,317.0625 C 111.76219,313.52531 113.53159,310.82244 116.59375,310.6875 z M 621.1875,335.46875 C 620.97655,335.47174 620.7475,335.47555 620.53125,335.5 C 617.0725,335.7925 614.76878,338.56626 615,341.65625 L 615,341.71875 C 615.3075,344.94625 618.22627,347.22999 621.53125,346.9375 C 624.99125,346.64625 627.36874,343.83876 627.0625,340.65625 C 626.8457,337.71719 624.35174,335.42385 621.1875,335.46875 z M 109.59375,343.1875 C 106.43922,343.30582 103.98789,345.60312 103.84375,348.59375 C 103.6125,351.73875 106.14875,354.525 109.53125,354.625 C 112.99,354.82375 115.7525,352.43374 115.90625,349.34375 L 115.90625,349.28125 C 116.06,346.045 113.52375,343.37999 110.21875,343.1875 C 110.00258,343.17555 109.80405,343.17961 109.59375,343.1875 z"
       transform="matrix(0,0.8,0.8,0,9.835,130.72)"
       id="text"
       style="fill:#21489f;fill-opacity:1;fill-rule:nonzero;stroke:none" /><path
       d="M 357.8125,300.375 C 346.43625,328.85375 348.14001,356.50251 374.8125,368.5625 C 406.17375,339.29125 383.33125,307.13126 357.8125,300.375 z M 317.53125,342.46875 C 312.96423,342.56736 308.27305,343.44258 303.625,345.1875 C 307.16125,376.78 322.08626,401.44999 352.0625,398.875 C 363.0882,364.38566 342.19313,341.93623 317.53125,342.46875 z M 398.15625,356.84375 C 376.55625,380.54875 367.73501,408.37374 389.71875,429.21875 C 428.99625,411.88625 417.44999,367.69749 398.15625,356.84375 z M 339.59375,408.5625 C 328.45149,408.59899 316.96184,413.62242 307.9375,422.5 C 327.15375,447.9275 352.74375,461.515 377.1875,443.90625 C 371.39102,419.08676 355.87859,408.50916 339.59375,408.5625 z M 414.3125,423.5625 C 391.40625,445.42375 380.86124,472.16126 401,494.40625 C 441.43125,480.12375 436.3725,437.57501 414.3125,423.5625 z M 351.4375,460.875 C 335.70438,460.70809 320.82868,471.1082 313.78125,485.6875 C 340.37625,503.53625 369.035,508.1425 386.40625,483.4375 C 376.41867,467.54148 363.67437,461.00482 351.4375,460.875 z"
       transform="matrix(0,0.8,0.8,0,9.835,130.72)"
       id="kerne"
       style="fill:#d9e690;fill-opacity:1;stroke:#d9e690;stroke-width:8.49374962;stroke-linecap:butt;stroke-linejoin:miter;stroke-miterlimit:4;stroke-dasharray:none;stroke-opacity:1" /><g
       id="stile"><path
         d="M 348.6865,462.167 C 335.5025,476.003 324.5385,495.435 318.9795,514.312"
         id="path213"
         style="fill:none;stroke:#d9e690;stroke-width:6.79500008;stroke-linecap:butt;stroke-linejoin:miter;stroke-miterlimit:4;stroke-dasharray:none;stroke-opacity:1" /><path
         d="M 295.3045,449.254 C 281.1985,462.167 268.9245,480.676 262.0745,499.001"
         id="path225"
         style="fill:none;stroke:#d9e690;stroke-width:6.79500008;stroke-linecap:butt;stroke-linejoin:miter;stroke-miterlimit:4;stroke-dasharray:none;stroke-opacity:1" /><path
         d="M 250.1385,416.97 C 231.4935,424.41 212.4005,438.8 199.3335,454.911"
         id="path237"
         style="fill:none;stroke:#d9e690;stroke-width:6.79500008;stroke-linecap:butt;stroke-linejoin:miter;stroke-miterlimit:4;stroke-dasharray:none;stroke-opacity:1" /><path
         d="M 285.9885,373.618 C 268.8119,371.70996 249.07877,374.03613 231.88347,379.68206 C 220.81704,383.31563 210.80174,388.32419 203.1955,394.464"
         id="path249"
         style="fill:none;stroke:#d9e690;stroke-width:6.79500008;stroke-linecap:butt;stroke-linejoin:miter;stroke-miterlimit:4;stroke-dasharray:none;stroke-opacity:1" /><path
         d="M 347.8255,377.062 C 325.1965,359.967 290.8595,349.144 266.1705,352.65"
         id="path261"
         style="fill:none;stroke:#d9e690;stroke-width:6.79500008;stroke-linecap:butt;stroke-linejoin:miter;stroke-miterlimit:4;stroke-dasharray:none;stroke-opacity:1" /><path
         d="M 398.3835,381.735 C 382.5735,358.245 353.7525,336.846 329.3405,332.11"
         id="path273"
         style="fill:none;stroke:#d9e690;stroke-width:6.79500008;stroke-linecap:butt;stroke-linejoin:miter;stroke-miterlimit:4;stroke-dasharray:none;stroke-opacity:1" /></g></g></svg>