<?xml version="1.0" encoding="UTF-8" standalone="no"?>
<!-- Created with Inkscape (http://www.inkscape.org/) -->
<svg xmlns:dc="http://purl.org/dc/elements/1.1/" xmlns:cc="http://creativecommons.org/ns#" xmlns:rdf="http://www.w3.org/1999/02/22-rdf-syntax-ns#" xmlns:svg="http://www.w3.org/2000/svg" xmlns="http://www.w3.org/2000/svg" xmlns:sodipodi="http://sodipodi.sourceforge.net/DTD/sodipodi-0.dtd" xmlns:inkscape="http://www.inkscape.org/namespaces/inkscape" id="svg2915" version="1.1" inkscape:version="0.47 r22583" width="428.96893" height="324.25766" sodipodi:docname="brain_draw.svg">
  <metadata id="metadata2921">
    <rdf:RDF>
      <cc:Work rdf:about="">
        <dc:format>image/svg+xml</dc:format>
        <dc:type rdf:resource="http://purl.org/dc/dcmitype/StillImage"/>
        <dc:title/>
      </cc:Work>
    </rdf:RDF>
  </metadata>
  <defs id="defs2919">
    <inkscape:perspective sodipodi:type="inkscape:persp3d" inkscape:vp_x="0 : 0.5 : 1" inkscape:vp_y="0 : 1000 : 0" inkscape:vp_z="1 : 0.5 : 1" inkscape:persp3d-origin="0.5 : 0.33333333 : 1" id="perspective2923"/>
    <inkscape:perspective id="perspective4165" inkscape:persp3d-origin="0.5 : 0.33333333 : 1" inkscape:vp_z="1 : 0.5 : 1" inkscape:vp_y="0 : 1000 : 0" inkscape:vp_x="0 : 0.5 : 1" sodipodi:type="inkscape:persp3d"/>
  </defs>
  <sodipodi:namedview pagecolor="#ffffff" bordercolor="#666666" borderopacity="1" objecttolerance="10" gridtolerance="10" guidetolerance="10" inkscape:pageopacity="0" inkscape:pageshadow="2" inkscape:window-width="1920" inkscape:window-height="1001" id="namedview2917" showgrid="false" inkscape:zoom="0.50000001" inkscape:cx="138.38002" inkscape:cy="-231.26988" inkscape:window-x="0" inkscape:window-y="0" inkscape:window-maximized="1" inkscape:current-layer="svg2915" inkscape:object-paths="false" inkscape:snap-object-midpoints="true" showguides="true" inkscape:guide-bbox="true">
    <sodipodi:guide orientation="0,1" position="114,212" id="guide3927"/>
  </sodipodi:namedview>
  <path style="fill: rgb(0, 0, 0);" d="m 245.20872,322.76428 c -0.68469,-0.825 -1.90782,-1.5 -2.71807,-1.5 -1.52421,0 -7.27224,-3.65983 -8.45196,-5.38145 -0.36852,-0.53779 -1.48119,-1.09685 -2.47261,-1.24236 -0.99141,-0.14551 -2.35905,-1.07718 -3.0392,-2.07038 -0.68014,-0.99319 -1.63995,-2.25581 -2.1329,-2.80581 -0.5009,-0.55886 -0.53352,-2.26948 -0.074,-3.87773 1.42027,-4.97013 -0.16142,-6.28557 -8.25406,-6.8646 -6.72418,-0.48111 -7.5536,-0.31072 -12.09775,2.48533 -4.51314,2.77696 -5.33651,2.95005 -10.99037,2.31039 -3.36145,-0.38031 -10.19715,-1.52061 -15.19043,-2.53401 -4.99329,-1.01339 -11.3287,-2.07838 -14.0787,-2.36663 -7.67477,-0.80446 -11.85502,-1.86491 -13.38585,-3.39574 -2.55588,-2.55588 -5.98658,-4.41912 -8.68141,-4.71494 -1.73998,-0.191 -5.09361,-2.72018 -9.65446,-7.28104 l -6.98838,-6.98837 0.0665,-5.5677 0.0665,-5.56769 -3.21069,1.68136 c -1.76589,0.92476 -3.43604,1.94764 -3.71145,2.27308 -1.83187,2.16458 -10.48376,4.10669 -16.72405,3.75408 -6.475378,-0.36589 -7.018488,-0.59152 -10.508958,-4.36581 -2.02439,-2.18899 -3.96689,-5.2441 -4.31667,-6.78913 -0.57768,-2.55167 -0.92539,-2.74732 -3.79353,-2.13453 -1.73665,0.37104 -3.72005,1.12776 -4.40755,1.6816 -0.6875,0.55383 -1.25,0.71772 -1.25,0.3642 0,-0.35352 -1.78207,0.26638 -3.96016,1.37756 -8.49345,4.33303 -15.87149,1.45137 -25.28984,-9.87749 -2.65764,-3.19676 -3.13837,-4.33105 -2.85255,-6.73069 0.0739,-0.62067 -1.33525,-1.80479 -3.13151,-2.63136 -1.79622,-0.82658 -5.06589,-2.32031 -7.26589,-3.3194 -2.2,-0.9991 -4.225,-2.12542 -4.5,-2.50295 -0.275,-0.37754 -1.33313,-0.85098 -2.3514,-1.05211 -3.88506,-0.76736 -9.02004,-14.12543 -5.89147,-15.32598 1.01746,-0.39043 0.56476,-1.23941 -1.65835,-3.11003 -1.68181,-1.41516 -3.44723,-2.33235 -3.92315,-2.03821 -1.23364,0.76243 -8.17563,-5.84051 -8.17563,-7.77633 0,-0.88832 -0.4500003,-1.61513 -1.0000003,-1.61513 -0.55,0 -1,-0.59015 -1,-1.31144 0,-0.72129 -0.9086,-2.28671 -2.01912,-3.47871 -1.54208,-1.65523 -1.98896,-3.41268 -1.89146,-7.43856 0.12347,-5.0977 2.53284,-15.75077 3.79311,-16.77129 0.33961,-0.275 1.41416,-1.93499 2.3879003,-3.68888 1.42005,-2.55777 1.51188,-3.3494 0.46403,-4 -0.71852,-0.44611 -2.3027203,-2.10931 -3.5204303,-3.69598 -1.82812,-2.38202 -2.21933,-2.55632 -2.24444,-1 -0.0563,3.4899 -1.98162,-1.09365 -3.09663,-7.37203 -3.0905,-17.40213 -2.78381993,-24.89185 1.21477,-29.66645 4.85531,-5.79758 7.1702403,-7.77729 7.8355103,-6.70087 0.46342,0.74985 1.83535,-0.23628 3.89584,-2.80029 1.82168,-2.26684 2.75336,-4.22171 2.18072,-4.57563 -1.27521,-0.78812 -1.29285,-6.5989 -0.0301,-9.92014 0.53333,-1.40276 2.67083,-4.82908 4.75,-7.61405 2.07917,-2.78497 3.55531,-5.30301 3.28031,-5.59565 -0.275,-0.29264 0.41728,-1.05811 1.5384,-1.70105 3.68647,-2.1141 15.4616,-11.83197 15.4616,-12.76026 0,-0.4998 0.53763,-0.90872 1.19472,-0.90872 0.6571,0 6.1696,-5.06985 12.25,-11.26634 6.08041,-6.19649 12.30541,-11.8176 13.83334,-12.49135 1.52794,-0.67375 3.03859,-1.9039 3.35699,-2.73366 0.31841,-0.82976 1.09328,-1.51168 1.72194,-1.51539 0.62865,-0.004 4.29301,-2.04135 8.14301,-4.5281 3.85,-2.48675 8.8,-5.00979 11,-5.60676 8.735458,-2.37037 14.208078,-4.47893 18.621558,-7.17475 2.54186,-1.5526 5.24186,-2.92864 6,-3.05785 0.75814,-0.12921 2.83318,-1.00542 4.61121,-1.94713 1.77802,-0.94172 5.37802,-1.9654 8,-2.27486 2.62197,-0.30946 5.66723,-0.93472 6.76723,-1.38946 1.1,-0.45473 4.91304,-1.59548 8.47343,-2.535 3.56039,-0.93952 6.93539,-2.2577 7.5,-2.9293 1.55142,-1.84538 20.6937,-6.72343 31.52657,-8.0339496 3.025,-0.36595 8.65,-1.51443 12.5,-2.55217 7.30792,-1.96981 9.1254,-2.3074 19,-3.5292 3.3,-0.40831 6.675,-0.89885 7.5,-1.09008 8.49148,-1.96828997 23.94479,-2.17965997 26.5,-0.36247 1.26786,0.90166 11.0537,1.53426 19.5,1.26055 3.575,-0.11585 10.775,0.6532 16,1.70901 5.225,1.0558 13.55,2.64455 18.5,3.53055 4.95,0.886 13.26575,2.5461896 18.47945,3.6893096 5.2137,1.14312 10.5012,2.0784 11.75,2.0784 1.2488,0 2.27055,0.35799 2.27055,0.79554 0,0.43755 1.4625,1.11284 3.25,1.50064 1.7875,0.3878 3.53757,1.15682 3.88905,1.70895 0.35148,0.55213 4.61894,1.22049 9.48324,1.48525 6.62985,0.36086 9.44548,0.95437 11.2458,2.3705 1.3209,1.03902 2.97336,1.88912 3.67216,1.88912 0.69879,0 3.15568,1.575 5.45975,3.5 2.30407,1.925 4.64974,3.5 5.2126,3.5 0.56285,0 2.56094,1.35 4.44018,3 1.87925,1.65 3.85114,3 4.38204,3 0.5308,0 0.9652,0.47159 0.9652,1.04797 0,1.31014 5.1072,5.87774 6.6198,5.92043 0.6159,0.0174 2.5741,1.81578 4.3515,3.99643 1.7775,2.18066 4.0112,4.21223 4.9639,4.5146 2.4717,0.78451 8.0648,16.01641 8.0648,21.96345 0,4.00561 3.8903,17.7585 5.9565,21.05712 0.3445,0.55 0.7493,5.05 0.8995,10 0.3234,10.65294 0.6387,12.01522 3.7406,16.15779 1.3005,1.73678 3.10644,5.33678 4.01334,8 1.4181,4.16488 1.479,5.75143 0.4353,11.34221 -0.6673,3.575 -1.7167,8.075 -2.33204,10 -0.6153,1.925 -0.9973,4.10766 -0.8491,4.85035 0.1483,0.7427 -0.2104,1.05364 -0.7972,0.69099 -1.2837,-0.79335 -1.3872,1.45979 -0.2133,4.64356 0.4694,1.27331 1.1513,3.6651 1.5153,5.3151 0.6237,2.82724 0.5745,2.88822 -0.8536,1.05887 -1.446,-1.85236 -1.5153,-1.80043 -1.5153,1.13569 0,1.69226 -0.6564,4.34206 -1.4587,5.88845 -0.9892,1.90674 -1.138,3.19803 -0.4622,4.01228 1.252,1.50859 1.9591,4.48982 2.6304,11.09041 0.6774,6.65941 -3.0199,19.11359 -6.9525,23.41918 -1.5164,1.66021 -2.82,4.00328 -2.8969,5.20684 -0.077,1.20355 -0.2365,3.84075 -0.3545,5.86043 -0.1958,3.35141 -4.0312,12.15038 -6.8992,15.82785 -0.6434,0.825 -2.2555,3.525 -3.5823,6 -1.3269,2.475 -3.0001,5.09464 -3.7183,5.82143 -0.7182,0.72678 -1.3058,1.74046 -1.3058,2.2526 0,0.51215 -1.8,2.55737 -4,4.54493 -2.2,1.98757 -4,4.02034 -4,4.51727 0,0.49693 -1.1263,2.68763 -2.5028,4.86822 -2.51581,3.98525 -10.46048,8.99555 -14.26398,8.99555 -1.00828,0 -2.2997,0.46646 -2.86983,1.03659 -1.33788,1.33788 -5.86977,2.29707 -10.59905,2.24331 -2.05461,-0.0233 -3.49593,0.34542 -3.20294,0.81948 0.29299,0.47406 -1.25437,1.1477 -3.43858,1.49697 -2.75433,0.44043 -3.8133,1.04672 -3.45574,1.9785 0.58068,1.51325 -5.14055,5.41552 -7.94848,5.42141 -0.97977,0.002 -2.04521,0.69124 -2.36765,1.53152 -0.32245,0.84028 -1.46766,1.99949 -2.54492,2.57602 -2.99189,1.60121 -16.22303,2.27859 -18.69249,0.95698 -1.77726,-0.95117 -2.1324,-0.8471 -2.23198,0.65404 -0.0651,0.98185 -0.054,2.15613 0.0248,2.60951 0.0788,0.45338 -0.23772,0.58891 -0.70328,0.30118 -0.46557,-0.28774 -2.10315,0.12882 -3.63909,0.92567 -1.53593,0.79685 -3.43029,1.44882 -4.20968,1.44882 -0.77939,0 -1.6652,0.64659 -1.96845,1.43686 -0.30326,0.79027 -1.17757,1.19656 -1.94292,0.90287 -0.76535,-0.29369 -2.07841,0.15288 -2.91791,0.99238 -0.8395,0.83951 -4.02407,2.04489 -7.07683,2.67864 -4.73399,0.98278 -5.91068,0.91624 -7.99933,-0.45229 -2.15759,-1.4137 -2.44889,-1.42339 -2.44889,-0.0815 0,0.83768 -0.43925,1.52305 -0.97611,1.52305 -0.53686,0 -1.86697,1.6875 -2.9558,3.75 -1.08884,2.0625 -1.99959,3.37417 -2.02389,2.91483 -0.0243,-0.45934 -2.1817,0.71672 -4.7942,2.61347 -8.79405,6.38473 -24.19618,9.90133 -27.25,6.2217 z m 15.1996,-2.39665 c 10.48527,-3.60746 19.62109,-11.16105 21.8954,-18.10335 1.48914,-4.54559 2.905,-6.07041 2.905,-3.12857 0,6.1665 8.70413,7.2427 16.15437,1.99737 1.4599,-1.02784 3.1919,-1.8688 3.84887,-1.8688 1.70582,0 8.36554,-3.20275 9.19397,-4.4215 0.38347,-0.56414 0.34044,-1.26259 -0.0956,-1.55211 -0.43606,-0.28951 -1.42481,-1.83834 -2.19722,-3.44183 -0.7724,-1.60349 -2.24626,-3.03416 -3.27525,-3.17926 -3.85883,-0.54414 -12.19548,-2.70389 -13.96241,-3.61721 -1.17501,-0.60735 -3.50897,-0.56655 -6.5,0.11364 -5.20452,1.18354 -11.57155,1.90545 -17.82691,2.02125 -3.29903,0.0611 -5.23983,0.93041 -9.37568,4.19962 -2.86851,2.26743 -5.41599,4.88934 -5.66106,5.82648 -0.48868,1.86874 -6.0926,5.59472 -7.01987,4.66744 -0.9138,-0.91379 6.82975,-9.00081 10.96681,-11.45325 2.0625,-1.22264 3.75,-2.65955 3.75,-3.19313 0,-0.53358 1.74375,-0.97014 3.875,-0.97014 4.95676,0 10.21542,-1.04469 9.67338,-1.92172 -0.23054,-0.37301 1.23927,-0.76195 3.26623,-0.8643 2.02697,-0.10236 6.69562,-0.46031 10.3748,-0.79545 5.80972,-0.52921 6.97107,-0.34693 8.83131,1.38615 2.60024,2.42249 8.95921,3.4112 9.69006,1.50664 0.27676,-0.72123 1.38161,-1.31132 2.45523,-1.31132 1.07361,0 1.73292,-0.35452 1.46513,-0.78781 -0.26779,-0.4333 0.94315,-1.40975 2.69098,-2.16989 1.74783,-0.76014 3.40288,-1.65228 3.67788,-1.98254 0.275,-0.33026 1.625,-1.10188 3,-1.71471 2.38119,-1.06128 4.47257,-4.22512 7.16888,-10.84505 0.67204,-1.65 1.25837,-3.45 1.30294,-4 0.0446,-0.55 0.45543,-1.59846 0.91302,-2.32992 0.54771,-0.87551 0.11158,-1.8345 -1.27643,-2.8067 -2.11244,-1.4796 -2.94789,-5.36338 -1.15374,-5.36338 0.52507,0 1.24301,-1.53689 1.5954,-3.41531 0.35239,-1.87843 1.72279,-4.43187 3.04531,-5.67432 3.01746,-2.83475 3.00186,-2.45665 -0.18586,4.50625 -2.44087,5.33157 -2.49729,5.80052 -0.97695,8.12085 1.46267,2.23232 4.13715,3.06123 8.242,2.55449 0.64603,-0.0797 1.46009,0.31693 1.80902,0.88152 0.84587,1.36864 5.11735,1.30444 7.83213,-0.11772 1.20134,-0.62933 4.92401,-3.31019 8.27259,-5.95746 5.56864,-4.40237 6.25905,-5.38599 8.08839,-11.5234 2.12511,-7.12976 2.2508,-7.23131 9.72394,-7.85603 13.12246,-1.09696 14.44116,-1.51143 18.58096,-5.83987 4.2259,-4.41848 5.5883,-4.04304 1.7672,0.48698 -1.2369,1.46629 -2.9923,3.55749 -3.9009,4.6471 -1.3711,1.64414 -3.4548,2.10398 -12.25002,2.70347 -9.47951,0.64612 -10.5979,0.92224 -10.5979,2.61647 0,1.04176 -0.42282,2.67551 -0.9396,3.63055 -0.51678,0.95504 -1.19245,2.94246 -1.5015,4.4165 -0.58745,2.80192 -1.44419,3.85076 -6.18721,7.57448 -1.57943,1.24001 -4.27161,3.36485 -5.98263,4.72188 -5.09338,4.03963 -13.63969,6.14951 -14.55573,3.59345 -0.18333,-0.51157 -1.65403,-1.07407 -3.26822,-1.25 -2.31188,-0.25198 -3.19077,0.21081 -4.14032,2.18012 -1.87713,3.89304 -5.12753,11.39193 -5.41814,12.5 -0.26341,1.0044 -4.70499,3.91371 -10.75665,7.04581 -3.68831,1.90893 -3.77994,2.25011 -1.84677,6.87682 2.79488,6.68911 11.61079,7.14353 21.54236,1.11042 10.70704,-6.50418 12.4486,-8.79478 13.57788,-17.85841 0.92776,-7.44623 2.86418,-6.09433 2.60559,1.81908 l -0.18242,5.58224 5.27668,-0.68011 c 2.90217,-0.37407 6.40168,-1.13633 7.77668,-1.69392 1.375,-0.55759 2.95,-1.06893 3.5,-1.13632 8.03015,-0.98386 13.20238,-4.05791 15.58159,-9.26075 2.42353,-5.2998 2.42293,-5.30486 -0.63125,-5.30486 -6.33633,0 -8.7518,-3.03472 -10.94427,-13.75 -0.81206,-3.96883 0.99145,-4.43343 1.94093,-0.5 2.69326,11.15751 2.89237,11.41675 9.71317,12.64684 3.31925,0.59859 3.99375,0.30809 7.24135,-3.11838 1.9696,-2.07815 3.585,-4.24095 3.5898,-4.80622 0,-0.56527 0.9087,-1.79836 2.0087,-2.74021 1.7526,-1.50065 2.5825,-4.33863 2.0775,-7.10471 -0.088,-0.47998 0.5575,-0.59763 1.4335,-0.26146 0.9183,0.35238 1.3353,0.19446 0.9846,-0.3729 -0.3345,-0.54127 0.4444,-1.99861 1.731,-3.23854 3.4628,-3.33742 5.6225,-7.12771 6.639,-11.65163 1.237,-5.50576 -0.8265,-16.02306 -3.9803,-20.28661 -3.1882,-4.31004 -5.1522,-8.81618 -3.8424,-8.81618 0.55,0 1.5353,1.2375 2.1896,2.75 0.6543,1.5125 2.2198,4.02218 3.4788,5.57707 1.2591,1.55489 2.5686,3.9399 2.9099,5.30003 1.6121,6.42295 8.2255,-3.44393 8.7438,-13.04519 0.1543,-2.85975 0.5991,-5.71488 0.9884,-6.34474 0.9128,-1.47692 -0.301,-6.38757 -1.4096,-5.70247 -0.4635,0.28648 -1.1445,-1.0875 -1.5133,-3.0533 -0.6394,-3.40834 -0.7566,-3.49623 -2.5269,-1.89415 -1.0211,0.92403 -1.6446,2.02275 -1.3858,2.44161 0.2589,0.41886 -0.2059,1.0212 -1.0328,1.33853 -0.827,0.31733 -1.3869,1.15198 -1.2443,1.85478 0.3151,1.55296 -17.7188,1.50401 -22.2062,-0.0603 -2.6852,-0.93608 -2.8274,-0.82532 -3.3897,2.6394 -0.32278,1.98907 -0.18608,3.8642 0.30379,4.16695 0.48991,0.30275 -0.87317,4.10185 -3.02897,8.44245 -2.1558,4.34059 -3.91964,8.40848 -3.91964,9.03976 0,1.15413 -5.98156,3.77979 -9.25831,4.06402 -0.96707,0.0839 -2.79607,1.12744 -4.06445,2.31902 -1.26838,1.19158 -3.09466,2.16651 -4.05841,2.16651 -0.96375,0 -3.25501,1.14619 -5.09169,2.5471 -2.97593,2.26985 -4.32927,2.56006 -12.43328,2.66621 -7.57341,0.0992 -9.09642,0.38392 -9.10917,1.70291 -0.0132,1.3647 -0.14401,1.38029 -0.94563,0.11274 -1.0843,-1.71453 -1.24743,-1.58541 -3.43756,2.72104 -0.90907,1.7875 -2.11786,3.25 -2.6862,3.25 -0.56833,0 -0.81295,0.35659 -0.54359,0.79242 0.75135,1.21574 -13.35513,15.2076 -15.33215,15.2076 -0.57176,0 -1.03956,0.41968 -1.03956,0.93261 0,0.51294 -0.85141,1.20284 -1.89203,1.53312 -1.04062,0.33028 -2.12349,1.4856 -2.40638,2.56739 -0.28289,1.08178 -1.23148,1.96688 -2.10797,1.96688 -0.87649,0 -1.59362,0.41968 -1.59362,0.93261 0,0.51294 -0.94442,1.23236 -2.09872,1.59872 -1.1543,0.36636 -2.92204,1.40919 -3.92832,2.31739 -6.14259,5.54389 -12.05579,7.74789 -23.47296,8.74896 -2.2,0.1929 -5.125,0.67822 -6.5,1.07848 -3.32872,0.969 -10,1.01886 -10,0.0747 0,-1.53389 -1.58326,-0.67601 -3.01838,1.63549 -3.38838,5.45753 -18.56165,21.75554 -23.4678,25.20737 -3.31975,2.33569 -3.60672,5.08143 -1.04456,9.99455 0.83513,1.60143 1.52119,3.44143 1.52458,4.08889 0.007,1.35935 5.88397,6.40888 9.82129,8.43868 1.47668,0.76126 3.27951,1.94662 4.0063,2.63412 1.9137,1.81026 8.03757,1.53484 14.37817,-0.64665 z m -58.21064,-19.59764 c 1.5893,-0.82186 3.47945,-2.33206 4.20034,-3.356 1.11383,-1.58208 2.10258,-1.75964 6.58283,-1.18215 7.59146,0.97851 11.04612,0.27748 11.44703,-2.32288 0.30267,-1.96314 0.46891,-1.89087 1.96393,0.85389 l 1.63328,2.99857 1.25233,-2.74857 c 0.68878,-1.51171 1.76426,-2.74857 2.38995,-2.74857 1.16347,0 4.44776,-3.08053 11.65978,-10.93639 3.81258,-4.15294 6.41368,-8.59221 6.04305,-10.31361 -0.0888,-0.4125 0.40102,-0.78235 1.08852,-0.8219 0.6875,-0.0395 3.22924,-4.10688 5.6483,-9.03853 l 4.3983,-8.96663 -2.22979,-9.09204 c -1.22638,-5.00062 -2.50237,-9.82078 -2.83553,-10.71147 -0.50489,-1.34981 -0.34898,-1.41097 0.93642,-0.36738 0.8482,0.68863 2.55756,4.67241 3.7986,8.85285 2.63073,8.86166 2.30882,12.86175 -1.59752,19.85096 -3.9728,7.10812 -3.07958,7.35292 17.24231,4.72559 8.364,-1.08134 19.3009,-6.02737 24.12124,-10.90841 1.77779,-1.80017 3.87779,-3.27304 4.66667,-3.27304 0.78888,0 1.58433,-0.3375 1.76767,-0.75 0.54406,-1.22415 9.20327,-7.93865 12.9045,-10.00637 1.88585,-1.05355 3.42883,-2.43338 3.42883,-3.0663 0,-0.63291 1.00986,-2.39423 2.24413,-3.91404 4.7772,-5.88236 7.25561,-9.71404 7.24928,-11.20757 -0.004,-0.85565 -0.90066,-2.90572 -1.99341,-4.55572 -1.35068,-2.03946 -1.98893,-4.69371 -1.99341,-8.28984 -0.006,-5.1514 -2.85326,-12.7999 -5.36196,-14.40579 -0.59769,-0.38259 -0.72396,-1.05759 -0.2806,-1.5 0.44336,-0.4424 1.90401,0.54563 3.24588,2.19563 1.34187,1.65 2.87859,3.54351 3.41493,4.20779 0.53634,0.66429 0.97516,3.9329 0.97516,7.26357 0,5.95304 0.88596,8.585 4.13967,12.29786 2.71931,3.10305 19.31755,2.41641 22.67186,-0.93789 0.73223,-0.73223 2.08668,-1.33952 3.0099,-1.34953 0.92321,-0.01 3.65879,-1.36001 6.07905,-3 2.42027,-1.63999 5.25158,-2.9818 6.29181,-2.9818 5.10236,0 10.75044,-10.51324 12.3564,-23 1.66129,-12.91694 1.65948,-13.98289 -0.0248,-14.62919 -1.5056,-0.57775 -1.6143,-2.41697 -1.09794,-18.57711 0.3152,-9.86473 0.84895,-19.66094 1.1861,-21.76937 0.69011,-4.31572 0.23207,-4.74293 -8.12883,-7.58153 -4.80375,-1.63091 -9.2968,-1.39615 -13.96218,0.72954 -1.61452,0.73563 -2.48627,2.20845 -2.92274,4.93798 -0.34209,2.13932 -1.03429,3.88968 -1.53821,3.88968 -1.40751,0 -2.39087,10.44014 -1.38518,14.70605 0.78021,3.30945 1.32682,3.8578 4.28025,4.29395 5.44029,0.8034 5.16356,3.15007 -0.33789,2.86529 l -4.58354,-0.23726 -1.52431,-5.24346 c -1.42021,-4.88536 -1.38387,-5.84577 0.53215,-14.06305 1.13105,-4.85078 2.44922,-9.21236 2.92927,-9.69241 0.48005,-0.48005 0.63484,-1.49299 0.34398,-2.25097 -0.29082,-0.75797 -0.0307,-1.37814 0.57819,-1.37814 0.60885,0 1.10699,-0.60929 1.10699,-1.35398 0,-0.74468 1.14162,-2.5858 2.53693,-4.09137 7.84335,-8.46311 10.79347,-24.26671 6.42543,-34.42051 -3.67225,-8.53639 -1.73507,-9.50492 2.26839,-1.13414 3.22635,6.74591 3.56031,8.2177 3.32152,14.63806 -0.28457,7.65134 -2.81312,14.38232 -7.16808,19.0814 -2.78891,3.00929 -2.30905,4.28054 1.61581,4.28054 1.58508,0 3.18431,0.4892 3.55384,1.08712 0.36953,0.59791 1.59384,0.84602 2.72069,0.55134 2.27728,-0.59552 5.79055,0.91652 7.03693,3.02856 0.4463,0.75627 1.25352,1.10184 1.79381,0.76792 2.84245,-1.75673 3.42115,1.60297 3.22805,18.74183 -0.2277,20.20486 -0.1097,18.71662 -1.33332,16.82323 -0.6903,-1.06817 -0.97378,0.0978 -0.98469,4.05 -0.008,3.0525 0.47176,6.03707 1.06706,6.63237 0.5953,0.5953 1.15785,2.57697 1.25005,4.4037 0.1507,2.98688 0.5704,3.4267 4.1676,4.36764 2.2,0.57546 5.0774,1.65934 6.3941,2.40862 3.8084,2.16708 9.5435,0.8394 14.7291,-3.40978 3.0253,-2.47901 4.1497,-3.97487 3.3563,-4.4652 -0.856,-0.52906 -0.8804,-0.93058 -0.086,-1.42137 0.6087,-0.37621 1.5516,-0.40908 2.0953,-0.0731 0.5669,0.35034 0.7345,-0.0511 0.393,-0.94098 -0.3275,-0.85353 -0.1185,-1.5519 0.4645,-1.5519 1.1946,0 3.1399,-6.18992 3.1484,-10.01787 0.01,-2.84879 -5.1354,-11.05914 -5.7573,-9.19336 -0.2221,0.66617 -0.8466,1.21123 -1.3878,1.21123 -0.5413,0 -0.7105,-0.86213 -0.376,-1.91584 0.3344,-1.05372 0.1259,-2.21381 -0.4633,-2.57798 -1.1653,-0.72016 -0.6695,-4.84444 1.5635,-13.00618 0.8027,-2.93373 1.342,-9.62556 1.3053,-16.193 -0.034,-6.15615 0.2372,-12.55854 0.6037,-14.22753 1.0844,-4.93729 -0.076,-6.83505 -4.6537,-7.60839 -5.2994,-0.89533 -20.8971,-7.84173 -21.9889,-9.79271 -0.6838,-1.22189 0.1508,-1.13062 4.4083,0.4821 2.8885,1.09414 6.3768,2.36149 7.7518,2.81631 1.375,0.45483 3.85,1.49387 5.5,2.30897 1.65,0.8151 4.2489,1.7707 5.7754,2.12356 2.6123,0.60385 2.7397,0.47843 2.1673,-2.13387 -1.227,-5.60013 -2.3957,-8.34718 -5.0084,-11.77272 -1.4695,-1.92649 -2.2808,-3.50429 -1.803,-3.50622 0.4778,-0.002 1.0014,-2.46391 1.1637,-5.47107 0.2338,-4.33416 -0.2753,-6.63227 -2.4561,-11.08605 -1.5132,-3.09016 -3.7834,-6.43044 -5.045,-7.42285 -1.2617,-0.9924 -2.2939,-2.25793 -2.2939,-2.81227 0,-1.59789 -20.69541,-20.16297 -22.50002,-20.18393 -0.56187,-0.006 -1.07544,3.21666 -1.17219,7.35669 -0.16141,6.90717 -0.0167,7.45155 2.31318,8.69843 1.36695,0.73157 4.81943,3.85036 7.67223,6.93065 2.8527,3.08028 6.2994,6.36403 7.6593,7.29721 1.8071,1.24008 2.0296,1.69669 0.8267,1.69669 -0.9052,0 -2.9963,-1.13643 -4.647,-2.52541 l -3.0013,-2.5254 -0.7102,2.2754 c -0.39068,1.25148 -1.13797,2.55066 -1.6607,2.88708 -0.59386,0.3822 -0.54538,2.07043 0.1292,4.5 0.5938,2.13858 1.08214,4.69336 1.0852,5.67729 0.005,1.67299 -0.12869,1.66386 -2.06585,-0.14088 -1.62483,-1.51376 -2.07143,-3.15241 -2.07143,-7.60043 0,-3.11882 0.42435,-6.20543 0.94301,-6.85912 0.51865,-0.65369 0.80042,-2.08853 0.62616,-3.18853 -0.306,-1.9316 -5.38292,-7.25653 -8.67736,-9.10126 -1.38062,-0.77308 -1.44288,-1.50609 -0.4453,-5.24275 1.04189,-3.90265 0.96436,-4.48685 -0.7631,-5.75 -1.05754,-0.77329 -1.39059,-1.40599 -0.7401,-1.40599 1.52274,0 0.98074,-5.3538 -0.75355,-7.44349 -0.71049,-0.85608 -2.13669,-1.55651 -3.16934,-1.55651 -1.03266,0 -1.87756,-0.40297 -1.87756,-0.8955 0,-0.49252 -1.77812,-1.77524 -3.95138,-2.85048 -5.82056,-2.87979 -11.00059,-1.83852 -13.2519,2.66384 -0.9368,1.8735 -2.14039,3.67651 -2.67465,4.0067 -0.53425,0.33018 -2.46778,3.51973 -4.29672,7.08789 -2.62141,5.11421 -4.24074,6.98838 -7.64958,8.85342 -4.94996,2.70823 -7.45322,6.71352 -5.11891,8.19043 0.99675,0.63064 1.05649,0.91781 0.19314,0.92839 -0.6875,0.008 -1.25,0.49187 -1.25,1.07433 0,0.58246 0.39884,0.81252 0.88631,0.51124 0.48747,-0.30127 1.13218,0.39245 1.43269,1.5416 0.30056,1.14932 1.02659,1.79259 1.61369,1.42974 0.58702,-0.3628 1.06731,-0.4375 1.06731,-0.16599 0,0.2715 0.71242,3.78556 1.58315,7.80901 0.87073,4.02346 1.80633,8.60732 2.07911,10.18636 0.27278,1.57904 1.46984,4.72904 2.66015,7 1.80702,3.44759 2.14707,5.69684 2.06049,13.62902 -0.0593,5.43477 -0.83075,12.22748 -1.80276,15.87384 -0.93449,3.50561 -1.45247,7.01648 -1.15106,7.80194 0.34506,0.89921 0.12357,1.16578 -0.59806,0.71979 -0.77444,-0.47864 -0.96869,-0.03 -0.59905,1.38348 0.33397,1.27711 0.006,2.29945 -0.84248,2.62498 -1.61295,0.61895 -1.6522,-0.58577 -0.27382,-8.40403 2.68577,-15.23382 2.73547,-14.18356 -0.84459,-17.85 -2.06518,-2.115 -3.2594,-4.32694 -3.2394,-6 l 0.0317,-2.65 2.07589,2.78317 c 1.64385,2.20393 2.36568,2.54266 3.46832,1.62756 1.58634,-1.31655 1.87188,-5.49638 0.4361,-6.38374 -0.52598,-0.32507 -0.6745,-1.32545 -0.33006,-2.22306 0.38588,-1.00557 0.223,-1.38279 -0.4243,-0.98273 -0.66701,0.41223 -1.46113,-2.11109 -2.17507,-6.91128 -0.61847,-4.15831 -1.57219,-8.39709 -2.11937,-9.4195 -0.5472,-1.02242 -0.99489,-2.66506 -0.99489,-3.65033 0,-0.98527 -1.9125,-3.54328 -4.25,-5.68447 -2.3375,-2.14119 -3.6875,-3.58809 -3,-3.21533 2.4191,1.31163 1.10366,-0.96854 -1.95668,-3.39169 -1.70281,-1.34827 -3.88621,-2.39188 -4.85199,-2.31913 -1.11234,0.0838 -2.20675,-1.03363 -2.98584,-3.0486 -0.67643,-1.74948 -2.40564,-4.24276 -3.84269,-5.54062 -1.43704,-1.29786 -1.98077,-2.01583 -1.20829,-1.59549 0.9082,0.4942 1.16268,0.37298 0.72016,-0.34303 -0.37639,-0.60902 -2.47092,-2.11141 -4.65451,-3.33865 -2.18359,-1.22725 -3.97016,-2.53015 -3.97016,-2.89535 0,-0.82126 -5.06603,-2.91149 -15.46199,-6.37958 -4.37909,-1.46087 -8.24093,-3.10747 -8.58187,-3.65911 -0.70463,-1.14012 -13.93601,-0.83565 -13.94822,0.32096 -0.004,0.4125 -1.54859,0.75 -3.43163,0.75 -1.88304,0 -5.75386,0.53786 -8.60181,1.19525 l -5.17811,1.19525 0.3845,6.80475 c 0.21708,3.84168 -0.0238,6.80475 -0.55317,6.80475 -0.51572,0 -0.16563,0.8531 0.77797,1.89577 0.9705,1.07238 2.13527,4.87273 2.68179,8.75 1.42531,10.11167 4.33224,18.95054 7.31726,22.24895 1.72833,1.90978 1.69096,2.31746 -1.05371,11.49535 -1.65608,5.53774 -3.21649,9.14445 -3.73288,8.62806 -0.51638,-0.51638 0.25256,-4.16166 1.83948,-8.72033 l 2.72677,-7.83305 -3.49568,-7.48237 c -3.32644,-7.12012 -4.96031,-11.2742 -5.30287,-13.48238 -0.0853,-0.55 -0.26035,-1.45 -0.38895,-2 -0.1286,-0.55 -0.34343,-2.35 -0.4774,-4 -0.13397,-1.65 -0.30566,-3.54838 -0.38153,-4.21861 -0.0759,-0.67024 -0.74825,-0.98442 -1.49418,-0.69819 -1.00066,0.38399 -1.52957,-0.95444 -2.01741,-5.10516 -0.36364,-3.09408 -1.30566,-7.16808 -2.09338,-9.05334 -1.32203,-3.16406 -1.6223,-3.34113 -3.90345,-2.30177 -1.61945,0.73788 -2.26761,1.65665 -1.88045,2.66557 0.38767,1.01024 0.18854,1.29098 -0.57914,0.81653 -0.64347,-0.39769 -1.16994,-0.24651 -1.16994,0.33595 0,0.58246 -0.6375,1.05902 -1.41667,1.05902 -0.77916,0 -1.56666,0.43263 -1.75,0.9614 -0.18333,0.52877 -4.38333,1.17858 -9.33333,1.44403 -9.21878,0.49435 -26.63904,2.30572 -30.71917,3.1942 -1.25446,0.27316 -3.11424,0.683 -4.13286,0.91075 -1.01861,0.22774 -2.49199,0.9452 -3.27416,1.59435 -0.78218,0.64915 -1.70736,0.89505 -2.05597,0.54645 -0.3486,-0.34861 -1.19036,-0.17194 -1.87057,0.39258 -0.68021,0.56453 -1.62162,0.93209 -2.09201,0.81682 -0.85965,-0.21068 -6.42094,2.1474 -7.35602,3.11907 -1.2578,1.30703 -7.34789,4.02035 -9.02374,4.02035 -1.02434,0 -2.65989,1.35 -3.63457,3 -1.91678,3.24485 -3.93379,4.09904 -2.95162,1.25 0.33181,-0.9625 -1.38063,0.3875 -3.80542,3 -2.42479,2.6125 -5.29302,4.75 -6.37385,4.75 -1.08083,0 -2.53028,0.68094 -3.221,1.5132 -0.69071,0.83226 -1.75831,1.42843 -2.37244,1.32483 -0.61413,-0.10361 -3.13985,0.38761 -5.6127,1.09161 -2.47286,0.70399 -5.28473,1.43186 -6.2486,1.61748 -2.62591,0.50571 -6.10106,3.20099 -6.35461,4.92857 -0.12305,0.83837 0.18646,1.52431 0.68779,1.52431 0.50134,0 0.91152,-0.43844 0.91152,-0.97432 0,-1.45025 5.81636,-4.18564 8.32079,-3.9132 3.20821,0.349 16.6194,-1.2067 17.09952,-1.98354 0.22682,-0.367 3.48754,-0.79163 7.24605,-0.94363 3.7585,-0.15199 7.67732,-0.52901 8.70849,-0.83784 1.03116,-0.30882 2.31111,0.0492 2.84433,0.79552 0.73859,1.03382 0.83541,0.94023 0.40654,-0.39299 -0.35238,-1.0954 -0.0448,-1.75 0.82233,-1.75 0.76191,0 1.53528,-0.35329 1.71862,-0.78509 0.49268,-1.16041 16.47921,-8.04465 22.83333,-9.83267 6.39212,-1.79871 15.80405,-2.50832 16.58163,-1.25016 0.29502,0.47736 2.72304,0.86792 5.3956,0.86792 5.89348,0 8.02277,0.72509 8.02277,2.73199 0,1.15234 -0.72052,1.37391 -2.99107,0.9198 -1.64509,-0.32902 -2.9418,-0.27277 -2.88158,0.125 0.0602,0.39776 0.0277,4.32321 -0.0723,8.72321 -0.21836,9.60852 -1.66049,7.42791 -1.9687,-2.97684 -0.11367,-3.83726 -0.42512,-7.19528 -0.6921,-7.46226 -0.26698,-0.26698 -3.7274,-0.43213 -7.68983,-0.36699 -7.89158,0.12974 -26.64066,5.03345 -29.64677,7.75393 -0.94333,0.85369 -2.17245,1.55216 -2.7314,1.55216 -0.55895,0 -1.83441,0.90403 -2.83435,2.00895 -1.76802,1.95364 -1.7368,2.12574 1.13374,6.25 2.82231,4.05498 2.92819,4.59204 2.41309,12.24105 -0.3821,5.67416 -0.75281,7.27317 -1.27508,5.5 -0.40499,-1.375 -0.74249,-3.98906 -0.75,-5.80902 -0.008,-1.81996 -0.37498,-3.0857 -0.81661,-2.81275 -0.44163,0.27294 -0.71274,-0.80701 -0.60246,-2.39989 0.14093,-2.03574 -0.69863,-3.837 -2.82602,-6.0631 l -3.02651,-3.16696 -13.62103,0.68445 c -17.66137,0.88747 -18.88985,1.00277 -19.73977,1.85269 -0.39302,0.39302 -1.401,0.71458 -2.23995,0.71458 -2.73771,0 -17.51371,10.24884 -22.98227,15.94082 -2.93754,3.05755 -6.53754,7.75919 -8,10.44808 -1.462468,2.6889 -3.118678,5.6139 -3.680468,6.5 -0.56178,0.88611 -3.21033,5.36115 -5.88564,9.94454 -2.67532,4.58339 -5.47817,8.56903 -6.22857,8.85699 -0.75039,0.28795 -1.36435,1.32856 -1.36435,2.31247 0,1.77171 2.63296,1.92583 10.5,0.61461 11.437598,-1.90634 32.604128,-2.93914 37.497238,-1.82964 1.98667,0.45047 3.52202,1.42342 3.55461,2.25256 0.0316,0.80276 0.59529,2.72636 1.25276,4.27467 1.40332,3.30476 1.60942,12.6849 0.27872,12.6849 -1.34876,0 -1.87431,-2.09998 -1.37644,-5.5 0.56091,-3.83053 -2.06602,-10.08665 -4.86417,-11.58417 -1.49542,-0.80033 -5.40991,-0.94293 -12.71505,-0.4632 -5.80496,0.38121 -10.81069,0.85147 -11.12386,1.04501 -0.31316,0.19355 -2.72682,0.60564 -5.36368,0.91575 -2.636858,0.31012 -5.178508,0.80131 -5.648108,1.09154 -0.4696,0.29023 -1.13648,0.0703 -1.48194,-0.48862 -0.34546,-0.55897 -1.16406,-1.00942 -1.8191,-1.001 -0.72662,0.009 -0.61706,0.37827 0.28099,0.94621 1.23136,0.77872 1.14962,1.03702 -0.5,1.58012 -1.08458,0.35708 -4.15316,1.53759 -6.81907,2.62336 -2.6659,1.08578 -5.08545,1.73578 -5.37678,1.44445 -0.75639,-0.75639 -6.27612,2.24812 -6.27612,3.41623 0,0.53588 -0.92656,0.97432 -2.05902,0.97432 -1.13246,0 -1.81004,0.40285 -1.50574,0.89522 0.3043,0.49236 -0.0693,1.1341 -0.83013,1.42607 -1.13528,0.43565 -4.74212,6.16953 -10.4916,16.67871 -3.39857,6.21208 -8.13681,19.34159 -8.04322,22.28751 0.0675,2.12496 0.10428,2.13337 0.92971,0.21249 0.8115,-1.88846 0.86335,-1.87106 0.92971,0.3121 0.14453,4.75423 3.2727,12.0905 5.88529,13.80234 1.43977,0.94337 5.55721,2.45705 9.14988,3.36373 4.63455,1.16962 6.63113,2.16259 6.87293,3.41815 0.27808,1.44395 -0.002,1.58614 -1.52212,0.77263 -1.02461,-0.54835 -5.47089,-1.28382 -9.88064,-1.63437 l -8.01772,-0.63736 -2.97126,3.80139 c -4.8383,6.19007 -5.68857,8.56037 -5.17363,14.42254 0.66196,7.53585 2.64059,13.70097 5.22739,16.28777 1.21259,1.21259 2.38369,2.62915 2.60244,3.1479 0.21875,0.51875 1.86492,2.15558 3.65816,3.6374 2.86873,2.37053 3.96392,2.65392 9.11609,2.35886 10.47941,-0.60014 15.94333,-2.5802 21.93848,-7.95022 1.84369,-1.65145 8.185,-3.27074 8.185,-2.09009 0,0.15331 -2.30217,1.75604 -5.11594,3.56163 -4.59051,2.94572 -4.93854,3.41259 -3.38874,4.54584 0.94996,0.69462 3.58963,2.97678 5.86594,5.07146 6.438968,5.9252 10.725508,8.82776 15.967748,10.81228 3.81403,1.44385 4.49055,2.0175 3.21868,2.72927 -2.48503,1.39069 -7.91207,-0.86482 -13.986188,-5.81276 -2.98463,-2.43127 -5.80675,-4.42049 -6.27137,-4.42049 -1.04084,0 -6.69489,-6.33902 -6.16927,-6.91667 0.20853,-0.22916 -0.246,-0.62504 -1.01006,-0.87973 -0.85576,-0.28525 -1.11611,-0.0212 -0.67803,0.68762 1.40836,2.27877 -5.56346,3.90079 -16.71671,3.88921 -10.60921,-0.011 -10.84011,-0.0609 -14.25,-3.07981 -1.90633,-1.68774 -3.46606,-3.43067 -3.46606,-3.87319 0,-0.85871 -2.4386,-4.02865 -5.15431,-6.70009 -0.92422,-0.90914 -1.97137,-4.19143 -2.37271,-7.43724 -0.55724,-4.50659 -1.0457,-5.6843 -2.17748,-5.25 -0.80249,0.30794 -4.74424,0.5599 -8.75945,0.5599 l -7.30037,0 1.2304,3.57901 c 1.74514,5.07626 6.14774,9.06639 14.65586,13.28275 6.79629,3.36804 7.45496,3.97104 8.35336,7.64729 1.20802,4.94328 8.8568,12.96786 12.5247,13.14008 1.375,0.0645 3.83852,0.42203 5.47448,0.79439 3.75933,0.85564 18.52552,-3.23336 18.52552,-5.13003 0,-1.82243 1.65733,-1.64886 2.38595,0.24989 0.32996,0.85986 1.01114,1.30924 1.51373,0.99862 0.50259,-0.31062 0.67676,0.34169 0.38704,1.44958 -0.56375,2.15579 2.87412,7.98326 5.78041,9.79827 1.94346,1.21371 10.731868,1.65568 15.957488,0.80249 6.58924,-1.07582 19.45057,-8.55647 14.84782,-8.63608 -1.754,-0.0303 9.5127,-4.6823 13.41709,-5.53985 2.93988,-0.64571 2.94388,-0.65674 2.30006,-6.34728 -0.74809,-6.61229 -0.0813,-7.88441 2.51424,-4.79661 1.15049,1.36871 2.14824,1.82387 2.62585,1.19791 0.42368,-0.55527 2.43008,-1.88016 4.45868,-2.94421 l 3.68835,-1.93463 -3.18835,-2.19789 c -1.7536,-1.20885 -3.59539,-1.95192 -4.09287,-1.65129 -0.49748,0.30063 -0.60583,0.0633 -0.24079,-0.52731 0.38784,-0.62754 -0.72711,-1.53293 -2.6824,-2.17823 -1.84036,-0.60738 -4.29338,-1.98684 -5.45115,-3.06546 -3.82353,-3.56216 -9.82344,-5.31226 -16.01969,-4.67275 -4.35214,0.44918 -6.60917,0.15225 -9.68777,-1.2745 -2.20753,-1.02306 -6.98771,-2.60931 -10.62263,-3.525 -8.701618,-2.19207 -20.137888,-9.92773 -19.565318,-13.23427 0.21097,-1.21832 -0.11025,-2.37973 -0.71381,-2.58091 -0.60356,-0.20119 0.81184,-2.3135 3.14534,-4.69403 2.3335,-2.38052 4.24936,-3.91911 4.25747,-3.41909 0.008,0.50003 0.58533,-0.21586 1.28271,-1.59086 0.69739,-1.375 2.0858,-2.503 3.08537,-2.50667 3.24716,-0.0119 6.218158,-4.97703 6.016198,-10.05425 -0.0996,-2.50501 -0.45519,-4.82858 -0.79009,-5.16349 -0.33491,-0.33491 -0.60893,-1.38578 -0.60893,-2.33527 0,-0.94949 -0.667408,-1.98245 -1.483138,-2.29548 -0.81573,-0.31302 -1.26264,-1.14867 -0.99314,-1.85699 0.2695,-0.70832 -2.66309,-4.63089 -6.51686,-8.71682 -6.04124,-6.40518 -8.40209,-10.07103 -6.48586,-10.07103 0.28655,0 3.62572,3.2625 7.42037,7.25 9.634058,10.12367 10.058628,10.62131 10.058628,11.78984 0,0.57191 0.93314,2.86895 2.07366,5.10454 1.14051,2.23558 1.59051,3.7661 1,3.40114 -0.6321,-0.39065 -1.07366,0.18326 -1.07366,1.39546 0,2.10911 1.43574,2.78104 2.44679,1.14511 0.31066,-0.50265 3.71222,-2.14874 7.55902,-3.65799 3.8468,-1.50924 6.99419,-3.07049 6.99419,-3.46945 0,-1.47276 4.27437,-1.75618 13.8896,-0.92098 8.56907,0.74432 10.76773,1.34196 16.73766,4.54962 3.78001,2.03102 7.00866,4.03751 7.17479,4.45888 0.16613,0.42137 1.63886,2.16498 3.27274,3.87468 l 2.97069,3.10854 -0.62715,-2.7647 c -0.34493,-1.52058 -1.21222,-5.23969 -1.92731,-8.26469 -3.53372,-14.94854 -3.10029,-16.99278 5.78754,-27.29655 l 4.99999,-5.79655 -0.63366,-6.81788 c -0.87622,-9.42777 -2.64932,-13.1612 -7.56188,-15.92221 -2.24565,-1.26213 -4.08301,-2.79099 -4.08301,-3.39746 0,-0.60648 -0.27199,-0.83069 -0.60443,-0.49826 -0.33243,0.33244 -2.97567,-1.73006 -5.87386,-4.58333 -2.89819,-2.85327 -6.6837,-6.50776 -8.41224,-8.12109 -2.06973,-1.93178 -2.80547,-3.27067 -2.15482,-3.92132 0.65065,-0.65065 1.67787,-0.11095 3.00849,1.58067 1.11128,1.41276 4.38669,4.14228 7.27868,6.06561 2.892,1.92333 6.46757,4.85909 7.94572,6.52391 7.4391,8.37857 18.6361,11.23227 34.22758,8.72336 5.35634,-0.86192 10.99001,-2.21416 12.51927,-3.00497 1.52926,-0.79081 7.79463,-6.32899 13.92304,-12.30706 l 11.14257,-10.86922 0.006,-13.42883 c 0.006,-13.01471 0.0569,-13.33631 1.65161,-10.42882 1.21467,2.21459 1.67121,5.79575 1.74384,13.6788 l 0.0984,10.67881 -8,7.53943 c -4.8646,4.58454 -7.34858,7.55188 -6.3379,7.5712 1.15148,0.022 1.87001,1.26232 2.33883,4.03727 0.40473,2.3956 1.53431,4.60619 2.81041,5.5 2.40465,1.68429 5.12687,2.01254 4.19574,0.50594 -0.35064,-0.56735 0.0518,-0.73421 0.94456,-0.39163 0.85554,0.3283 5.04141,-0.55318 9.30194,-1.95883 4.26053,-1.40566 10.44642,-3.36692 13.74642,-4.35836 3.3,-0.99145 9.55638,-4.16513 13.90307,-7.05263 4.34669,-2.8875 8.2,-5.25 8.56291,-5.25 1.61665,0 5.83602,-5.99822 7.95636,-11.3107 l 2.31919,-5.8107 -2.16622,-6.59876 c -2.4797,-7.55416 -6.35102,-13.64416 -11.82516,-18.60251 -1.2375,-1.1209 -2.25,-2.70685 -2.25,-3.52433 0,-0.81748 -0.2961,-1.19024 -0.65799,-0.82834 -1.2694,1.2694 -3.05742,-1.36258 -2.58929,-3.81145 l 0.47296,-2.47409 2.13716,2.90858 c 1.17544,1.59972 4.91854,6.18782 8.318,10.19578 4.3351,5.11106 6.68782,8.93997 7.87855,12.82186 0.93374,3.04406 2.08986,5.96216 2.56916,6.48466 0.4793,0.5225 0.87145,2.435 0.87145,4.25 0,1.815 0.7875,4.10117 1.75,5.08038 0.9625,0.97921 2.35199,2.93592 3.08776,4.34824 2.28242,4.38115 14.588,17.87138 16.302,17.87138 0.5517,0 1.63792,0.63482 2.41381,1.41071 0.77589,0.7759 1.85627,1.5634 2.40084,1.75 1.05785,0.3625 -0.85955,6.82138 -3.59579,12.11269 -1.57633,3.04829 -1.85654,4.08302 -2.97029,10.96858 -0.3329,2.05809 -1.0013,3.49722 -1.48535,3.19806 -0.48404,-0.29915 -0.62767,0.11384 -0.31917,0.91777 0.72944,1.90088 -1.89756,6.92492 -5.24292,10.02692 l -2.64085,2.44873 3.37414,4.33327 c 1.85578,2.3833 3.73851,4.59425 4.18385,4.91322 0.44535,0.31898 0.86071,3.57253 0.92304,7.23011 0.10605,6.22367 -0.15265,7.04627 -4.03387,12.82634 -2.28096,3.39689 -4.1472,6.99172 -4.1472,7.9885 0,1.07358 -0.52842,1.60956 -1.29635,1.31487 -1.29139,-0.49555 -8.46657,10.97248 -7.95365,12.71225 0.1375,0.46639 -0.18886,0.84798 -0.72525,0.84798 -0.60851,0 -0.64162,0.8775 -0.0881,2.33347 0.48795,1.28341 0.52551,2.91868 0.0835,3.63393 -0.44205,0.71524 -0.40242,2.69971 0.0881,4.40992 1.14872,4.00534 1.15103,11.34443 0.004,12.05345 -0.88641,0.54784 -2.61941,-7.53825 -2.24778,-10.48806 0.1079,-0.85651 -0.84115,-3.09659 -2.10901,-4.97797 -2.89919,-4.30211 -8.6731,-6.52098 -18.95994,-7.28617 -4.23759,-0.31522 -8.73759,-1.22768 -10,-2.02768 -4.32886,-2.74328 -12.72746,-3.66804 -15.29528,-1.68414 -0.55,0.42493 -2.62025,1.29396 -4.60057,1.93116 -3.67833,1.18351 -12.89967,9.17392 -12.89967,11.17754 0,0.61 -0.90743,2.30507 -2.01651,3.76682 -1.10908,1.46175 -2.79658,3.70949 -3.75,4.99497 -2.64481,3.56597 -6.49015,7.23943 -7.02171,6.70787 -0.26111,-0.26111 -1.32296,-0.0208 -2.35967,0.53404 -1.6894,0.90414 -1.84209,1.98024 -1.47205,10.3745 0.39183,8.88868 0.2908,9.47186 -1.9836,11.44943 -2.10748,1.83243 -2.9085,3.854 -2.51488,6.34692 0.0651,0.4125 -0.68491,0.75 -1.66677,0.75 -2.23713,0 -20.50533,9.04796 -23.20977,11.49544 -1.10277,0.99799 -2.00504,2.36469 -2.00504,3.0371 0,0.67242 -0.6422,1.75555 -1.42711,2.40696 -1.82246,1.51251 -4.64344,9.71308 -3.9568,11.50242 0.58015,1.51186 3.04751,2.43704 8.56566,3.21183 2.02497,0.28432 5.62497,1.12344 8,1.8647 5.75138,1.79505 9.3182,1.7915 12.80721,-0.0127 z m 148.41281,-99.50571 c 2.08624,-11.50973 2.00374,-12.73367 -1.05802,-15.69499 -1.59508,-1.54276 -4.8894,-5.81379 -7.32072,-9.49118 -2.43131,-3.67739 -4.89362,-6.41775 -5.4718,-6.08967 -0.57818,0.32807 -0.71275,0.22336 -0.29905,-0.23268 0.4137,-0.45605 0.16321,-1.5407 -0.55664,-2.41033 -1.78205,-2.15285 -3.82381,-7.08521 -2.9241,-7.06387 0.40071,0.01 1.74106,1.46567 2.97856,3.23592 1.62489,2.32441 2.25,2.72255 2.25,1.43306 0,-1.98534 -2.52963,-7.3704 -4.55099,-9.68809 -1.84893,-2.11999 -3.76158,-7.30939 -2.37911,-6.45497 0.58616,0.36227 0.92462,0.0512 0.75377,-0.69285 -0.17055,-0.74269 0.1184,-1.57535 0.64212,-1.85035 0.52372,-0.275 1.25316,0.97144 1.62098,2.76986 0.36781,1.79842 1.84876,4.97261 3.29099,7.05375 1.44223,2.08114 2.62224,4.49225 2.62224,5.35802 0,3.70226 4.85363,13.60359 9.06018,18.4826 4.35414,5.05021 5.38899,9.46699 3.91158,16.69475 -1.34421,6.57615 -3.6879,10.8085 -2.56999,4.64102 z m 16.86906,-81.60417 c 0.33229,-0.33229 1.19479,-0.36781 1.91667,-0.0789 0.79773,0.31922 0.56078,0.55618 -0.60417,0.60416 -1.05416,0.0434 -1.64479,-0.19293 -1.3125,-0.52522 z M 171.70968,291.64934 c 0.6335,-2.81322 2.12994,-7.19582 3.32543,-9.73911 2.72446,-5.79603 2.73552,-5.70833 -0.63539,-5.03415 -4.14352,0.8287 -21.50029,-4.63584 -19.87786,-6.25828 0.19882,-0.19881 -1.60607,-2.49718 -4.01086,-5.1075 -2.40479,-2.61031 -4.60599,-5.66141 -4.89156,-6.78022 -0.50194,-1.96654 -0.73986,-1.92705 -7.15312,1.18728 -3.64864,1.77182 -7.08585,3.13721 -7.63824,3.0342 -1.24833,-0.23278 -2.78157,9.09046 -1.94257,11.81223 1.09378,3.54826 8.59608,9.52318 17.82321,14.19461 4.95,2.50604 9.31187,5.04766 9.69305,5.64803 0.63448,0.99934 9.35555,2.559 12.73152,2.27689 0.86191,-0.072 1.87949,-2.13925 2.57639,-5.23398 z m 13.37729,-19.69161 c 1.99196,-0.82205 5.75925,-2.25159 8.37175,-3.17675 2.64113,-0.9353 4.75,-2.31136 4.75,-3.09941 0,-0.77951 0.57598,-1.41729 1.27995,-1.41729 0.70398,0 2.71194,-1.51817 4.46214,-3.37372 2.91243,-3.08774 3.13276,-3.77721 2.59923,-8.13368 -0.44125,-3.60288 -0.28624,-4.57659 0.63763,-4.00561 0.95549,0.59052 0.9622,0.27157 0.0309,-1.46855 -0.65431,-1.2226 -0.96646,-3.07645 -0.69365,-4.11968 0.27281,-1.04322 0.0518,-2.17131 -0.49113,-2.50686 -0.54293,-0.33555 -0.72947,-1.63673 -0.41454,-2.89151 0.42707,-1.70159 -0.0606,-2.69633 -1.91898,-3.91396 -1.37034,-0.89789 -2.49155,-2.15566 -2.49155,-2.79503 0,-0.63937 -0.94715,-2.17069 -2.10477,-3.40292 -2.11803,-2.25454 -1.87331,-4.38848 0.50327,-4.38848 0.70426,0 1.79432,1.12779 2.42237,2.50619 2.17391,4.77122 7.31733,9.49381 10.33981,9.49381 2.15571,0 2.83932,-0.47306 2.83932,-1.96482 0,-1.08065 0.80193,-2.39399 1.78207,-2.91855 1.68861,-0.90372 6.21793,-8.75754 6.21793,-10.78188 0,-1.29693 4.98249,-7.95857 5.07029,-6.77903 0.16342,2.19561 1.7952,-3.33556 1.85942,-6.30284 0.0512,-2.36682 -0.87857,-4.29739 -3.42971,-7.1212 -1.925,-2.13074 -3.5,-4.34204 -3.5,-4.91399 0,-1.24744 -5.72865,-6.21769 -7.16643,-6.21769 -1.39354,0 -4.59108,-3.87696 -6.20394,-7.52217 -0.73545,-1.66219 -1.42163,-6.36808 -1.52483,-10.45752 -0.1713,-6.78785 -0.53373,-7.98334 -4.1617,-13.72783 -3.69087,-5.84409 -4.4554,-8.55814 -1.27958,-4.54248 5.97613,7.55651 7.69325,10.86677 7.87512,15.18169 0.10591,2.51257 0.25304,6.01181 0.32696,7.77609 0.10484,2.50223 1.7963,5.03168 7.69011,11.5 4.15565,4.56072 8.14716,8.96722 8.87004,9.79222 2.44653,2.79216 4.57425,7.88572 4.57425,10.95034 0,3.7983 1.73142,3.94375 8.56285,0.71933 2.71543,-1.28168 7.63715,-3.14353 10.93715,-4.13744 5.00291,-1.50681 6.95728,-2.82292 11.76043,-7.91967 7.55771,-8.01971 8.87962,-12.08628 5.91349,-18.19148 -3.59349,-7.39648 -1.96465,-7.31911 2.18405,0.10373 l 2.51842,4.50593 -2.12315,5.23463 c -3.95104,9.7413 -8.7784,15.13703 -14.59487,16.31325 -2.55631,0.51694 -2.40335,1.35201 0.4624,2.52447 1.58358,0.64789 4.27158,1.77756 5.97334,2.51038 1.70176,0.73283 5.75176,1.63208 9,1.99833 3.24824,0.36626 7.12104,1.27843 8.60623,2.02706 4.39233,2.21401 6.33693,1.65876 9.16677,-2.61742 1.44809,-2.18821 2.63289,-4.28323 2.63289,-4.65561 0,-0.37238 1.0583,-2.06952 2.35179,-3.77144 1.29348,-1.70191 3.08034,-4.50914 3.9708,-6.23827 0.89046,-1.72913 2.93973,-4.4646 4.55394,-6.0788 2.93734,-2.93734 5.1107,-8.5798 5.11416,-13.27732 0.003,-3.88808 -2.78403,-7.51735 -16.33246,-21.26917 -6.91917,-7.02304 -12.93534,-13.3502 -13.36927,-14.06035 -0.43393,-0.71016 -1.90159,-2.05153 -3.26147,-2.98084 -1.86845,-1.27684 -2.05982,-1.68964 -0.78333,-1.68964 0.92905,0 3.21045,1.52128 5.06978,3.38061 1.85934,1.85934 4.91184,4.13883 6.78334,5.06554 1.8715,0.92672 5.42772,4.11807 7.90272,7.09191 4.61813,5.54891 6.62913,6.59199 7.63837,3.96194 0.31659,-0.825 1.12518,-1.5 1.79687,-1.5 1.17228,0 3.19139,-6.64031 4.25696,-14 0.27872,-1.925 1.09218,-4.175 1.80769,-5 2.21602,-2.5551 4.70094,-9.43306 3.54701,-9.8177 -0.5758,-0.19193 -1.0469,-1.04157 -1.0469,-1.88808 0,-1.25471 0.27717,-1.30908 1.5,-0.29422 1.03636,0.8601 1.5,0.89795 1.5,0.12244 0,-0.61734 -0.5625,-1.17435 -1.25,-1.23779 -5.43624,-0.50166 -9.22658,-2.94079 -14,-9.00921 -2.6125,-3.32125 -4.75,-6.67692 -4.75,-7.45704 0,-0.78012 -0.39873,-1.4184 -0.88606,-1.4184 -0.48733,0 -1.67164,-1.6555 -2.63181,-3.6789 l -1.74575,-3.67889 -1.77294,3.4285 c -0.97512,1.88567 -1.56425,3.76617 -1.30918,4.17889 0.25508,0.41272 -0.23778,0.7504 -1.09524,0.7504 -0.85746,0 -1.55902,0.64224 -1.55902,1.4272 0,1.97907 -6.50614,7.17835 -12.5,9.98919 -18.70415,8.77136 -28.94375,12.67918 -36.16458,13.80177 -5.86285,0.91148 -7.07372,1.39224 -6.18964,2.4575 0.60451,0.72839 1.50486,1.32434 2.00077,1.32434 0.49592,0 3.19131,1.575 5.98977,3.5 2.79846,1.925 5.67261,3.5 6.387,3.5 0.71439,0 2.44817,1.36584 3.85284,3.03519 2.86268,3.4021 7.70176,12.55356 7.00596,13.24936 -0.24833,0.24832 -0.0331,2.31353 0.47821,4.58934 0.54516,2.42633 0.55951,4.36664 0.0347,4.69099 -0.49226,0.30424 -0.92945,0.1891 -0.97153,-0.25586 -0.13021,-1.37686 -0.64777,-3.6463 -1.79143,-7.85532 -0.84379,-3.10541 -2.66655,-5.40081 -7.83874,-9.87134 -3.70661,-3.20376 -8.77645,-6.77395 -11.26631,-7.93374 -5.84511,-2.7227 -5.60216,-2.48863 -4.06364,-3.91529 1.06797,-0.99032 1.17217,-0.95659 0.52883,0.17118 -0.54125,0.94879 -0.42132,1.16972 0.3696,0.6809 1.45205,-0.89742 0.52441,-2.58541 -1.42083,-2.58541 -0.79254,0 -1.44098,-0.45 -1.44098,-1 0,-0.55 -0.50806,-0.8875 -1.12901,-0.75 -0.62096,0.1375 -1.22027,-0.75593 -1.33181,-1.98541 -0.11153,-1.22947 -0.92216,-3.03029 -1.80138,-4.00183 -0.87923,-0.97153 -2.06878,-3.0031 -2.64345,-4.51459 -0.98414,-2.5885 -4.09435,-3.91647 -4.09435,-1.74817 0,0.55 -0.51704,1 -1.14898,1 -0.63194,0 -2.6363,1.53144 -4.45413,3.40321 -2.20349,2.26886 -5.57033,4.14825 -10.10102,5.63845 -7.60668,2.50194 -13.80944,5.69648 -18.91523,9.7417 -3.42586,2.71424 -11.37666,12.82659 -11.57091,14.71664 -0.0565,0.55 -1.39416,1.78533 -2.97251,2.74518 -2.2256,1.35348 -2.82004,2.39727 -2.64835,4.65039 0.12175,1.59786 -0.29073,3.52223 -0.91662,4.27638 -1.15839,1.39578 0.6833,9.38872 7.33365,31.82805 0.65539,2.21139 0.55527,2.3478 -0.86729,1.18167 -1.45393,-1.19187 -1.55207,-0.77435 -1.02295,4.3523 0.53582,5.19156 0.42471,5.63971 -1.3152,5.30464 -1.04525,-0.2013 -1.8825,-1.03484 -1.86054,-1.85231 0.101,-3.76055 -4.21672,-12.90173 -8.19244,-17.34445 -2.39111,-2.67199 -4.34748,-5.19114 -4.34748,-5.59813 0,-0.40698 -1.77349,-1.53971 -3.9411,-2.51716 -2.1676,-0.97745 -4.14864,-2.31803 -4.4023,-2.97907 -0.26866,-0.7001 -2.63777,-1.25146 -5.67456,-1.32063 -2.86735,-0.0653 -6.51131,-0.40383 -8.0977,-0.75226 -1.78902,-0.39294 -2.88434,-0.22359 -2.88434,0.44594 0,0.59371 -1.39395,1.07946 -3.09767,1.07946 -1.70372,0 -6.89474,1.85506 -11.53559,4.12235 -9.52401,4.65298 -19.591358,13.71173 -23.084318,20.77162 -1.2157,2.45714 -2.29874,3.66655 -2.60318,2.9069 -0.3358,-0.83788 -0.54944,-0.67804 -0.60029,0.44913 -0.0434,0.9625 0.39761,1.75 0.98007,1.75 0.58246,0 0.7809,0.45 0.44098,1 -0.33992,0.55 0.0578,1 0.88382,1 0.82602,0 2.99008,0.86671 4.80902,1.92602 1.81894,1.0593 6.232158,2.8926 9.807158,4.07398 3.575,1.18138 8.02753,3.03787 9.89451,4.12552 1.86698,1.08765 4.00448,1.74348 4.75,1.4574 0.74552,-0.28608 1.35549,-0.14923 1.35549,0.30413 0,0.45335 3.47362,1.08698 7.71915,1.40807 4.53173,0.34274 8.1463,1.12495 8.75361,1.89434 0.56896,0.7208 1.70359,1.45912 2.52139,1.64072 0.81781,0.1816 1.72534,0.71594 2.01674,1.18744 0.2914,0.47149 1.64566,1.3402 3.00946,1.93046 4.34138,1.87897 10.38428,5.76582 10.77186,6.92856 0.20595,0.61785 1.28752,1.12336 2.40348,1.12336 2.24447,0 21.80431,8.92139 21.80431,9.94511 0,1.3669 -6.5625,11.43827 -7.68848,11.79938 -1.9128,0.61346 -0.88703,-4.49224 1.49805,-7.45638 2.60514,-3.23764 1.64724,-4.79223 -3.55412,-5.76801 -2.02031,-0.37901 -5.62025,-1.77609 -7.99986,-3.10461 -2.3796,-1.32852 -5.09809,-2.4083 -6.04107,-2.39952 -2.00808,0.0187 -7.39729,4.55892 -9.01083,7.59131 -2.04915,3.85102 1.45909,11.97983 7.07769,16.39941 1.50572,1.1844 2.51233,2.51808 2.2369,2.96374 -0.27543,0.44565 1.18278,1.12488 3.24047,1.50941 2.05769,0.38452 4.19125,1.06905 4.74125,1.52116 2.46255,2.02429 15.19339,1.83215 20.37825,-0.30755 z m 8.09855,-51.21738 c -4.43595,-4.57675 -3.29138,-5.45203 1.37475,-1.05131 2.01238,1.89792 3.27783,3.68626 2.81211,3.97409 -0.46571,0.28783 -2.3498,-1.02742 -4.18686,-2.92278 z M 37.326622,219.16024 c 0.88984,-0.45371 1.87002,-2.07841 2.17817,-3.61044 0.30816,-1.53204 2.14295,-4.81411 4.07732,-7.29349 2.55063,-3.26928 3.58527,-5.66459 3.7654,-8.71729 0.13813,-2.34112 0.82819,-4.43183 1.55479,-4.71065 0.71853,-0.27573 1.27479,-1.30294 1.23614,-2.28271 -0.0613,-1.5527 -0.1755,-1.52464 -0.88987,0.21862 -0.76057,1.856 -0.90003,1.79595 -1.93687,-0.83392 -0.61451,-1.55865 -0.90348,-3.17986 -0.64217,-3.60267 0.26132,-0.42282 -0.15069,-1.62256 -0.91558,-2.66609 -1.63256,-2.22729 -1.17046,-5.94781 1.57177,-12.65497 1.50297,-3.67606 1.69898,-5.21767 0.86223,-6.78117 -1.06893,-1.99731 -1.11789,-1.99891 -3.78109,-0.12354 -1.48398,1.04498 -3.6446,2.19337 -4.80139,2.55197 -1.15678,0.35861 -4.27368,2.19513 -6.92643,4.08117 -4.70222,3.34316 -8.01069,3.92673 -4.9586,0.87464 1.58272,-1.58272 1.71438,-1.40341 -4.42839,-6.03149 -0.22916,-0.17266 -0.17338,-0.55722 0.12397,-0.85457 0.29735,-0.29734 2.21756,0.44878 4.26712,1.65805 l 3.72649,2.19868 5.38955,-2.72898 c 2.96426,-1.50094 5.73155,-3.28599 6.14955,-3.96677 0.41799,-0.68078 2.16186,-1.80334 3.87525,-2.49457 3.05836,-1.23383 7.54568,-6.90676 8.94116,-11.30354 0.90134,-2.83987 2.97526,-4.93448 3.98486,-4.02461 0.42865,0.38631 0.46141,0.14918 0.0728,-0.52695 -0.94991,-1.65271 1.19866,-5.50444 2.5906,-4.64417 0.62237,0.38465 0.82417,0.22919 0.46238,-0.3562 -0.75611,-1.22341 6.75375,-8.40231 11.18894,-10.69583 1.69659,-0.87735 3.61662,-2.60301 4.26673,-3.83482 0.65011,-1.23181 2.87472,-4.80066 4.94357,-7.93078 2.06886,-3.13012 4.06423,-6.64476 4.43416,-7.8103 1.3074,-4.11928 10.78043,-18.55856 15.110948,-23.03292 2.41373,-2.49389 4.38946,-5.41889 4.39052,-6.5 0.001,-1.25875 1.88927,-3.22433 5.25,-5.46565 2.88644,-1.925 5.39807,-3.8375 5.5814,-4.25 0.18334,-0.4125 0.97084,-0.75 1.75,-0.75 0.77917,0 1.41667,-0.37308 1.41667,-0.82906 0,-0.45599 2.32596,-1.91849 5.1688,-3.25 5.55444,-2.60156 5.57663,-2.60821 9.3312,-2.79594 1.44276,-0.0721 2.5,-0.72968 2.5,-1.55485 0,-0.78641 2.09565,-2.47391 4.65701,-3.75 2.56135,-1.27608 6.04885,-3.65209 7.75,-5.28003 3.28177,-3.14053 3.43819,-3.22062 6.66991,-3.41512 1.14231,-0.0688 3.34595,-1.39402 4.89697,-2.94504 3.96599,-3.96599 15.78,-9.03125 21.66952,-9.29081 2.67113,-0.11772 5.98159,-0.66246 7.35659,-1.21052 3.804,-1.51626 13.44726,-2.78394 24,-3.155 5.225,-0.18372 10.85,-0.90149 12.5,-1.59504 1.65,-0.69355 3.225,-1.31365 3.5,-1.378 0.275,-0.0643 2.40356,-1.33955 4.73013,-2.83379 2.32657,-1.49424 4.82407,-2.7168 5.55,-2.7168 0.72593,0 1.81317,-0.4933 2.41609,-1.09622 1.00727,-1.00727 11.0817,-3.145 20.80378,-4.41444 3.16815,-0.41367 3.58407,-0.3071 2,0.51245 -1.50739,0.77987 -0.76848,0.88022 3,0.4074 2.75,-0.34503 6.47653,-0.78536 8.28117,-0.9785 1.80464,-0.19315 3.68927,-0.60341 4.18807,-0.91168 0.4988,-0.30827 2.84728,-0.78441 5.21883,-1.05808 2.37156,-0.27367 6.11193,-0.76207 8.31193,-1.08534 7.79869,-1.14593 12.60204,-1.34971 12.08472,-0.51267 -0.28831,0.46649 0.58719,0.63571 1.94554,0.37605 1.50533,-0.28777 2.46974,-0.008 2.46974,0.71588 0,0.76606 0.54581,0.6422 1.53673,-0.34872 1.16784,-1.16785 3.0282,-1.42562 7.75,-1.07385 5.69221,0.42407 6.00796,0.34642 3.76504,-0.92597 -1.34653,-0.76387 -4.27153,-1.29897 -6.5,-1.18911 -2.22847,0.10986 -4.67751,-0.27166 -5.44231,-0.84781 -0.76479,-0.57615 -4.13979,-1.32816 -7.5,-1.67113 -3.3602,-0.3429796 -11.28446,-1.8298496 -17.60946,-3.3041596 -13.13736,-3.06222 -16.54559,-2.8367 -22.42016,1.4835 -4.50365,3.3120296 -5.59364,3.1185996 -3.18044,-0.5644 1.99492,-3.04464 1.87386,-3.10577 -7.8994,-3.98864 -16.95587,-1.53171 -18.68933,-1.10728 -25.48913,6.2409896 l -5.30645,5.73445 6.64779,0.29569 c 3.65629,0.16263 6.64779,0.68036 6.64779,1.1505 0,0.98703 -18.24783,1.93201 -19,0.98393 -0.275,-0.34663 -1.175,-0.88718 -2,-1.20123 -0.825,-0.31405 -0.0279,-0.60652 1.77144,-0.64994 2.47734,-0.0598 3.54793,-0.68579 4.41051,-2.57895 0.6265,-1.375 1.55722,-2.5 2.06827,-2.5 1.47963,0 4.68003,-4.3200596 4.71651,-6.3665796 0.0276,-1.54878 -0.43493,-1.7433 -2.71673,-1.14251 -1.5125,0.39823 -5.68528,0.83291 -9.27284,0.96595 -7.07561,0.26238 -17.0855,2.41768 -18.12393,3.90238 -0.64635,0.92413 6.49615,7.6870096 10.22762,9.6840296 1.08634,0.58139 1.71156,1.48361 1.38937,2.00492 -0.75288,1.21818 -12.07288,-6.43723 -13.52168,-9.14435 -0.93975,-1.7559396 -1.70541,-1.9589696 -5.27395,-1.3984796 -8.99165,1.4122496 -11.67459,2.4760196 -11.67459,4.6288896 0,1.13144 -0.74236,3.31388 -1.64969,4.84987 -1.6353,2.76834 -3.32507,3.34725 -12.85031,4.40244 -8.36649,0.92683 -11.1702,1.96377 -15,5.54767 -15.78548,14.77192 -19.5,18.61517 -19.5,20.17575 0,0.97459 -0.45,2.0501 -1,2.39002 -2.35561,1.45585 -0.73097,-4.37069 2.21536,-7.94511 3.13411,-3.8022 3.15306,-3.8827 0.75,-3.185 -1.35595,0.39368 -3.54061,0.94169 -4.8548,1.21779 -1.3142,0.2761 -3.86499,1.11853 -5.66844,1.87206 -1.80345,0.75353 -3.52983,1.11922 -3.83639,0.81265 -0.30657,-0.30656 -1.25415,0.0209 -2.10573,0.72761 -0.85158,0.70675 -1.79916,1.03417 -2.10573,0.72761 -0.92384,-0.92385 -7.7052,2.33063 -9.87077,4.73712 -1.11293,1.23674 -3.5985,3.10062 -5.523498,4.14195 -1.925,1.04132 -3.725,2.14 -4,2.4415 -0.275,0.3015 -1.96779,1.57341 -3.76176,2.82647 -1.79396,1.25305 -3.00491,2.69387 -2.69098,3.20182 0.31393,0.50794 -0.24758,0.92353 -1.2478,0.92353 -2.19552,0 -18.33412,16.23255 -20.71384,20.83442 -0.93059,1.79957 -2.56805,4.14801 -3.6388,5.21876 -2.17611,2.17611 -2.71256,5.5126 -0.69682,4.33394 0.6875,-0.402 0.51017,0.13394 -0.39406,1.19099 -0.90424,1.05704 -1.63549,3.21057 -1.625,4.78562 0.0105,1.57505 -0.45151,3.15456 -1.02666,3.51002 -0.57514,0.35545 -1.35439,1.87617 -1.73167,3.37936 -0.37728,1.50319 -1.08795,2.48462 -1.57928,2.18096 -0.49133,-0.30366 -0.89333,0.59945 -0.89333,2.00691 0,1.40746 0.40077,2.55902 0.89059,2.55902 1.28676,0 1.99187,7.37417 0.78085,8.16631 -0.58166,0.38047 0.77176,2.33584 3.15496,4.55813 2.29548,2.14051 4.1736,4.20317 4.1736,4.58369 0,1.56809 -2.22577,0.48269 -5.99712,-2.92449 -3.03613,-2.74297 -4.00658,-4.37318 -4.01819,-6.75 -0.008,-1.7235 -0.43123,-3.79119 -0.93957,-4.59487 -0.76224,-1.2051 -1.38717,-0.96174 -3.56514,1.38833 -1.64939,1.77972 -2.45251,3.56996 -2.13912,4.76834 0.31242,1.19469 0.0598,1.76267 -0.66955,1.50511 -0.64422,-0.22751 -1.10496,-1.82821 -1.02386,-3.55711 0.11595,-2.47195 -0.25788,-3.14344 -1.75,-3.14344 -2.94545,0 -2.23443,-1.82833 0.84916,-2.18358 1.99356,-0.22966 3.21419,-1.27604 4.45197,-3.81642 1.57417,-3.23075 1.7108,-3.30768 1.77616,-1 0.0647,2.28356 0.20861,2.19698 1.66256,-1 3.30138,-7.25918 4.22261,-9.62459 5.45242,-14 0.69565,-2.475 2.76345,-7.72646 4.5951,-11.6699 2.7639,-5.95052 4.43444,-8.04852 9.82273,-12.3361 3.57085,-2.84142 6.49245,-5.48044 6.49245,-5.8645 0,-0.38405 1.2375,-1.44787 2.75,-2.36404 1.5125,-0.91616 4.02257,-2.78318 5.57794,-4.14892 2.60557,-2.28792 6.05466,-4.59249 20.422058,-13.64536 5.47469,-3.44959 6.47459,-5.8145 4.23094,-10.0068 -0.78501,-1.46679 -1.53147,-1.71074 -3.25,-1.06215 -3.43218,1.29535 -8.87868,2.86177 -12.563298,3.61324 -3.28908,0.67079 -16.13735,7.76571 -19.90509,10.99175 -1.67665,1.4356 -1.80161,2.17869 -0.9211,5.47754 0.85381,3.19879 0.71075,4.27785 -0.88375,6.66593 -1.04636,1.56712 -1.80523,3.1783 -1.68639,3.58039 0.11884,0.40209 -1.01859,1.52356 -2.52762,2.49215 -1.50903,0.96859 -3.33994,2.2146 -4.06869,2.76892 -1.9982,1.51992 -25.50956,24.88288 -26.78973,26.62064 -2.26163,3.07004 -3.46133,5.95512 -2.8725,6.90788 0.3329,0.53863 0.17978,0.97933 -0.34025,0.97933 -0.52004,0 -1.1594,1.2375 -1.42081,2.75 -0.94805,5.48539 -3.02771,12.80866 -4.37449,15.40429 -0.75747,1.45986 -1.38795,5.05986 -1.40108,8 -0.0131,2.94014 -0.42377,7.06886 -0.91255,9.17493 -0.48879,2.10608 -0.70668,3.64721 -0.48421,3.42474 0.50939,-0.5094 10.30766,8.60485 9.82438,9.13854 -0.19549,0.21588 -1.05218,-0.18575 -1.90376,-0.8925 -0.85158,-0.70675 -1.78241,-1.05092 -2.06851,-0.76482 -0.2861,0.28609 -2.28266,-1.22478 -4.4368,-3.3575 -3.90255,-3.86375 -5.52832,-4.65794 -6.16136,-3.00986 -0.18333,0.47729 -1.34583,1.18262 -2.58333,1.56738 -3.38889,1.05368 -2.8166,-1.36397 1.26065,-5.32564 3.13003,-3.04132 3.48935,-3.94235 3.48935,-8.75 0,-3.2517 0.43537,-5.35956 1.10699,-5.35956 0.60884,0 0.84797,-0.675 0.53138,-1.5 -0.31658,-0.825 -0.13972,-1.5 0.39302,-1.5 0.53273,0 0.96861,-0.47656 0.96861,-1.05902 0,-0.58246 -0.5625,-0.7301 -1.25,-0.3281 -0.6875,0.402 -0.4625,-0.16938 0.5,-1.26973 0.9625,-1.10035 1.75,-2.72614 1.75,-3.61287 0,-0.88674 0.39627,-1.85715 0.8806,-2.15649 1.30917,-0.80911 1.99715,-5.53131 0.90426,-6.20675 -2.09866,-1.29705 3.01225,-11.15849 8.2308,-15.88121 3.63409,-3.28881 5.06092,-6.97174 4.23055,-10.91994 l -0.74621,-3.54808 -4.71114,4.24109 c -2.59112,2.33261 -6.34943,5.5911 -8.35179,7.2411 -2.00237,1.65 -4.504,4.6875 -5.55919,6.75 -1.05519,2.0625 -2.34132,3.75 -2.85806,3.75 -0.51675,0 -1.48285,1.81343 -2.14691,4.02985 -1.16925,3.9026 -1.10324,4.13729 2.09022,7.43211 l 3.2976,3.40226 -3.4774,1.45295 c -1.91258,0.79913 -5.00874,3.34885 -6.88037,5.66606 -1.87163,2.31721 -4.6404603,5.69084 -6.1529603,7.49696 -1.5125,1.80611 -2.75,3.81349 -2.75,4.46084 0,0.64735 -0.375,0.94524 -0.83333,0.66198 -0.90283,-0.55798 -0.94371,-0.40659 -1.79487,6.64699 -0.32612,2.70255 -0.16826,4.75 0.36623,4.75 0.51668,0 0.96493,2.70872 0.99611,6.01938 0.051,5.41613 0.42593,6.46999 3.74095,10.51552 2.02633,2.47287 4.9983903,5.1757 6.6045703,6.0063 2.79407,1.44487 3.95145,3.4588 1.98773,3.4588 -0.51294,0 -1.24984,1.0125 -1.63756,2.25 -0.38772,1.2375 -1.50199,3.27099 -2.47615,4.51886 -1.67904,2.15081 -2.9662903,8.27809 -3.4444503,16.39547 -0.18182,3.08662 0.0763,3.60806 1.6374603,3.30742 1.30601,-0.25152 1.85331,0.23417 1.85331,1.64468 0,1.25834 0.42871,1.73665 1.15451,1.28808 0.70779,-0.43744 0.88336,-0.2748 0.45375,0.42031 -1.32432,2.14281 3.87822,8.76738 11.14768,14.1947 3.79482,2.83317 8.95065,3.61579 12.36196,1.87644 z M 63.287672,91.84761 c -0.0434,-1.05416 0.19292,-1.64479 0.52522,-1.3125 0.33229,0.3323 0.36781,1.1948 0.0789,1.91667 -0.31922,0.79773 -0.55618,0.56078 -0.60416,-0.60417 z m 32.92105,102.79423 c 0,-1.12034 -1.87801,-0.13785 -2.4159,1.26388 -0.52667,1.37248 -0.38034,1.43434 0.89301,0.37756 0.83759,-0.69514 1.52289,-1.43379 1.52289,-1.64144 z m -43.0856,-28.87756 c 0.0302,-0.55 -0.38124,-0.325 -0.9144,0.5 -0.53316,0.825 -0.94464,2.175 -0.9144,3 0.058,1.58385 1.72467,-1.60578 1.8288,-3.5 z m 1.46716,-3.05194 c 0.34149,-0.88992 0.17385,-1.29132 -0.39301,-0.94098 -0.5437,0.33602 -0.98855,1.0344 -0.98855,1.55194 0,1.43843 0.71677,1.12146 1.38156,-0.61096 z M 424.82964,145.76428 c 3.17505,-11.32997 2.70095,-15.60305 -2.6861,-24.20918 l -2.6347,-4.20918 -0.6496,12.20918 c -0.3573,6.71505 -1.0182,13.78418 -1.4686,15.70918 -0.6875,2.93847 -0.4161,4.03689 1.6919,6.84644 l 2.5107,3.34645 0.9176,-2.34645 c 0.5046,-1.29054 1.5481,-4.59644 2.3188,-7.34644 z m -174.69683,3.75 c -2.71756,-3.60064 -5.83595,-6.20163 -6.37996,-5.3214 -0.30949,0.50076 1.119,2.29669 3.17442,3.99094 4.24242,3.49696 5.11359,3.85853 3.20554,1.33046 z m -185.924088,-5.75 c 0.68469,-0.825 1.01989,-1.5 0.74489,-1.5 -0.275,0 -1.0602,0.675 -1.74489,1.5 -0.68469,0.825 -1.01989,1.5 -0.74489,1.5 0.275,0 1.0602,-0.675 1.74489,-1.5 z m 121.701368,-8.87967 c 1.76075,-1.63278 2.98572,-3.31762 2.72214,-3.74409 -0.26358,-0.42648 -2.64502,-0.51891 -5.29209,-0.2054 -2.92362,0.34626 -5.69409,0.0984 -7.05779,-0.63143 -3.1086,-1.66368 -3.38605,-0.96752 -1.62723,4.08297 0.83847,2.40769 1.53104,5.19576 1.53905,6.19571 0.0133,1.66529 0.2877,1.62701 3.26455,-0.45549 1.7875,-1.25047 4.69062,-3.60949 6.45137,-5.24227 z m 54.2153,6.00685 c -1.02094,-0.91351 -6.91667,-3.62821 -6.91667,-3.1848 0,0.62161 5.18459,3.46377 6.41667,3.51758 0.50416,0.022 0.72916,-0.12773 0.5,-0.33278 z M 74.708722,133.26428 c 0.99549,-1.1 1.58498,-2 1.30998,-2 -0.275,0 -1.31449,0.9 -2.30998,2 -0.99549,1.1 -1.58498,2 -1.30998,2 0.275,0 1.31449,-0.9 2.30998,-2 z m 155.499998,-4.89301 c 0,-0.49116 -0.675,-1.15203 -1.5,-1.46862 -1.52428,-0.58492 -2.04799,0.4803 -0.83333,1.69496 0.95569,0.9557 2.33333,0.82206 2.33333,-0.22634 z m 135.5,-5.10699 c 0.33992,-0.55 0.16803,-1 -0.38197,-1 -0.55,0 -1.27811,0.45 -1.61803,1 -0.33992,0.55 -0.16803,1 0.38197,1 0.55,0 1.27811,-0.45 1.61803,-1 z m -143,-4 c -0.33992,-0.55 -0.81648,-1 -1.05902,-1 -0.24254,0 -0.44098,0.45 -0.44098,1 0,0.55 0.47656,1 1.05902,1 0.58246,0 0.7809,-0.45 0.44098,-1 z M 57.236472,75.73784 c 4.16358,-3.96614 8.44815,-7.48983 9.52127,-7.83042 1.07312,-0.3406 3.21186,-2.7065 4.75275,-5.25756 2.20135,-3.64448 2.65128,-5.30757 2.09989,-7.76194 -0.38596,-1.718 -0.89673,-2.56114 -1.13504,-1.87364 -0.23831,0.6875 -1.10232,1.25 -1.92002,1.25 -0.8177,0 -6.4052,4.83715 -12.41667,10.74922 -7.64941,7.52294 -10.92993,11.44249 -10.92993,13.05902 0,1.28522 -0.44358,2.03565 -1,1.69176 -0.58437,-0.36116 -1,0.66801 -1,2.47617 0,2.8902 0.14694,3.01556 2.2288,1.90138 1.22585,-0.65605 5.63537,-4.43785 9.79895,-8.40399 z M 332.48614,44.75881 c 2.45275,-2.09946 4.75952,-3.3106 5.65268,-2.96786 0.82992,0.31847 1.19144,0.26154 0.80339,-0.12651 -0.38805,-0.38805 0.68226,-3.13117 2.37846,-6.09582 1.6962,-2.96465 3.41892,-6.60844 3.82827,-8.09731 0.47233,-1.71793 1.3309,-2.60405 2.3498,-2.42519 0.88304,0.15502 2.07079,-0.5875 2.63944,-1.65003 1.19761,-2.23775 -0.23299,-3.13181 -5.01125,-3.13181 -1.63026,0 -3.8441,-0.92589 -5.01608,-2.09787 -2.06653,-2.06653 -3.01845,-2.10169 -8.8085,-0.32534 -1.86052,0.57079 -2.22027,0.43714 -1.58596,-0.58921 0.60304,-0.97572 0.36115,-1.15122 -0.91288,-0.66233 -3.32312,1.2752 -16.13682,1.7927 -21.87628,0.8835 -5.24968,-0.83161 -8.57616,-0.14005 -5.47474,1.13818 0.69093,0.28475 -0.14151,0.27989 -1.84986,-0.0108 -2.26497,-0.38542 -3.27196,-0.0963 -3.71861,1.06767 -0.33689,0.87792 -1.44065,1.59622 -2.45279,1.59622 -1.01214,0 -2.69159,0.62251 -3.73211,1.38336 -1.72658,1.2625 -1.37196,1.49487 4.05887,2.6596 6.41151,1.37506 10.20653,2.86763 7.45073,2.93037 -0.825,0.0188 0.075,0.98999 2,2.15824 1.925,1.16824 4.71756,3.30406 6.20568,4.74626 1.48812,1.44219 3.17695,3.07217 3.75294,3.62217 2.88743,2.75711 6.88764,7.65698 7.45221,9.12823 0.34994,0.91192 0.91092,1.38336 1.24662,1.04765 0.33571,-0.3357 1.78761,0.31981 3.22646,1.4567 l 2.61609,2.06707 0.31684,-2.07911 c 0.17426,-1.14351 2.18152,-3.67521 4.46058,-5.62601 z M 121.09982,42.29907 c 3.38341,-1.08087 8.83918,-2.52031 12.12394,-3.19877 5.45667,-1.12706 6.64531,-1.89227 13.76754,-8.86307 l 7.79525,-7.62952 6.3866,-0.23046 c 3.51264,-0.12676 7.17804,-0.65404 8.14535,-1.17172 0.96731,-0.51769 2.80347,-0.94125 4.08037,-0.94125 1.62751,0 2.72625,-0.9141 3.67498,-3.05743 0.74434,-1.68158 1.07427,-3.3365 0.73318,-3.67759 -1.08706,-1.08707 -15.90692,1.70433 -17.70955,3.33569 -1.54191,1.39541 -16.16479,6.50073 -17.75937,6.20037 -0.34617,-0.0652 -1.30439,0.14285 -2.12939,0.46236 -0.825,0.3195 -5.6625,1.58435 -10.75,2.81079 -5.0875,1.22643 -9.25,2.57656 -9.25,3.00029 0,0.42373 -1.60585,1.30039 -3.56855,1.94814 -2.79272,0.92168 -3.39968,1.53641 -2.79184,2.82756 0.42719,0.9074 0.79553,3.56232 0.81855,5.89982 0.023,2.3375 0.0957,4.25 0.16157,4.25 0.0658,0 2.88797,-0.88435 6.27137,-1.96521 z" id="path2943"/>
  <path style="fill: rgb(255, 153, 85);" d="" id="path3639"/>
  <path style="fill: rgb(255, 153, 85);" d="" id="path3659"/>
  <path style="fill: rgb(255, 153, 85);" d="" id="path3663"/>
  <path style="fill: rgb(255, 153, 85);" d="" id="path3665"/>
  <path style="fill: rgb(255, 153, 85);" d="" id="path3673"/>
  <path style="fill: rgb(0, 0, 0); fill-opacity: 1;" id="path2911" d="m 78.243872,133.28153 c -0.90342,0.56172 -1.78384,1.15537 -2.72246,1.65779 -0.41514,0.18322 -0.82004,0.3883 -1.22492,0.5925 -0.32877,0.16582 -0.2089,0.0717 -0.34014,0.18131 -0.0726,0.0428 -0.14737,0.0822 -0.21793,0.12833 -0.008,0.005 0.0343,-0.009 0.0272,-0.004 -0.064,0.0522 -0.13592,0.094 -0.20077,0.14514 -0.0113,0.009 0.0497,-0.0275 0.0392,-0.0177 -0.18207,0.16911 -0.30269,0.21773 -0.18767,0.16856 -0.34623,0.42647 -0.9056,0.5936 -1.30881,0.94264 -0.32378,0.18363 -0.56773,0.42183 -0.81721,0.69331 -0.36297,0.30843 -0.6208,0.70195 -0.92262,1.06579 -0.0991,0.15712 -0.83249,0.92518 -0.55445,0.63818 -0.29176,0.44337 -0.62242,0.85361 -0.98823,1.23834 -0.26898,0.21423 -0.50565,0.51383 -0.59433,0.65199 -0.21744,0.38342 -0.42594,0.76864 -0.62116,1.16431 -0.17809,0.46002 -0.36383,0.91727 -0.55116,1.37406 -0.24739,0.53788 -0.54101,1.04094 -0.86644,1.53411 -0.30471,0.46083 -0.60802,0.92461 -0.92546,1.37702 -0.36403,0.5232 -0.78045,1.00534 -1.1634,1.51419 -0.28918,0.39018 -0.47418,0.83439 -0.67716,1.27134 -0.32268,0.6177 -0.63512,1.24065 -0.99723,1.83636 -0.4195,0.63275 -0.92493,1.20378 -1.42891,1.76958 -0.31423,0.33875 -0.56044,0.71839 -0.80594,1.10655 -0.36081,0.63962 -0.7162,1.28173 -1.10915,1.90233 -0.27278,0.49651 -0.58201,0.97449 -0.84725,1.47532 -0.18988,0.44854 -0.38755,0.8951 -0.59835,1.33471 -0.19617,0.47301 -0.36511,0.9602 -0.52209,1.44913 -0.23185,0.68117 -0.57911,1.31568 -0.8219,1.99249 -0.21618,0.59068 -0.55203,1.12815 -0.7569,1.72303 -0.25188,0.73104 -0.59888,1.42409 -0.91631,2.12778 -0.21148,0.54275 -0.48764,1.06778 -0.64143,1.63164 -0.13936,0.58691 -0.51158,1.07131 -0.74616,1.61389 -0.0602,0.33749 -0.11701,0.67545 -0.19093,1.01134 -0.0138,0.0699 -0.0276,0.13975 -0.0414,0.20962 -0.55322,2.7738 -4.47596,1.99143 -3.92275,-0.78237 l 0,0 c 0.0193,-0.0962 0.0386,-0.19237 0.058,-0.28855 0.14029,-0.63483 0.20084,-1.29214 0.49283,-1.88475 0.17067,-0.34401 0.38175,-0.66054 0.51649,-1.01973 0.22522,-0.73247 0.53218,-1.4354 0.83106,-2.14003 0.27671,-0.61007 0.5799,-1.21077 0.8008,-1.84404 0.2222,-0.59751 0.5018,-1.16615 0.76504,-1.74523 0.23385,-0.62209 0.51754,-1.2226 0.76808,-1.83723 0.21643,-0.66438 0.44807,-1.32645 0.73005,-1.96561 0.24544,-0.49195 0.43953,-1.00764 0.68373,-1.50044 0.31838,-0.57614 0.65857,-1.14028 0.9863,-1.71088 0.39494,-0.61371 0.72956,-1.26291 1.10164,-1.8905 0.36669,-0.57978 0.75618,-1.13926 1.21764,-1.64905 0.35094,-0.37793 0.68189,-0.77961 0.99404,-1.19 0.29046,-0.45601 0.50932,-0.95297 0.77467,-1.42343 0.32191,-0.68977 0.64582,-1.37795 1.10777,-1.98893 0.36665,-0.48695 0.76291,-0.94986 1.11456,-1.44792 0.31268,-0.3939 0.55513,-0.84996 0.84472,-1.26076 0.18223,-0.27058 0.35383,-0.53422 0.49309,-0.83407 0.22333,-0.54062 0.4317,-1.08711 0.66414,-1.62376 0.26529,-0.53523 0.5532,-1.05427 0.85278,-1.57102 0.31513,-0.48154 0.68406,-0.91551 1.11572,-1.29666 0.19871,-0.22332 0.26054,-0.26255 0.46823,-0.5958 0.2939,-0.41072 0.57032,-0.69347 0.87323,-1.06335 0.36622,-0.32811 0.59669,-0.8978 1.02801,-1.18366 0.42768,-0.45632 0.88396,-0.89084 1.41842,-1.2219 0.0979,-0.0676 0.70606,-0.52227 0.8215,-0.53994 0.038,-0.006 -0.15981,0.13637 -0.0401,0.0487 0.40437,-0.38991 0.83139,-0.76234 1.32294,-1.04046 0.56969,-0.32938 1.16319,-0.61746 1.76368,-0.88645 0.82475,-0.43052 1.58021,-0.97317 2.37686,-1.45172 2.35339,-1.56892 4.57219,1.75928 2.2188,3.32821 z"/>
  <path style="fill: rgb(0, 0, 0); fill-opacity: 1;" id="path2913" d="m 221.43303,115.97723 c 0.58713,0.7697 1.17023,1.54299 1.6842,2.36389 0.43987,0.69687 0.7441,1.46001 1.03445,2.22686 0.18185,0.31643 0.33151,0.64518 0.52808,0.95392 0.29628,0.52471 0.64026,1.01991 0.96405,1.52873 0.43614,0.61091 0.89386,1.20217 1.30935,1.82831 0.39664,0.61115 0.71552,1.26459 1.00977,1.92914 0.12349,0.24051 0.28991,0.43345 0.47697,0.62453 0.30788,0.34974 0.62774,0.69054 0.96873,1.0086 0.40113,0.33194 0.80636,0.65742 1.20066,0.99988 0.33245,0.21274 0.64854,0.45022 0.99702,0.63843 0.93684,0.55572 0.0246,-0.0115 -2.50596,2.72127 -0.029,0.0313 0.0863,0.14262 0.0526,0.11651 -0.10046,-0.0779 -0.1608,-0.19836 -0.25598,-0.2826 -0.53716,-0.53403 -0.98324,-1.12965 -1.35547,-1.78786 -0.24808,-0.49056 -0.56752,-0.93781 -0.87934,-1.38826 0.52357,0.77624 1.61711,0.88778 2.45052,0.42327 0.44758,-0.24947 0.59061,-0.83785 0.86898,-1.26806 0.0535,-0.0827 -0.004,-0.17527 0.0508,-0.0597 0.13161,0.81877 0.31792,1.62639 0.45337,2.44461 0.12003,0.54488 0.0725,1.11653 0.19506,1.65534 0.0348,0.21359 0.13377,0.38294 0.24672,0.60681 0.19516,0.35093 0.39125,0.69882 0.5992,1.04138 0.12355,0.13222 0.1955,0.27451 0.39947,0.38249 0.32778,0.29089 0.68556,0.48228 1.05335,0.73969 0.25894,0.20526 0.55634,0.35278 0.81816,0.55472 0.55663,0.42932 0.20143,0.20352 0.46063,0.36419 0.28183,0.14242 0.92446,0.82667 1.13849,0.88479 -0.007,-0.01 -0.0338,-0.0342 -0.0222,-0.0297 0.45099,0.17566 0.90028,0.4733 1.30917,0.7274 0.53848,0.3384 1.01613,0.75542 1.51327,1.14887 0.3439,0.24404 0.656,0.51327 1.01517,0.72924 0.55973,0.26573 1.07257,0.62186 1.57068,0.98747 0.28478,0.29327 0.58203,0.42864 0.93517,0.6032 0.39438,0.21199 0.77774,0.43928 1.17469,0.64425 0.31875,0.11814 0.6481,0.21837 0.97884,0.30217 0.61832,0.17082 1.20302,0.43174 1.78888,0.68795 0.48552,0.14163 0.91561,0.4191 1.38214,0.60317 0.5611,0.25105 1.07896,0.5834 1.58662,0.92714 0.51143,0.35094 0.9326,0.80994 1.3796,1.23426 0.30059,0.30183 0.54096,0.65726 0.77827,1.00911 0.11398,0.16901 0.12355,0.2241 0.10066,0.12987 0.0579,0.0709 0.11569,0.14178 0.17354,0.21266 1.78025,2.19789 -1.32804,4.71554 -3.10829,2.51765 l 0,0 c -0.0308,-0.0386 -0.0616,-0.0771 -0.0924,-0.1157 -0.20842,-0.25763 -0.54624,-0.71375 -0.64388,-0.88932 -0.2741,-0.27045 -0.54056,-0.55403 -0.83886,-0.79228 -0.30015,-0.20624 -0.60069,-0.40849 -0.93018,-0.56513 -0.46431,-0.20769 -0.90841,-0.44941 -1.39461,-0.60861 -0.39692,-0.17466 -0.7891,-0.35965 -1.20566,-0.48411 -0.61031,-0.16516 -1.22489,-0.34239 -1.79548,-0.61759 -0.38817,-0.20235 -0.75976,-0.41803 -1.14149,-0.62723 -0.54174,-0.27769 -1.09537,-0.55127 -1.53793,-0.97928 -0.36807,-0.30651 -0.80357,-0.52921 -1.22395,-0.75308 -0.50687,-0.30566 -0.95813,-0.67166 -1.43419,-1.01952 -0.38692,-0.30634 -0.7507,-0.63805 -1.16771,-0.90393 -0.4434,-0.29099 -0.93405,-0.49885 -1.39143,-0.76601 -0.43105,-0.30657 -0.82434,-0.65392 -1.25262,-0.96495 -0.40254,-0.30398 -0.79473,-0.61406 -1.22648,-0.88143 -0.39235,-0.27752 -0.82255,-0.51225 -1.18678,-0.83786 -0.53363,-0.42791 -1.01878,-0.90189 -1.3856,-1.48495 -0.25922,-0.43135 -0.506,-0.8681 -0.74762,-1.30957 -0.25306,-0.50185 -0.47763,-1.02743 -0.58882,-1.58091 -0.12423,-0.60738 -0.14856,-1.22079 -0.22864,-1.83425 -0.13226,-0.81323 -0.32342,-1.61496 -0.45079,-2.42905 -0.13556,-0.97535 -0.23019,-1.98407 0.8357,-2.68406 1.2094,-0.79423 2.29127,-0.2338 3.03098,0.65318 0.38885,0.56636 0.78513,1.13026 1.09821,1.7439 0.16626,0.34662 0.43275,0.61349 0.69126,0.89408 0.0978,0.10234 0.89595,0.91931 0.8412,1.01229 -1.54981,2.63201 -1.45716,3.6485 -2.9471,2.72444 -0.57818,-0.33296 -1.13545,-0.70098 -1.66282,-1.11032 -0.4278,-0.37609 -0.88033,-0.7189 -1.30749,-1.0968 -0.38947,-0.36831 -0.76216,-0.75668 -1.11819,-1.1568 -0.5108,-0.53992 -0.95349,-1.13332 -1.26308,-1.81344 -0.17514,-0.45357 -0.42171,-0.87609 -0.66685,-1.29448 -0.42937,-0.64755 -0.91726,-1.24892 -1.35151,-1.89322 -0.33241,-0.52321 -0.68227,-1.03648 -0.99173,-1.5729 -0.32306,-0.53018 -0.60806,-1.08054 -0.86765,-1.64459 -0.20019,-0.5326 -0.39367,-1.06859 -0.70353,-1.55026 -0.42316,-0.728 -0.98241,-1.36939 -1.47237,-2.05182 -1.69705,-2.26274 1.50295,-4.66274 3.2,-2.4 z"/>
  <path style="fill: rgb(0, 0, 0); fill-opacity: 1;" id="path2915" d="m 54.728692,103.97114 c 0.36073,-0.95337 0.64775,-1.93217 1.0158,-2.88271 0.28489,-0.7219 0.58799,-1.44063 0.96482,-2.11979 0.3905,-0.5874 0.87285,-1.11084 1.3702,-1.60906 0.47413,-0.50078 1.02837,-0.91095 1.55755,-1.34946 0.44887,-0.39216 0.90046,-0.78249 1.35228,-1.17285 0.45847,-0.2842 0.85228,-0.64629 1.27111,-0.98267 0.37594,-0.31212 0.71416,-0.66645 1.06228,-1.00876 0.2788,-0.29996 0.55848,-0.59994 0.85253,-0.8852 0.15066,-0.23421 0.35787,-0.48114 0.47218,-0.75855 0.0973,-0.26671 0.17281,-0.54551 0.2853,-0.80688 0.0337,-0.0783 0.0309,-0.25861 0.11124,-0.23024 0.0799,0.0282 -0.062,0.15776 -0.0931,0.23665 2.16988,0.71545 2.20853,-0.0421 2.12788,0.80648 -0.25358,1.57065 -2.47482,1.21203 -2.22124,-0.35862 l 0,0 c 0.19625,-1.08274 -0.0522,-0.35943 2.29433,0.0193 -0.138,0.40846 -0.30256,0.83094 -0.46384,1.28122 -0.25512,0.52716 -0.58173,1.00701 -0.96884,1.44736 -0.29948,0.25919 -0.54195,0.58317 -0.82544,0.85922 -0.40345,0.3886 -0.78774,0.79984 -1.22455,1.15244 -0.39921,0.32049 -0.77251,0.67586 -1.21581,0.93679 -0.46527,0.39383 -0.92583,0.79384 -1.38148,1.19746 -0.4758,0.39359 -0.97615,0.75882 -1.40246,1.20837 -0.35756,0.35573 -0.69771,0.7303 -1.00491,1.13038 -0.34254,0.57088 -0.56195,1.21362 -0.82347,1.82305 -0.3747,0.95509 -0.6506,1.94557 -1.02331,2.90172 -0.59088,1.4772 -2.67995,0.64157 -2.08907,-0.83563 z"/>
  <path style="fill: rgb(222, 170, 135); fill-opacity: 1;" d="" id="path2964"/>
  <path style="fill: rgb(222, 170, 135); fill-opacity: 1;" d="" id="path2966"/>
  <path style="fill: rgb(222, 170, 135); fill-opacity: 1;" d="" id="path2968"/>
  <path style="fill: rgb(222, 170, 135); fill-opacity: 1;" d="" id="path2974"/>
  <path style="fill: rgb(255, 153, 85); fill-opacity: 1;" d="" id="path3004"/>
</svg>