<?xml version="1.0" encoding="UTF-8" standalone="no"?>
<!-- Created with Inkscape (http://www.inkscape.org/) -->

<svg
   xmlns:dc="http://purl.org/dc/elements/1.1/"
   xmlns:cc="http://creativecommons.org/ns#"
   xmlns:rdf="http://www.w3.org/1999/02/22-rdf-syntax-ns#"
   xmlns:svg="http://www.w3.org/2000/svg"
   xmlns="http://www.w3.org/2000/svg"
   xmlns:sodipodi="http://sodipodi.sourceforge.net/DTD/sodipodi-0.dtd"
   xmlns:inkscape="http://www.inkscape.org/namespaces/inkscape"
   width="744.09448"
   height="524.40942"
   id="svg2"
   version="1.1"
   inkscape:version="0.47 r22583"
   sodipodi:docname="New document 1">
  <defs
     id="defs4">
    <inkscape:perspective
       sodipodi:type="inkscape:persp3d"
       inkscape:vp_x="0 : 526.18109 : 1"
       inkscape:vp_y="0 : 1000 : 0"
       inkscape:vp_z="744.09448 : 526.18109 : 1"
       inkscape:persp3d-origin="372.04724 : 350.78739 : 1"
       id="perspective10" />
    <inkscape:perspective
       id="perspective2830"
       inkscape:persp3d-origin="0.5 : 0.33333333 : 1"
       inkscape:vp_z="1 : 0.5 : 1"
       inkscape:vp_y="0 : 1000 : 0"
       inkscape:vp_x="0 : 0.5 : 1"
       sodipodi:type="inkscape:persp3d" />
  </defs>
  <sodipodi:namedview
     id="base"
     pagecolor="#ffffff"
     bordercolor="#666666"
     borderopacity="1.0"
     inkscape:pageopacity="0.0"
     inkscape:pageshadow="2"
     inkscape:zoom="3.959798"
     inkscape:cx="511.72929"
     inkscape:cy="357.42165"
     inkscape:document-units="px"
     inkscape:current-layer="layer1"
     showgrid="false"
     gridtolerance="5"
     objecttolerance="10"
     guidetolerance="15"
     inkscape:window-width="1366"
     inkscape:window-height="693"
     inkscape:window-x="0"
     inkscape:window-y="25"
     inkscape:window-maximized="1"
     units="mm"
     showguides="true"
     inkscape:guide-bbox="true">
    <sodipodi:guide
       orientation="1,0"
       position="372.04724,0"
       id="guide2816" />
  </sodipodi:namedview>
  <metadata
     id="metadata7">
    <rdf:RDF>
      <cc:Work
         rdf:about="">
        <dc:format>image/svg+xml</dc:format>
        <dc:type
           rdf:resource="http://purl.org/dc/dcmitype/StillImage" />
        <dc:title></dc:title>
      </cc:Work>
    </rdf:RDF>
  </metadata>
  <g
     inkscape:label="Layer 1"
     inkscape:groupmode="layer"
     id="layer1"
     transform="translate(0,-527.95269)">
    <path
       style="fill:#000000"
       d="m 535.09278,699.98646 c -0.44693,-0.59647 -0.87347,-1.18694 -0.94786,-1.31218 -0.0744,-0.12522 0.41312,-3.2844 1.08337,-7.02039 0.67025,-3.73599 1.21863,-6.86589 1.21863,-6.95532 0,-0.0894 0.61434,-0.66935 1.36519,-1.28869 l 1.36518,-1.12607 0.86859,0.96866 c 0.53185,0.59313 0.86868,1.16628 0.86882,1.47841 1.4e-4,0.28036 -0.53109,3.47575 -1.1805,7.10087 l -1.18074,6.59112 -1.32404,1.32403 -1.32405,1.32405 -0.81259,-1.08449 z"
       id="path2910" />
    <path
       style="fill:#000000"
       d="m 591.36935,699.98646 c -0.44693,-0.59647 -0.87347,-1.18694 -0.94786,-1.31218 -0.0744,-0.12522 0.41312,-3.2844 1.08337,-7.02039 0.67025,-3.73599 1.21863,-6.86589 1.21863,-6.95532 0,-0.0894 0.61434,-0.66935 1.36519,-1.28869 l 1.36518,-1.12607 0.86859,0.96866 c 0.53185,0.59313 0.86868,1.16628 0.86883,1.47841 1.3e-4,0.28036 -0.5311,3.47575 -1.18051,7.10087 l -1.18074,6.59112 -1.32404,1.32403 -1.32404,1.32405 -0.8126,-1.08449 z"
       id="path2908" />
    <path
       style="fill:#000000"
       d="m 601.82463,699.81258 -0.99194,-1.22588 1.25873,-7.07575 c 0.69231,-3.89167 1.27632,-7.08198 1.2978,-7.08958 0.0215,-0.008 0.60205,-0.4916 1.29015,-1.07556 0.6881,-0.58395 1.33038,-1.05783 1.4273,-1.05305 0.0969,0.005 0.53542,0.47422 0.97445,1.04322 l 0.79823,1.03454 -1.25306,7.05599 -1.25307,7.056 -1.27832,1.27797 -1.27832,1.27797 -0.99195,-1.22587 z"
       id="path2906" />
    <path
       style="fill:#000000"
       d="m 629.74707,699.81858 -0.97882,-1.24588 1.25277,-7.07372 c 0.68902,-3.89054 1.31864,-7.22547 1.39916,-7.41095 0.16875,-0.38876 2.36447,-2.21151 2.66405,-2.21151 0.11016,0 0.57416,0.46955 1.03112,1.04346 0.57204,0.71846 0.79964,1.1789 0.73074,1.47828 -0.0551,0.23915 -0.64665,3.5039 -1.31465,7.25501 l -1.21455,6.82021 -1.29551,1.29549 -1.29548,1.2955 -0.97883,-1.24589 z"
       id="path2904" />
    <path
       style="fill:#000000"
       d="m 437.1645,699.87078 c -0.45658,-0.53269 -0.83394,-1.06028 -0.83857,-1.17243 -0.005,-0.11214 0.56304,-3.48189 1.26149,-7.48833 l 1.26991,-7.28443 1.32451,-1.0614 1.32452,-1.0614 0.9583,1.06994 c 0.55778,0.62275 0.92485,1.21342 0.87826,1.41321 -0.044,0.1888 -0.63216,3.50883 -1.30696,7.37784 l -1.22691,7.03457 -1.16819,1.06553 c -0.6425,0.58605 -1.27574,1.06776 -1.40719,1.07048 -0.13146,0.003 -0.61258,-0.43089 -1.06917,-0.96358 z"
       id="path2902" />
    <path
       style="fill:#000000"
       d="m 517.37971,699.66688 c -0.60751,-0.76917 -0.89461,-1.31269 -0.8347,-1.58023 0.0502,-0.22429 0.61897,-3.39084 1.26389,-7.03678 l 1.17258,-6.62897 1.34132,-1.07241 1.34133,-1.07241 0.86238,0.97267 c 0.47431,0.53496 0.86681,1.15617 0.87223,1.38046 0.005,0.22429 -0.51047,3.43572 -1.1464,7.13652 l -1.15624,6.72872 -1.24524,1.16356 c -0.68488,0.63997 -1.31272,1.16756 -1.39519,1.17243 -0.0825,0.005 -0.56665,-0.51872 -1.07596,-1.16356 z"
       id="path2900" />
    <path
       style="fill:#000000"
       d="m 573.65629,699.66688 c -0.60752,-0.76917 -0.89461,-1.31269 -0.83471,-1.58023 0.0502,-0.22429 0.61897,-3.39084 1.26389,-7.03678 l 1.17258,-6.62897 1.34132,-1.07241 1.34133,-1.07241 0.86238,0.97267 c 0.47432,0.53496 0.86682,1.15617 0.87223,1.38046 0.005,0.22429 -0.51047,3.43572 -1.1464,7.13652 l -1.15623,6.72872 -1.24525,1.16356 c -0.68488,0.63997 -1.31271,1.16756 -1.39518,1.17243 -0.0825,0.005 -0.56666,-0.51872 -1.07596,-1.16356 z"
       id="path2898" />
    <path
       style="fill:#000000"
       d="m 619.22793,699.71438 -0.86785,-1.12488 1.2567,-7.07097 c 0.69119,-3.88903 1.27701,-7.07991 1.30182,-7.09085 0.0248,-0.0109 0.6215,-0.50925 1.32596,-1.10738 1.26598,-1.0749 1.28573,-1.08307 1.70331,-0.70516 0.23237,0.21028 0.64083,0.75491 0.90769,1.21028 l 0.48521,0.82794 -1.21107,6.92053 -1.21106,6.92053 -1.23776,1.17243 c -0.68076,0.64484 -1.31591,1.17243 -1.41143,1.17243 -0.0955,0 -0.56421,-0.5062 -1.04152,-1.1249 z"
       id="path2896" />
    <path
       style="fill:#000000"
       d="m 457.82594,700.34556 c -0.57712,-0.25129 -1.51196,-1.2019 -1.51196,-1.5375 0,-0.0776 0.69786,-0.70751 1.55079,-1.39979 l 1.55078,-1.25871 5.66292,0 5.66292,0 0.95897,1.12249 c 0.52743,0.61736 0.92854,1.19644 0.89134,1.28683 -0.17526,0.42595 -1.84347,1.70942 -2.44671,1.88241 -1.09729,0.3147 -11.56319,0.23336 -12.31905,-0.0957 z"
       id="path2894" />
    <path
       style="fill:#000000"
       d="m 497.0941,698.39247 2.68847,-2.24291 6.06622,0 6.06622,0 0.84752,1.00511 c 0.46614,0.55282 0.84752,1.08733 0.84752,1.18781 0,0.10048 -0.58519,0.65747 -1.30044,1.2378 l -1.30044,1.0551 -8.30177,0 -8.30177,0 2.68847,-2.24291 z"
       id="path2892" />
    <path
       style="fill:#000000"
       d="m 545.22884,700.37402 c 0.17603,-0.13661 1.42359,-1.143 2.77236,-2.23642 l 2.45232,-1.98804 5.60796,0 5.60797,0 1.09152,1.25495 1.09153,1.25497 -0.80607,0.70697 c -1.46743,1.287 -1.32762,1.26956 -10.12798,1.26245 -6.33639,-0.005 -7.94279,-0.0584 -7.68961,-0.25488 z"
       id="path2890" />
    <path
       style="fill:#000000"
       d="m 493.89052,699.05515 c 0.0604,-0.3084 0.67509,-3.81804 1.36599,-7.7992 l 1.25619,-7.23847 0.64753,-0.57574 c 0.35614,-0.31666 0.98329,-0.84537 1.39366,-1.17492 l 0.74614,-0.59918 0.8958,1.12922 0.89581,1.12922 -1.03024,5.72344 -1.03024,5.72344 -2.52254,2.12145 c -1.3874,1.1668 -2.56875,2.12147 -2.62522,2.12147 -0.0565,0 -0.0533,-0.25233 0.007,-0.56073 z"
       id="path2888" />
    <path
       style="fill:#000000"
       d="m 544.39905,699.52979 c 0,-0.12768 2.39645,-13.6032 2.56852,-14.44308 0.0787,-0.38419 0.56811,-0.9164 1.54703,-1.68235 l 1.4319,-1.12039 0.82821,1.04019 0.82821,1.04019 -0.65478,3.80262 c -0.36012,2.09145 -0.79973,4.60493 -0.9769,5.58552 l -0.32213,1.78289 -2.37016,1.89831 c -2.48124,1.98728 -2.8799,2.27743 -2.8799,2.0961 z"
       id="path2886" />
    <path
       style="fill:#000000"
       d="m 455.1516,697.5259 c -0.62097,-0.68178 -0.87663,-1.27101 -0.87663,-2.02044 0,-0.5961 1.71246,-10.61543 1.94605,-11.38603 0.051,-0.16822 0.6433,-0.7589 1.31624,-1.31261 0.67294,-0.55372 1.22353,-1.06933 1.22353,-1.1458 0,-0.0765 -0.38481,-0.62233 -0.85514,-1.21303 l -0.85513,-1.07401 0.88184,-5.20878 c 0.485,-2.86483 0.97171,-5.53613 1.08155,-5.93623 0.12041,-0.43859 0.57535,-1.07691 1.14573,-1.60754 1.50913,-1.40398 1.50288,-1.40362 2.45395,-0.14393 0.4603,0.60967 0.83626,1.31886 0.83547,1.576 -8.2e-4,0.25714 -0.41369,2.83536 -0.91755,5.72937 -0.50386,2.89402 -0.91611,5.33245 -0.91611,5.41874 0,0.0863 -0.59641,0.64079 -1.32536,1.23222 -0.72894,0.59142 -1.32535,1.15491 -1.32535,1.2522 0,0.0973 0.41366,0.64264 0.91925,1.2119 0.67354,0.75838 0.89161,1.15533 0.81584,1.48509 -0.12895,0.56123 -1.93899,10.83348 -1.93899,11.00407 0,0.12646 -2.95753,2.59758 -3.10889,2.59758 -0.0453,0 -0.27047,-0.20645 -0.5003,-0.45877 z"
       id="path2884" />
    <path
       style="fill:#000000"
       d="m 563.5361,696.7934 -0.94715,-1.18793 0.994,-5.46228 c 0.54671,-3.00426 1.08762,-5.57508 1.20204,-5.71295 0.11442,-0.13787 0.75078,-0.67707 1.41412,-1.19822 l 1.20608,-0.94755 0.73097,0.99577 c 0.52317,0.7127 0.73096,1.20725 0.73096,1.7397 0,0.95546 -1.56591,9.82669 -1.86704,10.5772 -0.18695,0.46593 -2.15395,2.39177 -2.43685,2.38586 -0.044,0 -0.50619,-0.53624 -1.02713,-1.1896 z"
       id="path2882" />
    <path
       style="fill:#000000"
       d="m 472.63198,696.62044 -0.90623,-1.16033 0.5736,-3.37646 c 0.31547,-1.85705 0.76246,-4.46011 0.9933,-5.78458 l 0.41971,-2.40812 1.34291,-1.11682 1.34292,-1.11681 0.76382,0.87423 c 0.4201,0.48082 0.81954,1.07882 0.88765,1.32888 0.0681,0.25006 -0.0235,1.30524 -0.20355,2.34485 -0.18005,1.03962 -0.60997,3.53706 -0.95537,5.54987 -0.34541,2.01281 -0.73788,3.81653 -0.87217,4.00825 -0.26322,0.37581 -2.19334,2.01737 -2.37198,2.01737 -0.0596,0 -0.51618,-0.52215 -1.01461,-1.16033 z"
       id="path2880" />
    <path
       style="fill:#000000"
       d="m 523.53812,682.80768 c -0.52604,-0.60931 -0.95644,-1.14338 -0.95644,-1.18681 0,-0.0434 0.59305,-0.55421 1.31789,-1.13507 l 1.31789,-1.05609 5.80277,0 5.80277,0 0.83015,0.96853 c 0.45658,0.53269 0.83074,1.02385 0.83146,1.09146 8.2e-4,0.0676 -0.6152,0.64108 -1.36872,1.27438 l -1.37003,1.15145 -5.62565,0 -5.62565,0 -0.95644,-1.10785 z"
       id="path2878" />
    <path
       style="fill:#000000"
       d="m 551.82951,682.947 c -0.42609,-0.53269 -0.84858,-1.06793 -0.93888,-1.18942 -0.10211,-0.13738 0.33283,-0.61915 1.15047,-1.27437 l 1.31465,-1.0535 5.80128,0 5.80129,0 0.83922,1.05402 c 0.46157,0.5797 0.76758,1.11994 0.68002,1.20052 -0.0876,0.0806 -0.72865,0.61558 -1.42464,1.1889 l -1.26545,1.04238 -5.59163,0 -5.59164,0 -0.77469,-0.96853 z"
       id="path2876" />
    <path
       style="fill:#000000"
       d="m 579.8147,682.80768 c -0.52605,-0.60931 -0.95645,-1.14338 -0.95645,-1.18681 0,-0.0434 0.59305,-0.55421 1.31789,-1.13507 l 1.3179,-1.05609 5.80276,0 5.80277,0 0.83015,0.96853 c 0.45658,0.53269 0.83074,1.02385 0.83146,1.09146 8.2e-4,0.0676 -0.61519,0.64108 -1.36872,1.27438 l -1.37003,1.15145 -5.62565,0 -5.62564,0 -0.95644,-1.10785 z"
       id="path2874" />
    <path
       style="fill:#000000"
       d="m 608.04306,682.78318 c -1.01488,-1.26845 -1.02925,-1.21409 0.66669,-2.5225 l 1.07711,-0.83099 5.5462,0 5.54619,0 1.01077,0.94546 c 0.55592,0.52 1.01077,1.00635 1.01077,1.08078 0,0.0744 -0.63568,0.65829 -1.41263,1.29746 l -1.41262,1.16212 -5.57097,-0.01 -5.57098,-0.01 -0.89053,-1.11303 z"
       id="path2872" />
    <path
       style="fill:#000000"
       d="m 440.60662,680.51816 -0.87161,-1.15445 0.65261,-3.79014 c 0.35894,-2.08459 0.79767,-4.59301 0.97497,-5.57428 l 0.32236,-1.78413 2.217,0 c 1.21935,0 2.21997,0.0688 2.2236,0.15292 0.004,0.0841 -0.42627,2.65041 -0.95532,5.7029 l -0.96192,5.54997 -1.28012,1.02582 c -0.70407,0.56421 -1.31834,1.02583 -1.36504,1.02583 -0.0467,0 -0.47714,-0.5195 -0.95653,-1.15444 z"
       id="path2870" />
    <path
       style="fill:#000000"
       d="m 633.22046,680.58826 c -0.51713,-0.60532 -0.94025,-1.25329 -0.94025,-1.43995 0,-0.18666 0.54899,-3.47996 1.21994,-7.31844 l 1.21994,-6.97906 1.37878,-1.28208 1.37875,-1.28208 0.55276,0.67038 c 1.37745,1.67058 1.37942,1.09659 -0.0313,9.14585 -0.69647,3.97368 -1.32762,7.27765 -1.40258,7.34215 -0.0749,0.0645 -0.65366,0.59575 -1.28602,1.18054 l -1.14973,1.06326 -0.94025,-1.10057 z"
       id="path2868" />
    <path
       style="fill:#000000"
       d="m 475.35176,680.39681 -0.83717,-1.0719 1.02608,-5.7078 1.02608,-5.70779 1.59391,-1.27813 1.5939,-1.27813 0.6157,0.84995 c 0.40571,0.56006 0.6157,1.09324 0.6157,1.56329 0,0.39234 -0.42025,3.10829 -0.93388,6.03545 l -0.93388,5.3221 -1.25805,1.16908 c -0.69193,0.64299 -1.35102,1.17058 -1.46464,1.17242 -0.11363,0.002 -0.58331,-0.479 -1.04375,-1.06854 z"
       id="path2866" />
    <path
       style="fill:#000000"
       d="m 498.25694,680.39781 -0.90771,-1.07048 1.28541,-7.29137 1.2854,-7.29136 1.16268,-1.06856 c 0.63947,-0.58771 1.28349,-1.1393 1.43115,-1.22575 0.18583,-0.1088 0.52513,0.22077 1.10232,1.07072 l 0.83386,1.22791 -1.24284,7.18725 -1.24284,7.18726 -1.23957,1.17243 c -0.68176,0.64483 -1.3117,1.17242 -1.39986,1.17242 -0.0882,0 -0.56876,-0.48171 -1.068,-1.07047 z"
       id="path2864" />
    <path
       style="fill:#000000"
       d="m 521.00145,679.79893 c -0.47662,-0.54805 -0.86658,-1.20406 -0.86658,-1.45781 0,-0.9651 1.87045,-10.65603 2.13499,-11.06157 0.15264,-0.23399 0.73181,-0.80577 1.28704,-1.27064 l 1.0095,-0.84521 0.9594,1.22117 0.9594,1.22116 -0.94354,5.45284 -0.94354,5.45285 -1.05919,0.97757 c -1.57025,1.44924 -1.54869,1.44661 -2.53748,0.30964 z"
       id="path2862" />
    <path
       style="fill:#000000"
       d="m 538.76612,680.18526 c -1.42739,-1.55942 -1.39614,-0.86933 -0.31464,-6.95007 l 0.97166,-5.46312 1.41748,-1.19721 c 0.77961,-0.65846 1.52551,-1.20115 1.65755,-1.20597 0.13204,-0.005 0.42887,0.23125 0.65961,0.52459 0.8725,1.10921 0.86538,1.5546 -0.11633,7.26935 l -0.91886,5.34889 -0.8498,0.77594 c -0.4674,0.42677 -1.0879,0.95048 -1.3789,1.16379 l -0.5291,0.38785 -0.59867,-0.65404 z"
       id="path2860" />
    <path
       style="fill:#000000"
       d="m 549.00994,679.86055 -0.98105,-0.99602 1.35431,-7.61878 c 0.74486,-4.19033 1.37958,-7.70646 1.41048,-7.81362 0.0309,-0.10717 0.8757,0.84474 1.87732,2.11536 1.24951,1.58508 1.80002,2.44625 1.75389,2.74361 -0.22736,1.46535 -1.87909,10.59967 -1.9209,10.62283 -0.028,0.0155 -0.56541,0.45893 -1.1943,0.98541 -0.62889,0.52648 -1.18288,0.95724 -1.23107,0.95724 -0.0482,0 -0.5291,-0.44821 -1.06868,-0.99603 z"
       id="path2858" />
    <path
       style="fill:#000000"
       d="m 566.41714,679.83325 -0.85675,-1.02329 0.97295,-5.4756 0.97295,-5.4756 1.60889,-1.2724 c 0.88488,-0.69982 1.63151,-1.23908 1.65918,-1.19835 0.0277,0.0407 0.29801,0.37929 0.60078,0.75236 0.37537,0.46253 0.55036,0.91659 0.55006,1.42731 -4e-4,0.87203 -1.53753,9.81254 -1.85523,10.79142 -0.13954,0.42993 -0.63424,0.98546 -1.40718,1.58023 -0.6556,0.50447 -1.2363,0.91722 -1.29045,0.91722 -0.0542,0 -0.48399,-0.46048 -0.9552,-1.0233 z"
       id="path2856" />
    <path
       style="fill:#000000"
       d="m 577.27802,679.79895 c -0.47661,-0.54805 -0.86657,-1.20406 -0.86657,-1.45781 0,-0.9651 1.87044,-10.65603 2.13499,-11.06157 0.15263,-0.23399 0.7318,-0.80577 1.28703,-1.27064 l 1.0095,-0.84521 0.9594,1.22117 0.9594,1.22116 -0.94354,5.45284 -0.94354,5.45285 -1.05919,0.97757 c -1.57025,1.44924 -1.54869,1.44661 -2.53748,0.30964 z"
       id="path2854" />
    <path
       style="fill:#000000"
       d="m 595.0427,680.18528 c -1.42739,-1.55942 -1.39615,-0.86933 -0.31465,-6.95007 l 0.97166,-5.46312 1.41748,-1.19721 c 0.77961,-0.65846 1.52551,-1.20115 1.65755,-1.20597 0.13204,-0.005 0.42887,0.23125 0.65961,0.52459 0.8725,1.10921 0.86538,1.5546 -0.11633,7.26935 l -0.91886,5.34889 -0.8498,0.77594 c -0.46739,0.42677 -1.0879,0.95048 -1.3789,1.16379 l -0.5291,0.38785 -0.59866,-0.65404 z"
       id="path2852" />
    <path
       style="fill:#000000"
       d="m 605.31226,679.68281 -0.9553,-0.96988 1.26474,-7.09943 1.26474,-7.09942 1.3903,-1.13745 c 1.31814,-1.07841 1.40456,-1.11732 1.66494,-0.7494 0.15105,0.21344 0.55054,0.73351 0.88777,1.15571 0.33723,0.42221 0.57623,0.92686 0.53112,1.12146 -0.0451,0.19459 -0.5911,3.24409 -1.21332,6.77667 -0.62221,3.53258 -1.17264,6.56356 -1.22317,6.73551 -0.092,0.31313 -2.25747,2.23612 -2.51806,2.23612 -0.0761,0 -0.56835,-0.43645 -1.09376,-0.96989 z"
       id="path2850" />
    <path
       style="fill:#000000"
       d="m 610.06254,678.05296 c 0.0102,-0.48715 0.52128,-3.09728 0.6237,-3.18549 0.0454,-0.0391 3.49618,-2.83648 7.66851,-6.21648 l 7.58604,-6.14545 1.64046,0 c 0.90225,0 1.64033,0.0229 1.64018,0.051 -0.005,0.83021 -0.69733,3.58851 -0.96636,3.84748 -0.19729,0.18992 -3.56556,2.96892 -7.48504,6.17555 l -7.12632,5.83024 -1.79433,0 c -1.57581,0 -1.79342,-0.0435 -1.78684,-0.35683 z"
       id="path2848" />
    <path
       style="fill:#000000"
       d="m 434.69929,666.07256 -1.10875,-1.12269 1.31961,-1.21255 1.31962,-1.21254 8.70099,-0.01 8.70098,-0.01 0.93332,1.09246 c 0.51332,0.60086 0.93332,1.18628 0.93332,1.30095 0,0.11466 -0.60851,0.67824 -1.35224,1.25239 l -1.35224,1.04392 -8.49293,0 -8.49293,0 -1.10875,-1.1227 z"
       id="path2846" />
    <path
       style="fill:#000000"
       d="m 463.49899,665.93273 -1.00931,-1.26253 1.09786,-0.89431 c 0.60382,-0.49187 1.39287,-0.97892 1.75344,-1.08233 0.73904,-0.21195 10.34232,-0.25963 11.35852,-0.0564 0.58424,0.11685 2.24745,1.53993 2.24745,1.92298 0,0.0755 -0.72648,0.69934 -1.61439,1.38622 l -1.61439,1.24889 -5.60494,0 -5.60494,0 -1.0093,-1.26253 z"
       id="path2844" />
    <path
       style="fill:#000000"
       d="m 526.36917,665.92083 -1.13869,-1.27438 0.96948,-0.86116 c 0.53322,-0.47363 1.29063,-0.95483 1.68314,-1.06934 0.40641,-0.11855 3.06465,-0.20867 6.17454,-0.20932 6.08323,-10e-4 6.40266,0.0546 7.34069,1.28445 l 0.55993,0.7341 -1.58324,1.32709 -1.58324,1.32709 -5.64195,0.008 -5.64196,0.008 -1.1387,-1.27438 z"
       id="path2842" />
    <path
       style="fill:#000000"
       d="m 553.76567,665.05114 c -0.94619,-1.17924 -1.75225,-2.23836 -1.79123,-2.35361 -0.048,-0.14182 2.59763,-0.19024 8.18583,-0.14982 9.15159,0.0662 8.51395,-0.0291 9.55311,1.42871 l 0.39445,0.55338 -1.68539,1.3327 -1.68539,1.33271 -5.62551,0 -5.62552,0 -1.72035,-2.14407 z"
       id="path2840" />
    <path
       style="fill:#000000"
       d="m 582.64575,665.92083 -1.1387,-1.27438 0.96948,-0.86116 c 0.53322,-0.47363 1.29063,-0.95483 1.68314,-1.06934 0.40641,-0.11855 3.06465,-0.20867 6.17454,-0.20932 6.08324,-10e-4 6.40266,0.0546 7.34069,1.28445 l 0.55993,0.7341 -1.58324,1.32709 -1.58324,1.32709 -5.64195,0.008 -5.64196,0.008 -1.13869,-1.27438 z"
       id="path2836" />
  </g>
</svg>
