<?xml version="1.0" encoding="utf-8"?>
<!-- Generator: Adobe Illustrator 15.1.0, SVG Export Plug-In . SVG Version: 6.00 Build 0)  -->
<!DOCTYPE svg PUBLIC "-//W3C//DTD SVG 1.1//EN" "http://www.w3.org/Graphics/SVG/1.1/DTD/svg11.dtd">
<svg version="1.1" id="Layer_1" xmlns="http://www.w3.org/2000/svg" xmlns:xlink="http://www.w3.org/1999/xlink" x="0px" y="0px"
	 width="170.08px" height="141.73px" viewBox="0 0 170.08 141.73" enable-background="new 0 0 170.08 141.73" xml:space="preserve">
<g>
	<g>
		<polygon fill="#B3B3B3" stroke="#414042" stroke-width="0.5" points="92.816,13.352 91.338,13.352 90.146,11.582 88.631,11.582 
			87.395,10.302 83.641,10.302 82.32,11.582 80.85,11.582 79.611,13.352 78.014,13.352 76.523,15.578 94.432,15.578 		"/>
		<path fill="#B3B3B3" stroke="#414042" stroke-width="0.5" d="M95.996,17.033v-0.024c0-0.753-0.611-1.366-1.365-1.366H76.322
			c-0.754,0-1.365,0.61-1.365,1.364v0.027c0,0.753,0.611,1.367,1.365,1.367c-0.754,0-1.365,0.608-1.365,1.362v0.025
			c0,0.754,0.611,1.364,1.365,1.364c-0.754,0-1.365,0.612-1.365,1.366v0.024c0,0.754,0.611,1.368,1.365,1.368h18.309
			c0.754,0,1.365-0.614,1.365-1.368V22.52c0-0.754-0.611-1.368-1.365-1.368c0.754,0,1.365-0.607,1.365-1.36v-0.029
			c0-0.754-0.611-1.362-1.365-1.362C95.385,18.4,95.996,17.787,95.996,17.033z"/>
		<line fill="none" stroke="#414042" stroke-width="0.5" x1="79.611" y1="13.352" x2="82.281" y2="13.352"/>
		<line fill="none" stroke="#414042" stroke-width="0.5" x1="88.439" y1="13.352" x2="91.109" y2="13.352"/>
		<line fill="none" stroke="#414042" stroke-width="0.5" x1="80.947" y1="11.664" x2="83.617" y2="11.664"/>
		<line fill="none" stroke="#414042" stroke-width="0.5" x1="87.104" y1="11.664" x2="89.775" y2="11.664"/>
	</g>
	<path fill="#FFFFFF" stroke="#414042" stroke-width="0.5" d="M85.479,90.343c14.6,0,26.436-9.724,26.436-21.719
		c0-3.607-1.086-7.001-2.979-9.995c-1.016-2.8-2.613-6.104-5.121-9.799c0,0-1.162-1.394-2.627-3.808c0,0-0.164-0.273,0,0
		l-4.086-10.308c0.248-0.412,0.4-3.919,0.4-4.434v-3.327c0-1.504-1.225-2.728-2.729-2.728H76.18c-1.508-0.003-2.73,1.224-2.73,2.726
		v3.327c0,0.546,0.164,4.074,0.438,4.502l-4.064,10.239c0.211-0.345,0,0,0,0c-1.465,2.417-2.623,3.807-2.623,3.807
		c-2.42,3.566-3.984,6.759-5.004,9.5c-2.012,3.06-3.158,6.569-3.158,10.295C59.037,80.619,70.875,90.339,85.479,90.343z"/>
	<path fill="#8DC63F" stroke="#555D50" stroke-width="0.25" d="M107.121,59.13c-0.73-2.009-1.787-4.299-3.307-6.821
		c-0.018,1.224-8.207,2.217-18.313,2.217c-10.096,0-18.281-0.99-18.309-2.215c-1.447,2.405-2.473,4.596-3.197,6.538
		c-1.857,2.826-2.912,6.061-2.912,9.5c0,11.068,10.92,20.038,24.395,20.042c13.469,0,24.393-8.974,24.393-20.04
		C109.871,65.023,108.865,61.893,107.121,59.13z"/>
	<path fill="#939598" stroke="#555D50" stroke-width="0.25" d="M85.479,54.526c10.104,0,18.295-0.993,18.309-2.217
		c-0.061-0.101-0.123-0.203-0.188-0.304c-1.219-1.085-8.855-1.919-18.121-1.919c-9.223,0-16.83,0.827-18.107,1.902
		c-0.063,0.106-0.143,0.216-0.205,0.323C67.195,53.536,75.381,54.526,85.479,54.526z"/>
	<g>
		<path fill="none" stroke="#FFFFFF" stroke-width="0.5" d="M77.084,77.705c0,1.139-0.922,2.062-2.059,2.062
			c-1.135,0-2.059-0.923-2.059-2.062c0-1.132,0.924-2.056,2.059-2.056C76.162,75.649,77.084,76.573,77.084,77.705z"/>
		<path fill="none" stroke="#FFFFFF" stroke-width="0.5" d="M91.752,62.647c0,1.138-0.924,2.062-2.059,2.062
			c-1.139,0-2.059-0.924-2.059-2.062c0-1.133,0.92-2.058,2.059-2.058C90.828,60.589,91.752,61.514,91.752,62.647z"/>
		<circle fill="none" stroke="#FFFFFF" stroke-width="0.5" cx="76.72" cy="66.528" r="1.456"/>
		<path fill="none" stroke="#FFFFFF" stroke-width="0.5" d="M82.688,59.268c0,0.867-0.705,1.573-1.57,1.573
			c-0.873,0-1.574-0.706-1.574-1.573c0-0.866,0.701-1.572,1.574-1.572C81.982,57.696,82.688,58.402,82.688,59.268z"/>
		<path fill="none" stroke="#FFFFFF" stroke-width="0.5" d="M76.141,57.285c0,0.512-0.416,0.927-0.926,0.927
			c-0.516,0-0.93-0.415-0.93-0.927c0-0.512,0.414-0.929,0.93-0.929C75.725,56.355,76.141,56.772,76.141,57.285z"/>
		<circle fill="none" stroke="#FFFFFF" stroke-width="0.5" cx="97.161" cy="59.268" r="0.929"/>
		<path fill="none" stroke="#FFFFFF" stroke-width="0.5" d="M98.836,66.528c0,0.25-0.203,0.452-0.451,0.452
			c-0.254,0-0.457-0.202-0.457-0.452c0-0.251,0.203-0.454,0.457-0.454C98.633,66.074,98.836,66.277,98.836,66.528z"/>
		<path fill="none" stroke="#FFFFFF" stroke-width="0.5" d="M85.303,72.606c0,0.253-0.203,0.456-0.453,0.456
			c-0.252,0-0.455-0.203-0.455-0.456c0-0.247,0.203-0.45,0.455-0.45C85.1,72.156,85.303,72.359,85.303,72.606z"/>
		<path fill="none" stroke="#FFFFFF" stroke-width="0.5" d="M73.877,61.766c0,0.169-0.135,0.304-0.303,0.304
			c-0.166,0-0.301-0.135-0.301-0.304c0-0.165,0.135-0.3,0.301-0.3C73.742,61.466,73.877,61.602,73.877,61.766z"/>
		<g>
			<path fill="none" stroke="#FFFFFF" stroke-width="0.5" d="M82.486,77.365c0,0.17-0.133,0.304-0.301,0.304
				s-0.305-0.134-0.305-0.304c0-0.164,0.137-0.302,0.305-0.302S82.486,77.201,82.486,77.365z"/>
			<path fill="none" stroke="#FFFFFF" stroke-width="0.5" d="M89.338,83.128c0,0.17-0.135,0.304-0.303,0.304
				c-0.17,0-0.303-0.134-0.303-0.304c0-0.164,0.133-0.3,0.303-0.3C89.203,82.828,89.338,82.964,89.338,83.128z"/>
			<circle fill="none" stroke="#FFFFFF" stroke-width="0.5" cx="86.032" cy="57.282" r="0.304"/>
			<circle fill="none" stroke="#FFFFFF" stroke-width="0.5" cx="95.002" cy="55.95" r="0.303"/>
			<circle fill="none" stroke="#FFFFFF" stroke-width="0.5" cx="95.002" cy="69.465" r="0.303"/>
			<circle fill="none" stroke="#FFFFFF" stroke-width="0.5" cx="72.338" cy="70.581" r="0.303"/>
			<circle fill="none" stroke="#FFFFFF" stroke-width="0.5" cx="82.584" cy="66.184" r="0.303"/>
		</g>
		<path fill="none" stroke="#FFFFFF" stroke-width="0.5" d="M92.764,84.346c0.135,0.107,0.158,0.295,0.059,0.426
			c-0.102,0.133-0.295,0.158-0.426,0.057s-0.156-0.291-0.055-0.426C92.443,84.271,92.633,84.246,92.764,84.346z"/>
		<path fill="none" stroke="#FFFFFF" stroke-width="0.5" d="M76.328,83.194c0.131,0.104,0.158,0.291,0.055,0.425
			c-0.102,0.134-0.291,0.156-0.426,0.057c-0.131-0.101-0.156-0.29-0.055-0.424C76.004,83.116,76.193,83.093,76.328,83.194z"/>
		<path fill="none" stroke="#FFFFFF" stroke-width="0.5" d="M89.877,67.743c0.135,0.103,0.156,0.292,0.059,0.426
			c-0.105,0.132-0.293,0.157-0.426,0.052c-0.135-0.1-0.158-0.29-0.055-0.421C89.555,67.667,89.746,67.643,89.877,67.743z"/>
		<path fill="none" stroke="#FFFFFF" stroke-width="0.5" d="M94.887,63.236c0.131,0.105,0.154,0.292,0.055,0.425
			c-0.102,0.131-0.291,0.158-0.426,0.053c-0.131-0.099-0.156-0.291-0.055-0.421S94.752,63.134,94.887,63.236z"/>
		<circle fill="none" stroke="#FFFFFF" stroke-width="0.5" cx="71.057" cy="65.374" r="0.303"/>
		<path fill="none" stroke="#FFFFFF" stroke-width="0.5" d="M94.887,76.961c0.131,0.103,0.158,0.295,0.055,0.426
			c-0.102,0.135-0.291,0.16-0.426,0.055c-0.131-0.1-0.156-0.289-0.055-0.422C94.564,76.889,94.752,76.861,94.887,76.961z"/>
		<path fill="none" stroke="#FFFFFF" stroke-width="0.5" d="M85.66,85.677c0.135,0.102,0.16,0.293,0.055,0.425
			c-0.1,0.134-0.289,0.158-0.424,0.055c-0.131-0.1-0.156-0.29-0.055-0.422C85.34,85.603,85.529,85.577,85.66,85.677z"/>
		<circle fill="none" stroke="#FFFFFF" stroke-width="0.5" cx="97.991" cy="73.213" r="0.929"/>
		<circle fill="none" stroke="#FFFFFF" stroke-width="0.5" cx="80.272" cy="72.281" r="0.929"/>
		<circle fill="none" stroke="#FFFFFF" stroke-width="0.5" cx="87.853" cy="78.939" r="0.929"/>
		<path fill="none" stroke="#FFFFFF" stroke-width="0.5" d="M92.057,73.211c0,0.864-0.705,1.573-1.574,1.573
			s-1.572-0.709-1.572-1.573c0-0.867,0.703-1.575,1.572-1.575S92.057,72.344,92.057,73.211z"/>
		<path fill="none" stroke="#FFFFFF" stroke-width="0.5" d="M83.367,83.128c0,0.805-0.652,1.458-1.457,1.458
			s-1.455-0.653-1.455-1.458c0-0.801,0.65-1.452,1.455-1.452S83.367,82.327,83.367,83.128z"/>
		<circle fill="none" stroke="#FFFFFF" stroke-width="0.5" cx="95.498" cy="81.494" r="1.457"/>
		<path fill="none" stroke="#FFFFFF" stroke-width="0.5" d="M99.242,61.264c0.482,0.178,0.727,0.711,0.547,1.192
			c-0.176,0.483-0.709,0.727-1.189,0.55c-0.482-0.178-0.729-0.713-0.551-1.195C98.227,61.331,98.762,61.084,99.242,61.264z"/>
		<circle fill="none" stroke="#FFFFFF" stroke-width="0.5" cx="66.225" cy="74.447" r="0.929"/>
		<circle fill="none" stroke="#FFFFFF" stroke-width="0.5" cx="102.178" cy="69.975" r="0.454"/>
		<path fill="none" stroke="#FFFFFF" stroke-width="0.5" d="M101.977,55.669c0.16,0.057,0.24,0.23,0.182,0.388
			c-0.057,0.158-0.232,0.237-0.389,0.177c-0.156-0.056-0.236-0.229-0.178-0.388C101.648,55.689,101.822,55.609,101.977,55.669z"/>
		<circle fill="none" stroke="#FFFFFF" stroke-width="0.5" cx="64.767" cy="66.185" r="0.303"/>
		<path fill="none" stroke="#FFFFFF" stroke-width="0.5" d="M67.256,69.992c0.16,0.058,0.238,0.233,0.182,0.387
			c-0.059,0.157-0.23,0.241-0.389,0.181c-0.156-0.058-0.236-0.232-0.178-0.39C66.928,70.015,67.104,69.936,67.256,69.992z"/>
		<path fill="none" stroke="#FFFFFF" stroke-width="0.5" d="M103.891,73.86c0.158,0.057,0.238,0.229,0.182,0.39
			c-0.059,0.154-0.234,0.235-0.389,0.178c-0.156-0.059-0.236-0.233-0.18-0.391C103.563,73.883,103.734,73.801,103.891,73.86z"/>
		<path fill="none" stroke="#FFFFFF" stroke-width="0.5" d="M69.846,56.696c0.16,0.058,0.24,0.231,0.182,0.388
			c-0.057,0.158-0.229,0.237-0.389,0.18c-0.156-0.057-0.236-0.232-0.178-0.389C69.518,56.715,69.693,56.638,69.846,56.696z"/>
		<path fill="none" stroke="#FFFFFF" stroke-width="0.5" d="M103.324,58.485c0.141-0.089,0.328-0.048,0.416,0.093
			c0.09,0.143,0.047,0.331-0.096,0.418c-0.139,0.088-0.326,0.046-0.414-0.096C103.139,58.763,103.184,58.574,103.324,58.485z"/>
		<path fill="none" stroke="#FFFFFF" stroke-width="0.5" d="M98.305,77.248c0.143-0.088,0.328-0.047,0.416,0.096
			c0.09,0.139,0.047,0.325-0.094,0.419c-0.143,0.088-0.328,0.044-0.418-0.099C98.119,77.524,98.162,77.338,98.305,77.248z"/>
		<path fill="none" stroke="#FFFFFF" stroke-width="0.5" d="M106.242,65.203c0.48,0.18,0.727,0.715,0.549,1.192
			c-0.178,0.485-0.713,0.73-1.191,0.552c-0.48-0.18-0.727-0.713-0.549-1.194C105.225,65.272,105.76,65.027,106.242,65.203z"/>
		<path fill="none" stroke="#FFFFFF" stroke-width="0.5" d="M69.137,78.896c0.48,0.173,0.727,0.71,0.551,1.192
			c-0.182,0.479-0.715,0.727-1.195,0.547c-0.479-0.178-0.727-0.711-0.549-1.192C68.123,78.96,68.656,78.716,69.137,78.896z"/>
		<path fill="none" stroke="#FFFFFF" stroke-width="0.5" d="M66.73,58.832c0.754,0.279,1.137,1.118,0.859,1.871
			c-0.279,0.755-1.115,1.14-1.871,0.862c-0.752-0.279-1.139-1.114-0.857-1.873C65.137,58.942,65.977,58.554,66.73,58.832z"/>
	</g>
	<path opacity="0.7" fill="#FFFFFF" d="M72.863,46.574c0,0-16.105,24.671-2.883,33.198C69.98,79.772,64.939,65.945,72.863,46.574z"
		/>
	<path fill="#FFFFFF" d="M72.863,46.574c0,0-16.105,24.671-2.883,33.198C69.98,79.772,59.1,71.636,72.863,46.574z"/>
	<path fill="#FFFFFF" d="M97.828,46.574c0,0,16.104,24.671,2.881,33.198C100.709,79.772,111.594,71.636,97.828,46.574z"/>
	<path opacity="0.7" fill="#FFFFFF" d="M97.828,46.574c0,0,16.104,24.671,2.881,33.198C100.709,79.772,105.75,65.945,97.828,46.574z
		"/>
</g>
<g>
	<path fill="#58595B" d="M48.45,102.262v-2.114c0-0.313,0.111-0.579,0.334-0.802c0.223-0.224,0.49-0.336,0.802-0.336
		s0.579,0.112,0.802,0.336c0.223,0.223,0.334,0.489,0.334,0.802v2.114h1.236c0.313,0,0.58,0.112,0.803,0.335s0.334,0.49,0.334,0.802
		s-0.111,0.579-0.334,0.802s-0.49,0.333-0.803,0.333h-1.236v7.751c0,0.312-0.111,0.578-0.334,0.802
		c-0.223,0.223-0.49,0.335-0.802,0.335s-0.579-0.112-0.802-0.335c-0.223-0.224-0.334-0.49-0.334-0.802v-7.751h-1.279
		c-0.313,0-0.58-0.11-0.803-0.333s-0.334-0.49-0.334-0.802s0.111-0.579,0.334-0.802s0.49-0.335,0.803-0.335H48.45z"/>
	<path fill="#58595B" d="M63.016,103.933c1.084,1.084,1.626,2.393,1.626,3.931c0,1.536-0.542,2.847-1.626,3.931
		s-2.394,1.627-3.931,1.627c-1.536,0-2.848-0.543-3.932-1.627s-1.625-2.395-1.625-3.931c0-1.538,0.541-2.847,1.625-3.931
		c1.084-1.083,2.396-1.626,3.932-1.626C60.622,102.307,61.932,102.85,63.016,103.933z M59.085,104.557
		c-0.912,0-1.692,0.32-2.338,0.963c-0.646,0.643-0.97,1.419-0.97,2.333c0,0.912,0.323,1.693,0.97,2.338
		c0.646,0.646,1.426,0.969,2.338,0.969c0.914,0,1.691-0.322,2.332-0.969c0.643-0.645,0.965-1.426,0.965-2.338
		c0-0.914-0.322-1.69-0.965-2.333C60.776,104.877,59.999,104.557,59.085,104.557z"/>
	<path fill="#58595B" d="M68.851,99.346c0.223,0.223,0.334,0.489,0.334,0.802v12.137c0,0.312-0.111,0.578-0.334,0.802
		c-0.223,0.223-0.49,0.335-0.802,0.335s-0.579-0.112-0.802-0.335c-0.223-0.224-0.334-0.49-0.334-0.802v-12.137
		c0-0.313,0.111-0.579,0.334-0.802c0.223-0.224,0.49-0.336,0.802-0.336S68.628,99.122,68.851,99.346z"/>
	<path fill="#58595B" d="M82.492,112.328c0,0.431-0.111,0.722-0.334,0.87s-0.489,0.223-0.802,0.223
		c-0.312,0-0.579-0.074-0.802-0.223s-0.334-0.431-0.334-0.847c-0.95,0.713-2.046,1.069-3.286,1.069c-1.536,0-2.846-0.543-3.93-1.627
		s-1.626-2.395-1.626-3.931c0-1.538,0.542-2.847,1.626-3.931c1.084-1.083,2.394-1.626,3.93-1.626c1.537,0,2.848,0.543,3.932,1.626
		c1.069,1.069,1.611,2.361,1.626,3.876V112.328z M79.273,105.523c-0.646-0.645-1.425-0.967-2.339-0.967
		c-0.912,0-1.689,0.32-2.332,0.963s-0.963,1.419-0.963,2.333c0,0.912,0.32,1.693,0.963,2.338c0.643,0.646,1.42,0.969,2.332,0.969
		c0.914,0,1.693-0.322,2.339-0.969c0.55-0.55,0.866-1.194,0.947-1.937v-0.425c0-0.065,0.003-0.133,0.011-0.199
		C80.187,106.813,79.868,106.111,79.273,105.523z"/>
	<path fill="#58595B" d="M84.765,100.103c0-0.312,0.111-0.579,0.334-0.802s0.489-0.335,0.801-0.335c0.313,0,0.58,0.112,0.803,0.335
		s0.334,0.49,0.334,0.802v3.272c0.949-0.713,2.044-1.068,3.284-1.068c1.536,0,2.847,0.543,3.931,1.626
		c1.084,1.084,1.627,2.393,1.627,3.931c0,1.536-0.543,2.847-1.627,3.931s-2.395,1.627-3.931,1.627c-1.537,0-2.847-0.543-3.931-1.627
		c-1.068-1.069-1.611-2.361-1.625-3.875V100.103z M87.981,110.201c0.646,0.646,1.426,0.969,2.339,0.969s1.69-0.32,2.333-0.963
		c0.642-0.643,0.963-1.419,0.963-2.333c0-0.912-0.321-1.692-0.963-2.338c-0.643-0.646-1.42-0.969-2.333-0.969
		s-1.692,0.322-2.339,0.969c-0.549,0.55-0.864,1.194-0.945,1.937v0.425c0,0.065-0.005,0.134-0.012,0.199
		C87.068,108.913,87.388,109.615,87.981,110.201z"/>
	<path fill="#58595B" d="M109.262,112.328c0,0.431-0.111,0.722-0.334,0.87s-0.489,0.223-0.801,0.223
		c-0.313,0-0.58-0.074-0.803-0.223s-0.334-0.431-0.334-0.847c-0.949,0.713-2.045,1.069-3.285,1.069
		c-1.536,0-2.847-0.543-3.931-1.627s-1.625-2.395-1.625-3.931c0-1.538,0.541-2.847,1.625-3.931c1.084-1.083,2.395-1.626,3.931-1.626
		c1.537,0,2.848,0.543,3.932,1.626c1.068,1.069,1.611,2.361,1.625,3.876V112.328z M106.043,105.523
		c-0.646-0.645-1.425-0.967-2.338-0.967s-1.69,0.32-2.333,0.963c-0.642,0.643-0.963,1.419-0.963,2.333
		c0,0.912,0.321,1.693,0.963,2.338c0.643,0.646,1.42,0.969,2.333,0.969s1.692-0.322,2.338-0.969c0.55-0.55,0.866-1.194,0.947-1.937
		v-0.425c0-0.065,0.004-0.133,0.011-0.199C106.957,106.813,106.638,106.111,106.043,105.523z"/>
	<path fill="#58595B" d="M113.806,109.333v2.951c0,0.312-0.111,0.578-0.334,0.802c-0.223,0.223-0.49,0.335-0.802,0.335
		c-0.313,0-0.579-0.112-0.802-0.335c-0.223-0.224-0.335-0.49-0.335-0.802v-12.137c0-0.313,0.112-0.579,0.335-0.802
		c0.223-0.224,0.489-0.336,0.802-0.336c0.312,0,0.579,0.112,0.802,0.336c0.223,0.223,0.334,0.489,0.334,0.802v6.235l4.821-3.854
		c0.2-0.164,0.435-0.244,0.701-0.244c0.313,0,0.576,0.108,0.791,0.326c0.215,0.221,0.323,0.481,0.323,0.787
		c0,0.312-0.108,0.575-0.323,0.789c-0.066,0.068-0.137,0.123-0.211,0.168l-4.344,3.474l4.5,3.598l-0.023,0.021
		c0.03,0.023,0.056,0.044,0.078,0.067c0.215,0.223,0.323,0.486,0.323,0.791c0,0.313-0.108,0.575-0.323,0.789
		c-0.215,0.217-0.479,0.325-0.791,0.325c-0.26,0-0.486-0.079-0.68-0.235l-0.01,0.013L113.806,109.333z"/>
	<path fill="#58595B" d="M123.783,101.192c-0.313,0-0.579-0.11-0.802-0.333s-0.334-0.489-0.334-0.802
		c0-0.312,0.111-0.579,0.334-0.802s0.489-0.335,0.802-0.335c0.312,0,0.579,0.112,0.802,0.335s0.334,0.49,0.334,0.802
		c0,0.313-0.111,0.579-0.334,0.802S124.095,101.192,123.783,101.192z M123.783,113.421c-0.313,0-0.579-0.112-0.802-0.335
		c-0.223-0.224-0.334-0.49-0.334-0.802v-8.909c0-0.312,0.111-0.579,0.334-0.802s0.489-0.333,0.802-0.333
		c0.312,0,0.579,0.11,0.802,0.333s0.334,0.49,0.334,0.802v8.909c0,0.312-0.111,0.578-0.334,0.802
		C124.362,113.309,124.095,113.421,123.783,113.421z"/>
	<path fill="#58595B" d="M22.326,114.481c0-0.313,0.111-0.579,0.334-0.802s0.49-0.333,0.802-0.333c0.313,0,0.579,0.11,0.802,0.333
		s0.334,0.489,0.334,0.802v3.23c0.898-0.653,1.972-1.019,3.219-1.093h0.179c1.566,0.089,2.854,0.639,3.863,1.648
		c1.068,1.068,1.611,2.36,1.625,3.875v4.521c0,0.356-0.111,0.626-0.334,0.813c-0.223,0.185-0.489,0.278-0.801,0.278
		c-0.313,0-0.58-0.094-0.803-0.278c-0.223-0.187-0.334-0.449-0.334-0.791v-4.52c0-0.068,0.005-0.134,0.012-0.202
		c-0.044-0.816-0.363-1.519-0.957-2.104c-0.646-0.647-1.426-0.97-2.339-0.97h-0.044c-0.914,0-1.693,0.322-2.339,0.97
		c-0.557,0.549-0.873,1.202-0.947,1.96v4.865c0,0.342-0.111,0.604-0.334,0.791c-0.223,0.185-0.489,0.278-0.802,0.278
		c-0.312,0-0.579-0.094-0.802-0.278c-0.223-0.187-0.334-0.456-0.334-0.813V114.481z"/>
	<path fill="#58595B" d="M46.824,126.664c0,0.431-0.111,0.72-0.334,0.868s-0.489,0.223-0.802,0.223
		c-0.312,0-0.579-0.074-0.802-0.223s-0.334-0.431-0.334-0.847c-0.95,0.713-2.044,1.069-3.284,1.069
		c-1.537,0-2.848-0.541-3.932-1.625s-1.626-2.395-1.626-3.933c0-1.535,0.542-2.846,1.626-3.93s2.395-1.625,3.932-1.625
		s2.846,0.541,3.93,1.625c1.069,1.068,1.611,2.36,1.626,3.875V126.664z M43.606,119.86c-0.646-0.647-1.425-0.97-2.338-0.97
		s-1.691,0.322-2.334,0.963c-0.643,0.643-0.963,1.421-0.963,2.333c0,0.915,0.32,1.693,0.963,2.34
		c0.643,0.645,1.421,0.968,2.334,0.968s1.692-0.323,2.338-0.968c0.55-0.549,0.865-1.196,0.946-1.938v-0.422
		c0-0.068,0.005-0.134,0.012-0.202C44.521,121.147,44.2,120.445,43.606,119.86z"/>
	<path fill="#58595B" d="M58.562,118.268c0,0.008,0.004,0.01,0.012,0.01c0.215,0.217,0.322,0.479,0.322,0.792
		c0,0.305-0.109,0.566-0.328,0.784c-0.219,0.221-0.48,0.329-0.785,0.329c-0.313,0-0.575-0.11-0.791-0.333h-0.012
		c-0.638-0.639-1.413-0.959-2.326-0.959s-1.692,0.322-2.338,0.963c-0.646,0.643-0.97,1.421-0.97,2.333
		c0,0.915,0.323,1.693,0.97,2.34c0.646,0.645,1.425,0.968,2.338,0.968c0.906,0,1.682-0.318,2.326-0.957
		c0.008-0.009,0.016-0.015,0.023-0.023c0.215-0.214,0.479-0.322,0.791-0.322c0.312,0,0.578,0.11,0.801,0.329
		c0.223,0.218,0.334,0.483,0.334,0.795s-0.111,0.579-0.334,0.802c-0.007,0.009-0.014,0.015-0.021,0.023
		c-1.076,1.075-2.383,1.614-3.92,1.614s-2.848-0.541-3.932-1.625s-1.625-2.395-1.625-3.933c0-1.535,0.541-2.846,1.625-3.93
		s2.395-1.625,3.932-1.625s2.844,0.536,3.92,1.614L58.562,118.268z"/>
	<path fill="#58595B" d="M63.584,123.667v2.953c0,0.312-0.111,0.579-0.334,0.802s-0.49,0.333-0.802,0.333
		c-0.313,0-0.579-0.11-0.802-0.333s-0.334-0.49-0.334-0.802v-12.139c0-0.313,0.111-0.579,0.334-0.802s0.489-0.333,0.802-0.333
		c0.312,0,0.579,0.11,0.802,0.333s0.334,0.489,0.334,0.802v6.235l4.821-3.852c0.2-0.163,0.435-0.246,0.702-0.246
		c0.312,0,0.575,0.11,0.79,0.329c0.215,0.218,0.323,0.481,0.323,0.784c0,0.313-0.108,0.575-0.323,0.791
		c-0.066,0.066-0.137,0.123-0.211,0.168l-4.343,3.475l4.499,3.595l-0.023,0.023c0.03,0.021,0.056,0.045,0.078,0.065
		c0.215,0.223,0.323,0.488,0.323,0.792c0,0.312-0.108,0.574-0.323,0.791c-0.215,0.214-0.479,0.322-0.79,0.322
		c-0.26,0-0.487-0.079-0.68-0.233l-0.011,0.011L63.584,123.667z"/>
	<path fill="#58595B" d="M77.815,119.169c-0.408-0.185-0.857-0.278-1.348-0.278c-0.914,0-1.693,0.322-2.339,0.963
		c-0.646,0.643-0.968,1.421-0.968,2.333c0,0.915,0.322,1.693,0.968,2.34c0.646,0.645,1.425,0.968,2.339,0.968
		c0.905,0,1.682-0.318,2.328-0.957c0.007-0.009,0.014-0.015,0.021-0.023c0.215-0.214,0.479-0.322,0.79-0.322s0.579,0.11,0.802,0.329
		c0.223,0.218,0.334,0.483,0.334,0.795s-0.111,0.579-0.334,0.802c-0.008,0.009-0.015,0.015-0.021,0.023
		c-1.077,1.075-2.384,1.614-3.92,1.614c-1.537,0-2.847-0.541-3.931-1.625s-1.626-2.395-1.626-3.933c0-1.535,0.542-2.846,1.626-3.93
		s2.394-1.625,3.931-1.625c1.536,0,2.843,0.536,3.92,1.614l-0.012,0.011c0,0.008,0.004,0.01,0.012,0.01
		c0.215,0.217,0.322,0.479,0.322,0.792c0,0.305-0.107,0.563-0.322,0.78l-3.186,3.162c-0.223,0.215-0.49,0.322-0.802,0.322
		c-0.319,0-0.589-0.107-0.812-0.322c-0.216-0.223-0.324-0.494-0.324-0.814c0-0.312,0.108-0.579,0.324-0.802L77.815,119.169z"/>
	<path fill="#58595B" d="M88.694,116.619c0.312,0,0.579,0.112,0.802,0.335s0.334,0.49,0.334,0.802s-0.111,0.579-0.334,0.802
		s-0.49,0.333-0.802,0.333h-0.011c-0.913,0-1.692,0.322-2.339,0.97c-0.594,0.585-0.912,1.287-0.957,2.104
		c0.008,0.068,0.01,0.134,0.01,0.202v4.297c0,0.416-0.111,0.736-0.334,0.959s-0.489,0.333-0.801,0.333
		c-0.313,0-0.58-0.11-0.803-0.333s-0.334-0.55-0.334-0.98v-4.299c0.016-1.515,0.557-2.807,1.627-3.875
		C85.776,117.243,87.091,116.693,88.694,116.619z"/>
	<path fill="#58595B" d="M94.552,116.619c0.312,0,0.576,0.108,0.791,0.322c0.215,0.217,0.322,0.479,0.322,0.791
		c0,0.306-0.107,0.566-0.322,0.785c-0.215,0.221-0.479,0.329-0.791,0.329c-0.156,0-0.287,0.055-0.396,0.161
		c-0.107,0.107-0.161,0.239-0.161,0.396c0,0.154,0.054,0.286,0.161,0.395c0.108,0.108,0.239,0.161,0.396,0.161
		c1.076,0,1.994,0.382,2.756,1.141c0.761,0.762,1.142,1.681,1.142,2.758c0,1.075-0.381,1.994-1.142,2.755
		c-0.762,0.762-1.68,1.142-2.756,1.142s-1.995-0.38-2.756-1.142c-0.762-0.761-1.142-1.68-1.142-2.755
		c0-0.312,0.108-0.577,0.329-0.791c0.218-0.217,0.48-0.322,0.784-0.322c0.312,0,0.576,0.105,0.791,0.322
		c0.216,0.214,0.323,0.479,0.323,0.791c0,0.46,0.162,0.853,0.489,1.18c0.327,0.326,0.72,0.489,1.181,0.489
		c0.46,0,0.854-0.163,1.18-0.489c0.327-0.327,0.49-0.72,0.49-1.18s-0.163-0.854-0.49-1.182c-0.326-0.326-0.72-0.49-1.18-0.49
		c-0.772,0-1.429-0.273-1.971-0.818s-0.813-1.2-0.813-1.964c0-0.772,0.271-1.43,0.813-1.973
		C93.123,116.891,93.779,116.619,94.552,116.619z"/>
	<path fill="#58595B" d="M100.677,122.143c0.014-1.515,0.557-2.807,1.625-3.875c1.084-1.084,2.396-1.625,3.932-1.625
		s2.847,0.541,3.931,1.625s1.625,2.395,1.625,3.93c0,1.538-0.541,2.849-1.625,3.933s-2.395,1.625-3.931,1.625
		c-1.239,0-2.335-0.356-3.286-1.069v4.389c0,0.312-0.111,0.579-0.334,0.802c-0.222,0.223-0.489,0.333-0.802,0.333
		c-0.312,0-0.578-0.11-0.801-0.333s-0.334-0.49-0.334-0.802V122.143z M102.938,121.964c0.008,0.068,0.01,0.134,0.01,0.202v0.422
		c0.082,0.742,0.398,1.39,0.947,1.938c0.646,0.645,1.426,0.968,2.339,0.968s1.69-0.323,2.332-0.968
		c0.643-0.646,0.964-1.425,0.964-2.34c0-0.912-0.321-1.69-0.964-2.333c-0.642-0.641-1.419-0.963-2.332-0.963
		s-1.692,0.32-2.339,0.959C103.301,120.443,102.982,121.147,102.938,121.964z"/>
	<path fill="#58595B" d="M125.174,126.664c0,0.431-0.111,0.72-0.334,0.868s-0.489,0.223-0.801,0.223
		c-0.313,0-0.58-0.074-0.803-0.223s-0.334-0.431-0.334-0.847c-0.949,0.713-2.045,1.069-3.284,1.069
		c-1.536,0-2.847-0.541-3.931-1.625s-1.627-2.395-1.627-3.933c0-1.535,0.543-2.846,1.627-3.93s2.395-1.625,3.931-1.625
		c1.537,0,2.847,0.541,3.931,1.625c1.068,1.068,1.611,2.36,1.625,3.875V126.664z M121.957,119.86
		c-0.646-0.647-1.426-0.97-2.339-0.97s-1.691,0.322-2.333,0.963c-0.643,0.643-0.963,1.421-0.963,2.333
		c0,0.915,0.32,1.693,0.963,2.34c0.642,0.645,1.42,0.968,2.333,0.968s1.692-0.323,2.339-0.968c0.549-0.549,0.864-1.196,0.945-1.938
		v-0.422c0-0.068,0.005-0.134,0.012-0.202C122.87,121.147,122.551,120.445,121.957,119.86z"/>
	<path fill="#58595B" d="M136.911,118.268c0,0.008,0.005,0.01,0.012,0.01c0.216,0.217,0.323,0.479,0.323,0.792
		c0,0.305-0.109,0.566-0.33,0.784c-0.218,0.221-0.48,0.329-0.784,0.329c-0.312,0-0.575-0.11-0.79-0.333h-0.012
		c-0.639-0.639-1.414-0.959-2.326-0.959c-0.914,0-1.693,0.322-2.339,0.963c-0.646,0.643-0.97,1.421-0.97,2.333
		c0,0.915,0.324,1.693,0.97,2.34c0.646,0.645,1.425,0.968,2.339,0.968c0.905,0,1.68-0.318,2.326-0.957
		c0.008-0.009,0.015-0.015,0.022-0.023c0.216-0.214,0.479-0.322,0.791-0.322s0.579,0.11,0.802,0.329
		c0.223,0.218,0.334,0.483,0.334,0.795s-0.111,0.579-0.334,0.802c-0.008,0.009-0.015,0.015-0.022,0.023
		c-1.076,1.075-2.383,1.614-3.919,1.614c-1.537,0-2.848-0.541-3.932-1.625s-1.626-2.395-1.626-3.933c0-1.535,0.542-2.846,1.626-3.93
		s2.395-1.625,3.932-1.625c1.536,0,2.843,0.536,3.919,1.614L136.911,118.268z"/>
	<path fill="#58595B" d="M145.697,119.169c-0.408-0.185-0.857-0.278-1.348-0.278c-0.912,0-1.692,0.322-2.338,0.963
		c-0.646,0.643-0.969,1.421-0.969,2.333c0,0.915,0.322,1.693,0.969,2.34c0.646,0.645,1.426,0.968,2.338,0.968
		c0.906,0,1.682-0.318,2.328-0.957c0.008-0.009,0.015-0.015,0.022-0.023c0.216-0.214,0.478-0.322,0.79-0.322
		c0.312,0,0.579,0.11,0.802,0.329c0.223,0.218,0.334,0.483,0.334,0.795s-0.111,0.579-0.334,0.802
		c-0.007,0.009-0.015,0.015-0.022,0.023c-1.076,1.075-2.383,1.614-3.92,1.614c-1.536,0-2.846-0.541-3.93-1.625
		s-1.626-2.395-1.626-3.933c0-1.535,0.542-2.846,1.626-3.93s2.394-1.625,3.93-1.625c1.537,0,2.844,0.536,3.92,1.614l-0.011,0.011
		c0,0.008,0.003,0.01,0.011,0.01c0.215,0.217,0.324,0.479,0.324,0.792c0,0.305-0.109,0.563-0.324,0.78l-3.185,3.162
		c-0.223,0.215-0.49,0.322-0.802,0.322c-0.319,0-0.59-0.107-0.813-0.322c-0.215-0.223-0.323-0.494-0.323-0.814
		c0-0.312,0.108-0.579,0.323-0.802L145.697,119.169z"/>
</g>
</svg>
