<?xml version="1.0" encoding="UTF-8" standalone="no"?>
<!-- Generator: Adobe Illustrator 15.1.0, SVG Export Plug-In . SVG Version: 6.00 Build 0)  -->

<svg
   xmlns:dc="http://purl.org/dc/elements/1.1/"
   xmlns:cc="http://creativecommons.org/ns#"
   xmlns:rdf="http://www.w3.org/1999/02/22-rdf-syntax-ns#"
   xmlns:svg="http://www.w3.org/2000/svg"
   xmlns="http://www.w3.org/2000/svg"
   xmlns:sodipodi="http://sodipodi.sourceforge.net/DTD/sodipodi-0.dtd"
   xmlns:inkscape="http://www.inkscape.org/namespaces/inkscape"
   version="1.1"
   id="Layer_1"
   x="0px"
   y="0px"
   width="144px"
   height="135px"
   viewBox="0 0 144 135"
   enable-background="new 0 0 144 135"
   xml:space="preserve"
   inkscape:version="0.91 r13725"
   sodipodi:docname="logo-outlines-lgbtqi.svg"
   inkscape:export-filename="/home/zakkak/playground/labaki-art/Logo/logo-outlines-lgbtqi.png"
   inkscape:export-xdpi="90"
   inkscape:export-ydpi="90"><metadata
     id="metadata167"><rdf:RDF><cc:Work
         rdf:about=""><dc:format>image/svg+xml</dc:format><dc:type
           rdf:resource="http://purl.org/dc/dcmitype/StillImage" /></cc:Work></rdf:RDF></metadata><defs
     id="defs165" /><sodipodi:namedview
     pagecolor="#ffffff"
     bordercolor="#666666"
     borderopacity="1"
     objecttolerance="10"
     gridtolerance="10"
     guidetolerance="10"
     inkscape:pageopacity="0"
     inkscape:pageshadow="2"
     inkscape:window-width="1920"
     inkscape:window-height="1016"
     id="namedview163"
     showgrid="false"
     inkscape:zoom="2.4722548"
     inkscape:cx="47.855738"
     inkscape:cy="19.455419"
     inkscape:window-x="0"
     inkscape:window-y="27"
     inkscape:window-maximized="1"
     inkscape:current-layer="Layer_1" /><g
     id="g3492"
     transform="matrix(0.22847188,0,0,0.22847188,-186.26024,16.681749)"><rect
       id="rect3474"
       width="777"
       height="480"
       x="0"
       y="0"
       style="fill:#750787" /><rect
       id="rect3476"
       width="777"
       height="400"
       x="0"
       y="0"
       style="fill:#004dff" /><rect
       id="rect3478"
       width="777"
       height="320"
       x="0"
       y="0"
       style="fill:#008026" /><rect
       id="rect3480"
       width="777"
       height="240"
       x="0"
       y="0"
       style="fill:#ffed00" /><rect
       id="rect3482"
       width="777"
       height="160"
       x="0"
       y="0"
       style="fill:#ff8c00" /><rect
       id="rect3484"
       width="777"
       height="80"
       x="0"
       y="0"
       style="fill:#e40303" /></g><g
     id="g3"><g
       id="g5"><polygon
         points="79.34,9.596 77.861,9.596 76.67,7.826 75.154,7.826     73.918,6.547 70.165,6.547 68.845,7.826 67.374,7.826 66.136,9.596 64.538,9.596 63.048,11.822 80.955,11.822   "
         id="polygon7"
         stroke-width="0.5"
         stroke="#414042"
         fill="#B3B3B3" /><path
         d="M82.52,13.277v-0.024c0-0.753-0.611-1.366-1.365-1.366H62.847    c-0.754,0-1.365,0.61-1.365,1.364v0.026c0,0.754,0.611,1.367,1.365,1.367c-0.754,0-1.365,0.607-1.365,1.361v0.025    c0,0.755,0.611,1.364,1.365,1.364c-0.754,0-1.365,0.612-1.365,1.366v0.023c0,0.755,0.611,1.368,1.365,1.368h18.308    c0.754,0,1.365-0.613,1.365-1.368v-0.021c0-0.754-0.611-1.368-1.365-1.368c0.754,0,1.365-0.607,1.365-1.36v-0.029    c0-0.754-0.611-1.361-1.365-1.361C81.908,14.645,82.52,14.031,82.52,13.277z"
         id="path9"
         stroke-width="0.5"
         stroke="#414042"
         fill="#B3B3B3" /><line
         x1="66.136"
         y1="9.596"
         x2="68.806"
         y2="9.596"
         id="line11"
         stroke-width="0.5"
         stroke="#414042"
         fill="none" /><line
         x1="74.963"
         y1="9.596"
         x2="77.633"
         y2="9.596"
         id="line13"
         stroke-width="0.5"
         stroke="#414042"
         fill="none" /><line
         x1="67.472"
         y1="7.908"
         x2="70.142"
         y2="7.908"
         id="line15"
         stroke-width="0.5"
         stroke="#414042"
         fill="none" /><line
         x1="73.627"
         y1="7.908"
         x2="76.299"
         y2="7.908"
         id="line17"
         stroke-width="0.5"
         stroke="#414042"
         fill="none" /></g><path
       d="M72.003,86.587c14.599,0,26.435-9.724,26.435-21.719   c0-3.607-1.086-7.001-2.979-9.995c-1.016-2.8-2.613-6.104-5.121-9.799c0,0-1.162-1.394-2.627-3.808c0,0-0.164-0.273,0,0   l-4.086-10.309c0.248-0.412,0.4-3.919,0.4-4.434v-3.327c0-1.504-1.225-2.728-2.729-2.728H62.704   c-1.508-0.003-2.73,1.224-2.73,2.726v3.326c0,0.546,0.164,4.074,0.438,4.503l-4.064,10.239c0.211-0.346,0,0,0,0   c-1.465,2.417-2.623,3.807-2.623,3.807c-2.42,3.566-3.984,6.759-5.004,9.5c-2.012,3.06-3.158,6.569-3.158,10.295   C45.562,76.863,57.399,86.583,72.003,86.587z"
       id="path19"
       stroke-width="0.5"
       stroke="#414042"
       fill="#FFFFFF" /><path
       d="m 93.645,55.375 c -0.73,-2.01 -1.787,-4.299 -3.307,-6.821 -0.018,1.225 -8.207,2.217 -18.312,2.217 -10.096,0 -18.281,-0.99 -18.309,-2.215 -1.447,2.405 -2.473,4.597 -3.197,6.538 -1.857,2.825 -2.912,6.061 -2.912,9.5 0,11.067 10.92,20.037 24.395,20.041 13.468,0 24.392,-8.974 24.392,-20.039 0,-3.328 -1.006,-6.459 -2.75,-9.221 z"
       id="path21"
       inkscape:connector-curvature="0"
       style="fill:#8dc63f;stroke:#555d50;stroke-width:0.25" /><path
       d="M72.003,50.771c10.103,0,18.294-0.992,18.308-2.217   c-0.061-0.101-0.123-0.202-0.188-0.304c-1.219-1.086-8.855-1.919-18.12-1.919c-9.223,0-16.83,0.827-18.107,1.901   c-0.063,0.106-0.143,0.217-0.205,0.323C53.72,49.78,61.905,50.771,72.003,50.771z"
       id="path23"
       stroke-width="0.25"
       stroke="#555D50"
       fill="#939598" /><g
       id="g25"><path
         d="m 63.608,73.949 c 0,1.139 -0.922,2.062 -2.059,2.062 -1.135,0 -2.059,-0.923 -2.059,-2.062 0,-1.132 0.924,-2.056 2.059,-2.056 1.138,0.001 2.059,0.924 2.059,2.056 z"
         id="path27"
         inkscape:connector-curvature="0"
         style="fill:none;stroke:#004dff;stroke-width:0.5;stroke-opacity:1" /><path
         d="m 78.275,58.892 c 0,1.138 -0.924,2.062 -2.059,2.062 -1.139,0 -2.059,-0.924 -2.059,-2.062 0,-1.134 0.92,-2.058 2.059,-2.058 1.136,0 2.059,0.924 2.059,2.058 z"
         id="path29"
         inkscape:connector-curvature="0"
         style="fill:none;fill-opacity:1;stroke:#750787;stroke-width:0.5;stroke-opacity:1" /><circle
         cx="63.243999"
         cy="62.771999"
         r="1.456"
         id="circle31"
         style="fill:none;stroke:#e8d900;stroke-width:0.5;stroke-opacity:1" /><path
         d="m 69.212,55.513 c 0,0.867 -0.705,1.572 -1.57,1.572 -0.873,0 -1.574,-0.705 -1.574,-1.572 0,-0.866 0.701,-1.572 1.574,-1.572 0.865,-0.001 1.57,0.705 1.57,1.572 z"
         id="path33"
         inkscape:connector-curvature="0"
         style="fill:none;stroke:#e40303;stroke-width:0.5;stroke-opacity:1" /><path
         d="m 62.665,53.529 c 0,0.512 -0.416,0.927 -0.926,0.927 -0.516,0 -0.93,-0.415 -0.93,-0.927 0,-0.513 0.414,-0.93 0.93,-0.93 0.51,0.001 0.926,0.418 0.926,0.93 z"
         id="path35"
         inkscape:connector-curvature="0"
         style="fill:none;stroke:#004dff;stroke-width:0.5;stroke-opacity:1" /><circle
         cx="83.684998"
         cy="55.513"
         r="0.92900002"
         id="circle37"
         style="fill:none;stroke:#e40303;stroke-width:0.5;stroke-opacity:1" /><path
         d="m 85.359,62.772 c 0,0.251 -0.203,0.452 -0.451,0.452 -0.254,0 -0.457,-0.201 -0.457,-0.452 0,-0.251 0.203,-0.454 0.457,-0.454 0.248,0 0.451,0.203 0.451,0.454 z"
         id="path39"
         inkscape:connector-curvature="0"
         style="fill:none;stroke:#e40303;stroke-width:0.5;stroke-opacity:1" /><path
         d="m 71.827,68.851 c 0,0.253 -0.203,0.456 -0.453,0.456 -0.252,0 -0.455,-0.203 -0.455,-0.456 0,-0.247 0.203,-0.45 0.455,-0.45 0.25,-10e-4 0.453,0.203 0.453,0.45 z"
         id="path41"
         inkscape:connector-curvature="0"
         style="fill:none;stroke:#e40303;stroke-width:0.5;stroke-opacity:1" /><circle
         cx="60.099998"
         cy="58.011002"
         r="0.30199999"
         id="circle43"
         style="fill:none;stroke:#ff8c00;stroke-width:0.5;stroke-opacity:1" /><g
         id="g45"><path
           d="m 69.011,73.609 c 0,0.17 -0.133,0.304 -0.301,0.304 -0.168,0 -0.305,-0.134 -0.305,-0.304 0,-0.164 0.137,-0.302 0.305,-0.302 0.168,0 0.301,0.138 0.301,0.302 z"
           id="path47"
           inkscape:connector-curvature="0"
           style="fill:none;stroke:#e8d900;stroke-width:0.5;stroke-opacity:1" /><path
           d="m 75.861,79.372 c 0,0.17 -0.135,0.304 -0.303,0.304 -0.17,0 -0.303,-0.134 -0.303,-0.304 0,-0.164 0.133,-0.3 0.303,-0.3 0.169,0 0.303,0.136 0.303,0.3 z"
           id="path49"
           inkscape:connector-curvature="0"
           style="fill:none;stroke:#004dff;stroke-width:0.5;stroke-opacity:1" /><circle
           cx="72.556999"
           cy="53.526001"
           r="0.30399999"
           id="circle51"
           style="fill:none;stroke:#004dff;stroke-width:0.5;stroke-opacity:1" /><circle
           cx="81.525002"
           cy="52.194"
           r="0.303"
           id="circle53"
           style="fill:none;stroke:#e8d900;stroke-width:0.5;stroke-opacity:1" /><circle
           cx="81.525002"
           cy="65.709999"
           r="0.303"
           id="circle55"
           style="fill:none;stroke:#e8d900;stroke-width:0.5;stroke-opacity:1" /><circle
           cx="58.862"
           cy="66.824997"
           r="0.303"
           id="circle57"
           style="fill:none;fill-opacity:1;stroke:#e40303;stroke-width:0.5;stroke-opacity:1" /><circle
           cx="69.108002"
           cy="62.429001"
           r="0.303"
           id="circle59"
           style="fill:none;fill-opacity:1;stroke:#750787;stroke-width:0.5;stroke-opacity:1" /></g><path
         d="m 79.287,80.59 c 0.135,0.107 0.158,0.295 0.059,0.426 -0.102,0.133 -0.295,0.158 -0.426,0.057 -0.131,-0.101 -0.156,-0.291 -0.055,-0.426 0.102,-0.131 0.291,-0.157 0.422,-0.057 z"
         id="path61"
         inkscape:connector-curvature="0"
         style="fill:none;stroke:#ff8c00;stroke-width:0.5;stroke-opacity:1" /><path
         d="m 62.853,79.438 c 0.131,0.104 0.158,0.291 0.055,0.425 -0.102,0.134 -0.291,0.156 -0.426,0.057 -0.131,-0.101 -0.156,-0.29 -0.055,-0.424 0.101,-0.136 0.291,-0.159 0.426,-0.058 z"
         id="path63"
         inkscape:connector-curvature="0"
         style="fill:none;fill-opacity:1;stroke:#750787;stroke-width:0.5;stroke-opacity:1" /><path
         d="m 76.4,63.987 c 0.135,0.103 0.156,0.293 0.059,0.427 -0.105,0.132 -0.293,0.156 -0.426,0.052 -0.135,-0.1 -0.158,-0.29 -0.055,-0.421 0.1,-0.134 0.292,-0.157 0.422,-0.058 z"
         id="path65"
         inkscape:connector-curvature="0"
         style="fill:none;stroke:#004dff;stroke-width:0.5;stroke-opacity:1" /><path
         d="m 81.41,59.48 c 0.131,0.104 0.154,0.292 0.055,0.425 -0.102,0.132 -0.291,0.158 -0.426,0.053 -0.131,-0.099 -0.156,-0.291 -0.055,-0.421 0.102,-0.131 0.291,-0.159 0.426,-0.057 z"
         id="path67"
         inkscape:connector-curvature="0"
         style="fill:none;stroke:#ff8c00;stroke-width:0.5;stroke-opacity:1" /><path
         d="m 57.765,61.377 c 0.133,0.104 0.158,0.292 0.057,0.426 -0.102,0.13 -0.293,0.157 -0.424,0.056 -0.133,-0.103 -0.158,-0.294 -0.057,-0.425 0.101,-0.132 0.291,-0.159 0.424,-0.057 z"
         id="path69"
         inkscape:connector-curvature="0"
         style="fill:none;stroke:#004dff;stroke-width:0.5;stroke-opacity:1" /><path
         d="m 81.41,73.205 c 0.131,0.103 0.158,0.295 0.055,0.426 -0.102,0.135 -0.291,0.16 -0.426,0.055 -0.131,-0.1 -0.156,-0.289 -0.055,-0.422 0.104,-0.131 0.291,-0.159 0.426,-0.059 z"
         id="path71"
         inkscape:connector-curvature="0"
         style="fill:none;stroke:#ff8c00;stroke-width:0.5;stroke-opacity:1" /><path
         d="m 72.185,81.921 c 0.135,0.102 0.16,0.293 0.055,0.425 -0.1,0.134 -0.289,0.158 -0.424,0.055 -0.131,-0.1 -0.156,-0.29 -0.055,-0.422 0.103,-0.132 0.293,-0.158 0.424,-0.058 z"
         id="path73"
         inkscape:connector-curvature="0"
         style="fill:none;stroke:#e8d900;stroke-width:0.5;stroke-opacity:1" /><circle
         cx="84.514999"
         cy="69.457001"
         r="0.92900002"
         id="circle75"
         style="fill:none;stroke:#e40303;stroke-width:0.5;stroke-opacity:1" /><circle
         cx="66.796997"
         cy="68.525002"
         r="0.92900002"
         id="circle77"
         style="fill:none;stroke:#e40303;stroke-width:0.5;stroke-opacity:1" /><circle
         cx="74.375999"
         cy="75.183998"
         r="0.92900002"
         id="circle79"
         style="fill:none;fill-opacity:1;stroke:#750787;stroke-width:0.5;stroke-opacity:1" /><path
         d="m 78.58,69.455 c 0,0.864 -0.705,1.573 -1.574,1.573 -0.869,0 -1.572,-0.709 -1.572,-1.573 0,-0.867 0.703,-1.574 1.572,-1.574 0.869,0 1.574,0.707 1.574,1.574 z"
         id="path81"
         inkscape:connector-curvature="0"
         style="fill:none;stroke:#004dff;stroke-width:0.5;stroke-opacity:1" /><path
         d="m 69.892,79.372 c 0,0.805 -0.652,1.458 -1.457,1.458 -0.805,0 -1.455,-0.653 -1.455,-1.458 0,-0.801 0.65,-1.452 1.455,-1.452 0.805,0 1.457,0.651 1.457,1.452 z"
         id="path83"
         inkscape:connector-curvature="0"
         style="fill:none;stroke:#ff8c00;stroke-width:0.5;stroke-opacity:1" /><circle
         cx="82.021004"
         cy="77.737999"
         r="1.457"
         id="circle85"
         style="fill:none;stroke:#750787;stroke-width:0.5;stroke-opacity:1" /><path
         d="m 85.766,57.508 c 0.482,0.178 0.727,0.712 0.547,1.192 -0.176,0.482 -0.709,0.727 -1.189,0.55 -0.482,-0.178 -0.729,-0.713 -0.551,-1.194 0.177,-0.481 0.712,-0.728 1.193,-0.548 z"
         id="path87"
         inkscape:connector-curvature="0"
         style="fill:none;stroke:#e8d900;stroke-width:0.5;stroke-opacity:1" /><circle
         cx="52.749001"
         cy="70.691002"
         r="0.92900002"
         id="circle89"
         style="fill:none;stroke:#ff8c00;stroke-width:0.5;stroke-opacity:1" /><circle
         cx="88.700996"
         cy="66.220001"
         r="0.454"
         id="circle91"
         style="fill:none;fill-opacity:1;stroke:#750787;stroke-width:0.5;stroke-opacity:1" /><path
         d="m 88.5,51.914 c 0.16,0.057 0.24,0.23 0.182,0.388 -0.057,0.158 -0.232,0.237 -0.389,0.177 -0.156,-0.056 -0.236,-0.229 -0.178,-0.388 0.057,-0.157 0.231,-0.237 0.385,-0.177 z"
         id="path93"
         inkscape:connector-curvature="0"
         style="fill:none;stroke:#004dff;stroke-width:0.5;stroke-opacity:1" /><path
         d="m 51.396,62.145 c 0.158,0.06 0.24,0.233 0.182,0.391 -0.059,0.159 -0.23,0.237 -0.391,0.179 -0.156,-0.056 -0.234,-0.231 -0.178,-0.39 0.058,-0.157 0.23,-0.237 0.387,-0.18 z"
         id="path95"
         inkscape:connector-curvature="0"
         style="fill:none;fill-opacity:1;stroke:#750787;stroke-width:0.5;stroke-opacity:1" /><path
         d="m 53.78,66.236 c 0.16,0.059 0.238,0.233 0.182,0.388 -0.059,0.156 -0.23,0.24 -0.389,0.181 -0.156,-0.058 -0.236,-0.231 -0.178,-0.39 0.057,-0.156 0.233,-0.234 0.385,-0.179 z"
         id="path97"
         inkscape:connector-curvature="0"
         style="fill:none;stroke:#ff8c00;stroke-width:0.5;stroke-opacity:1" /><path
         d="m 90.414,70.104 c 0.158,0.057 0.238,0.229 0.182,0.39 -0.059,0.154 -0.234,0.235 -0.389,0.178 -0.156,-0.059 -0.236,-0.233 -0.18,-0.391 0.059,-0.154 0.231,-0.236 0.387,-0.177 z"
         id="path99"
         inkscape:connector-curvature="0"
         style="fill:none;stroke:#004dff;stroke-width:0.5;stroke-opacity:1" /><path
         d="m 56.37,52.94 c 0.16,0.058 0.24,0.231 0.182,0.388 -0.057,0.157 -0.229,0.237 -0.389,0.18 -0.156,-0.058 -0.236,-0.232 -0.178,-0.39 0.057,-0.159 0.233,-0.236 0.385,-0.178 z"
         id="path101"
         inkscape:connector-curvature="0"
         style="fill:none;fill-opacity:1;stroke:#e40303;stroke-width:0.5;stroke-opacity:1" /><path
         d="m 89.848,54.729 c 0.141,-0.089 0.328,-0.048 0.416,0.094 0.09,0.143 0.047,0.33 -0.096,0.418 -0.139,0.089 -0.326,0.046 -0.414,-0.096 -0.092,-0.137 -0.047,-0.327 0.094,-0.416 z"
         id="path103"
         inkscape:connector-curvature="0"
         style="fill:none;fill-opacity:1;stroke:#750787;stroke-width:0.5;stroke-opacity:1" /><path
         d="m 84.828,73.492 c 0.143,-0.088 0.328,-0.047 0.416,0.096 0.09,0.139 0.047,0.325 -0.094,0.419 -0.143,0.088 -0.328,0.044 -0.418,-0.099 -0.089,-0.139 -0.046,-0.326 0.096,-0.416 z"
         id="path105"
         inkscape:connector-curvature="0"
         style="fill:none;stroke:#e8d900;stroke-width:0.5;stroke-opacity:1" /><path
         d="m 92.766,61.447 c 0.48,0.18 0.727,0.715 0.549,1.192 -0.178,0.485 -0.713,0.729 -1.191,0.552 -0.48,-0.18 -0.727,-0.713 -0.549,-1.194 0.173,-0.48 0.708,-0.726 1.191,-0.55 z"
         id="path107"
         inkscape:connector-curvature="0"
         style="fill:none;stroke:#ff8c00;stroke-width:0.5;stroke-opacity:1" /><path
         d="m 55.661,75.14 c 0.48,0.173 0.727,0.71 0.551,1.192 -0.182,0.479 -0.715,0.727 -1.195,0.547 -0.479,-0.178 -0.727,-0.711 -0.549,-1.192 0.179,-0.483 0.713,-0.727 1.193,-0.547 z"
         id="path109"
         inkscape:connector-curvature="0"
         style="fill:none;stroke:#e8d900;stroke-width:0.5;stroke-opacity:1" /><path
         d="m 53.255,55.076 c 0.754,0.278 1.137,1.118 0.859,1.871 -0.279,0.755 -1.115,1.14 -1.871,0.862 -0.752,-0.279 -1.139,-1.114 -0.857,-1.873 0.275,-0.749 1.115,-1.138 1.869,-0.86 z"
         id="path111"
         inkscape:connector-curvature="0"
         style="fill:none;stroke:#ff8c00;stroke-width:0.5;stroke-opacity:1" /></g><path
       d="M59.388,42.818c0,0-16.105,24.671-2.883,33.198C56.505,76.017,51.464,62.189,59.388,42.818z"
       id="path113"
       fill="#FFFFFF"
       opacity="0.7" /><path
       d="M59.388,42.818c0,0-16.105,24.671-2.883,33.198C56.505,76.017,45.624,67.881,59.388,42.818z"
       id="path115"
       fill="#FFFFFF" /><path
       d="M84.352,42.818c0,0,16.104,24.671,2.881,33.198C87.232,76.017,98.117,67.881,84.352,42.818z"
       id="path117"
       fill="#FFFFFF" /><path
       d="M84.352,42.818c0,0,16.104,24.671,2.881,33.198C87.232,76.017,92.273,62.189,84.352,42.818z"
       id="path119"
       fill="#FFFFFF"
       opacity="0.7" /></g><g
     id="g121"><path
       fill="#58595B"
       d="M8.851,110.726c0-0.313,0.111-0.579,0.334-0.802s0.49-0.333,0.802-0.333c0.313,0,0.579,0.11,0.802,0.333   s0.334,0.489,0.334,0.802v3.23c0.898-0.653,1.972-1.019,3.219-1.093h0.179c1.566,0.089,2.854,0.639,3.863,1.648   c1.068,1.068,1.611,2.36,1.625,3.875v4.521c0,0.356-0.111,0.626-0.334,0.813c-0.223,0.185-0.489,0.278-0.801,0.278   c-0.313,0-0.58-0.094-0.803-0.278c-0.223-0.187-0.334-0.449-0.334-0.791v-4.52c0-0.068,0.005-0.134,0.012-0.202   c-0.044-0.816-0.363-1.519-0.957-2.104c-0.646-0.647-1.426-0.97-2.339-0.97h-0.044c-0.914,0-1.693,0.322-2.339,0.97   c-0.557,0.549-0.873,1.202-0.947,1.96v4.865c0,0.342-0.111,0.604-0.334,0.791c-0.223,0.185-0.489,0.278-0.802,0.278   c-0.312,0-0.579-0.094-0.802-0.278c-0.223-0.187-0.334-0.456-0.334-0.813V110.726z"
       id="path123" /><path
       fill="#58595B"
       d="M33.349,122.908c0,0.431-0.111,0.72-0.334,0.868s-0.489,0.223-0.802,0.223   c-0.312,0-0.579-0.074-0.802-0.223s-0.334-0.431-0.334-0.847c-0.95,0.713-2.044,1.069-3.284,1.069   c-1.537,0-2.848-0.541-3.932-1.625s-1.626-2.395-1.626-3.933c0-1.535,0.542-2.846,1.626-3.93s2.395-1.625,3.932-1.625   s2.846,0.541,3.93,1.625c1.069,1.068,1.611,2.36,1.626,3.875V122.908z M30.131,116.104c-0.646-0.647-1.425-0.97-2.338-0.97   s-1.691,0.322-2.334,0.963c-0.643,0.643-0.963,1.421-0.963,2.333c0,0.915,0.32,1.693,0.963,2.34   c0.643,0.645,1.421,0.968,2.334,0.968s1.692-0.323,2.338-0.968c0.55-0.549,0.865-1.196,0.946-1.938v-0.422   c0-0.068,0.005-0.134,0.012-0.202C31.045,117.392,30.725,116.689,30.131,116.104z"
       id="path125" /><path
       fill="#58595B"
       d="M45.086,114.512c0,0.008,0.004,0.01,0.012,0.01c0.215,0.217,0.322,0.479,0.322,0.792   c0,0.305-0.109,0.566-0.328,0.784c-0.219,0.221-0.48,0.329-0.785,0.329c-0.313,0-0.575-0.11-0.791-0.333h-0.012   c-0.638-0.639-1.413-0.959-2.326-0.959s-1.692,0.322-2.338,0.963c-0.646,0.643-0.97,1.421-0.97,2.333   c0,0.915,0.323,1.693,0.97,2.34c0.646,0.645,1.425,0.968,2.338,0.968c0.906,0,1.682-0.318,2.326-0.957   c0.008-0.009,0.016-0.015,0.023-0.023c0.215-0.214,0.479-0.322,0.791-0.322c0.312,0,0.578,0.11,0.801,0.329   c0.223,0.218,0.334,0.483,0.334,0.795s-0.111,0.579-0.334,0.802c-0.007,0.009-0.014,0.015-0.021,0.023   c-1.076,1.075-2.383,1.614-3.92,1.614s-2.848-0.541-3.932-1.625s-1.625-2.395-1.625-3.933c0-1.535,0.541-2.846,1.625-3.93   s2.395-1.625,3.932-1.625s2.844,0.536,3.92,1.614L45.086,114.512z"
       id="path127" /><path
       fill="#58595B"
       d="M50.108,119.911v2.953c0,0.312-0.111,0.579-0.334,0.802s-0.49,0.333-0.802,0.333   c-0.313,0-0.579-0.11-0.802-0.333s-0.334-0.49-0.334-0.802v-12.139c0-0.313,0.111-0.579,0.334-0.802s0.489-0.333,0.802-0.333   c0.312,0,0.579,0.11,0.802,0.333s0.334,0.489,0.334,0.802v6.235l4.821-3.852c0.2-0.163,0.435-0.246,0.702-0.246   c0.312,0,0.575,0.11,0.79,0.329c0.215,0.218,0.323,0.481,0.323,0.784c0,0.313-0.108,0.575-0.323,0.791   c-0.066,0.066-0.137,0.123-0.211,0.168l-4.343,3.475l4.499,3.595l-0.023,0.023c0.03,0.021,0.056,0.045,0.078,0.065   c0.215,0.223,0.323,0.488,0.323,0.792c0,0.312-0.108,0.574-0.323,0.791c-0.215,0.214-0.479,0.322-0.79,0.322   c-0.26,0-0.487-0.079-0.68-0.233l-0.011,0.011L50.108,119.911z"
       id="path129" /><path
       fill="#58595B"
       d="M64.34,115.413c-0.408-0.185-0.857-0.278-1.348-0.278c-0.914,0-1.693,0.322-2.339,0.963   c-0.646,0.643-0.968,1.421-0.968,2.333c0,0.915,0.322,1.693,0.968,2.34c0.646,0.645,1.425,0.968,2.339,0.968   c0.905,0,1.682-0.318,2.328-0.957c0.007-0.009,0.014-0.015,0.021-0.023c0.215-0.214,0.479-0.322,0.79-0.322s0.579,0.11,0.802,0.329   c0.223,0.218,0.334,0.483,0.334,0.795s-0.111,0.579-0.334,0.802c-0.008,0.009-0.015,0.015-0.021,0.023   c-1.077,1.075-2.384,1.614-3.92,1.614c-1.537,0-2.847-0.541-3.931-1.625s-1.626-2.395-1.626-3.933c0-1.535,0.542-2.846,1.626-3.93   s2.394-1.625,3.931-1.625c1.536,0,2.843,0.536,3.92,1.614l-0.012,0.011c0,0.008,0.004,0.01,0.012,0.01   c0.215,0.217,0.322,0.479,0.322,0.792c0,0.305-0.107,0.563-0.322,0.78l-3.186,3.162c-0.223,0.215-0.49,0.322-0.802,0.322   c-0.319,0-0.589-0.107-0.812-0.322c-0.216-0.223-0.324-0.494-0.324-0.814c0-0.312,0.108-0.579,0.324-0.802L64.34,115.413z"
       id="path131" /><path
       fill="#58595B"
       d="M75.219,112.863c0.311,0,0.578,0.112,0.801,0.335s0.334,0.49,0.334,0.802s-0.111,0.579-0.334,0.802   s-0.49,0.333-0.801,0.333h-0.012c-0.912,0-1.691,0.322-2.338,0.97c-0.594,0.585-0.912,1.287-0.957,2.104   c0.008,0.068,0.01,0.134,0.01,0.202v4.297c0,0.416-0.111,0.736-0.334,0.959s-0.489,0.333-0.801,0.333   c-0.313,0-0.58-0.11-0.803-0.333s-0.334-0.55-0.334-0.98v-4.299c0.016-1.515,0.557-2.807,1.627-3.875   C72.301,113.487,73.615,112.938,75.219,112.863z"
       id="path133" /><path
       fill="#58595B"
       d="M81.076,112.863c0.311,0,0.576,0.108,0.791,0.322c0.215,0.217,0.322,0.479,0.322,0.791   c0,0.306-0.107,0.566-0.322,0.785c-0.215,0.221-0.48,0.329-0.791,0.329c-0.156,0-0.287,0.055-0.396,0.161   c-0.107,0.107-0.16,0.239-0.16,0.396c0,0.154,0.053,0.286,0.16,0.395c0.109,0.108,0.24,0.161,0.396,0.161   c1.076,0,1.994,0.382,2.756,1.141c0.76,0.762,1.141,1.681,1.141,2.758c0,1.075-0.381,1.994-1.141,2.755   c-0.762,0.762-1.68,1.142-2.756,1.142s-1.996-0.38-2.756-1.142c-0.762-0.761-1.143-1.68-1.143-2.755   c0-0.312,0.109-0.577,0.33-0.791c0.217-0.217,0.48-0.322,0.783-0.322c0.313,0,0.576,0.105,0.791,0.322   c0.217,0.214,0.324,0.479,0.324,0.791c0,0.46,0.162,0.853,0.488,1.18c0.328,0.326,0.721,0.489,1.182,0.489   c0.459,0,0.854-0.163,1.18-0.489c0.326-0.327,0.49-0.72,0.49-1.18s-0.164-0.854-0.49-1.182c-0.326-0.326-0.721-0.49-1.18-0.49   c-0.773,0-1.43-0.273-1.971-0.818c-0.543-0.545-0.814-1.2-0.814-1.964c0-0.772,0.271-1.43,0.814-1.973   C79.646,113.135,80.303,112.863,81.076,112.863z"
       id="path135" /><path
       fill="#58595B"
       d="M87.201,118.387c0.014-1.515,0.557-2.807,1.625-3.875c1.084-1.084,2.395-1.625,3.932-1.625   c1.535,0,2.846,0.541,3.93,1.625s1.625,2.395,1.625,3.93c0,1.538-0.541,2.849-1.625,3.933s-2.395,1.625-3.93,1.625   c-1.24,0-2.336-0.356-3.287-1.069v4.389c0,0.312-0.111,0.579-0.334,0.802c-0.221,0.223-0.488,0.333-0.801,0.333   s-0.578-0.11-0.801-0.333s-0.334-0.49-0.334-0.802V118.387z M89.461,118.208c0.008,0.068,0.01,0.134,0.01,0.202v0.422   c0.082,0.742,0.398,1.39,0.947,1.938c0.646,0.645,1.426,0.968,2.34,0.968c0.912,0,1.689-0.323,2.332-0.968   c0.643-0.646,0.963-1.425,0.963-2.34c0-0.912-0.32-1.69-0.963-2.333c-0.643-0.641-1.42-0.963-2.332-0.963   c-0.914,0-1.693,0.32-2.34,0.959C89.824,116.688,89.506,117.392,89.461,118.208z"
       id="path137" /><path
       fill="#58595B"
       d="M111.697,122.908c0,0.431-0.111,0.72-0.334,0.868s-0.488,0.223-0.801,0.223s-0.58-0.074-0.803-0.223   s-0.334-0.431-0.334-0.847c-0.949,0.713-2.045,1.069-3.283,1.069c-1.537,0-2.848-0.541-3.932-1.625s-1.627-2.395-1.627-3.933   c0-1.535,0.543-2.846,1.627-3.93s2.395-1.625,3.932-1.625s2.846,0.541,3.93,1.625c1.068,1.068,1.611,2.36,1.625,3.875V122.908z    M108.48,116.104c-0.646-0.647-1.426-0.97-2.338-0.97c-0.914,0-1.691,0.322-2.334,0.963c-0.643,0.643-0.963,1.421-0.963,2.333   c0,0.915,0.32,1.693,0.963,2.34c0.643,0.645,1.42,0.968,2.334,0.968c0.912,0,1.691-0.323,2.338-0.968   c0.549-0.549,0.865-1.196,0.945-1.938v-0.422c0-0.068,0.006-0.134,0.012-0.202C109.395,117.392,109.074,116.689,108.48,116.104z"
       id="path139" /><path
       fill="#58595B"
       d="M123.436,114.512c0,0.008,0.004,0.01,0.012,0.01c0.215,0.217,0.322,0.479,0.322,0.792   c0,0.305-0.109,0.566-0.33,0.784c-0.217,0.221-0.48,0.329-0.783,0.329c-0.313,0-0.576-0.11-0.791-0.333h-0.012   c-0.639-0.639-1.414-0.959-2.326-0.959c-0.914,0-1.693,0.322-2.338,0.963c-0.646,0.643-0.971,1.421-0.971,2.333   c0,0.915,0.324,1.693,0.971,2.34c0.645,0.645,1.424,0.968,2.338,0.968c0.906,0,1.68-0.318,2.326-0.957   c0.008-0.009,0.016-0.015,0.023-0.023c0.215-0.214,0.479-0.322,0.791-0.322c0.311,0,0.578,0.11,0.801,0.329   c0.223,0.218,0.334,0.483,0.334,0.795s-0.111,0.579-0.334,0.802c-0.008,0.009-0.014,0.015-0.021,0.023   c-1.076,1.075-2.383,1.614-3.92,1.614s-2.848-0.541-3.932-1.625s-1.625-2.395-1.625-3.933c0-1.535,0.541-2.846,1.625-3.93   s2.395-1.625,3.932-1.625s2.844,0.536,3.92,1.614L123.436,114.512z"
       id="path141" /><path
       fill="#58595B"
       d="M132.221,115.413c-0.408-0.185-0.857-0.278-1.348-0.278c-0.912,0-1.691,0.322-2.338,0.963   c-0.646,0.643-0.969,1.421-0.969,2.333c0,0.915,0.322,1.693,0.969,2.34c0.646,0.645,1.426,0.968,2.338,0.968   c0.906,0,1.682-0.318,2.328-0.957c0.008-0.009,0.016-0.015,0.023-0.023c0.215-0.214,0.477-0.322,0.789-0.322s0.58,0.11,0.803,0.329   c0.223,0.218,0.334,0.483,0.334,0.795s-0.111,0.579-0.334,0.802c-0.008,0.009-0.016,0.015-0.023,0.023   c-1.076,1.075-2.383,1.614-3.92,1.614c-1.535,0-2.846-0.541-3.93-1.625s-1.625-2.395-1.625-3.933c0-1.535,0.541-2.846,1.625-3.93   s2.395-1.625,3.93-1.625c1.537,0,2.844,0.536,3.92,1.614l-0.01,0.011c0,0.008,0.002,0.01,0.01,0.01   c0.215,0.217,0.324,0.479,0.324,0.792c0,0.305-0.109,0.563-0.324,0.78l-3.184,3.162c-0.223,0.215-0.49,0.322-0.803,0.322   c-0.318,0-0.59-0.107-0.813-0.322c-0.215-0.223-0.322-0.494-0.322-0.814c0-0.312,0.107-0.579,0.322-0.802L132.221,115.413z"
       id="path143" /></g><g
     id="g3933"><g
       id="g145"><path
         id="path147"
         d="M55.441,94.311c0.223,0.221,0.332,0.487,0.332,0.797v12.063c0,0.31-0.109,0.576-0.332,0.797   c-0.221,0.222-0.486,0.333-0.797,0.333c-0.309,0-0.574-0.111-0.797-0.333c-0.221-0.221-0.332-0.487-0.332-0.797V95.107   c0-0.31,0.111-0.576,0.332-0.797c0.223-0.222,0.488-0.334,0.797-0.334C54.955,93.977,55.22,94.089,55.441,94.311z"
         fill="#8DC63F"
         style="stroke:#000000;stroke-opacity:1;stroke-width:0.5;stroke-miterlimit:4;stroke-dasharray:none" /><path
         id="path149"
         d="M69,107.214c0,0.429-0.111,0.717-0.332,0.864c-0.221,0.148-0.486,0.222-0.797,0.222   s-0.576-0.073-0.797-0.222c-0.221-0.147-0.332-0.428-0.332-0.841c-0.944,0.709-2.033,1.063-3.266,1.063   c-1.527,0-2.829-0.539-3.906-1.617c-1.078-1.077-1.615-2.379-1.615-3.905c0-1.528,0.537-2.83,1.615-3.907   c1.077-1.077,2.379-1.617,3.906-1.617s2.83,0.54,3.908,1.617c1.063,1.063,1.602,2.347,1.615,3.852V107.214z M65.8,100.452   c-0.642-0.642-1.416-0.962-2.324-0.962c-0.907,0-1.68,0.318-2.318,0.957s-0.957,1.41-0.957,2.319c0,0.906,0.318,1.682,0.957,2.322   c0.639,0.643,1.411,0.964,2.318,0.964c0.908,0,1.683-0.321,2.324-0.964c0.547-0.546,0.859-1.187,0.941-1.924v-0.423   c0-0.064,0.004-0.132,0.012-0.198C66.708,101.732,66.391,101.035,65.8,100.452z"
         fill="#8DC63F"
         style="stroke:#000000;stroke-opacity:1;stroke-width:0.5;stroke-miterlimit:4;stroke-dasharray:none" /><path
         id="path151"
         d="M71.257,95.063c0-0.311,0.111-0.576,0.332-0.797c0.221-0.222,0.488-0.334,0.797-0.334   c0.311,0,0.576,0.112,0.797,0.334c0.221,0.221,0.332,0.486,0.332,0.797v3.252c0.945-0.708,2.033-1.063,3.266-1.063   c1.527,0,2.83,0.54,3.906,1.617c1.078,1.077,1.617,2.379,1.617,3.907c0,1.526-0.539,2.828-1.617,3.905   c-1.076,1.078-2.379,1.617-3.906,1.617s-2.83-0.539-3.907-1.617c-1.064-1.063-1.602-2.347-1.617-3.852V95.063z M74.457,105.101   c0.641,0.643,1.416,0.963,2.324,0.963c0.906,0,1.68-0.318,2.318-0.958c0.639-0.637,0.957-1.41,0.957-2.318   c0-0.906-0.318-1.683-0.957-2.323c-0.639-0.643-1.412-0.964-2.318-0.964c-0.908,0-1.684,0.321-2.324,0.964   c-0.547,0.546-0.859,1.187-0.941,1.925v0.422c0,0.065-0.004,0.132-0.012,0.198C73.549,103.82,73.867,104.518,74.457,105.101z"
         fill="#8DC63F"
         style="stroke:#000000;stroke-opacity:1;stroke-width:0.5;stroke-miterlimit:4;stroke-dasharray:none" /><path
         id="path153"
         d="M35.166,97.209h2.258h1.229c0.31,0,0.575,0.111,0.797,0.333c0.221,0.221,0.332,0.487,0.332,0.797   c0,0.311-0.111,0.575-0.332,0.797c-0.222,0.221-0.487,0.331-0.797,0.331h-1.229v7.703c0,0.31-0.111,0.576-0.332,0.797   c-0.222,0.222-0.486,0.333-0.797,0.333s-0.576-0.111-0.797-0.333c-0.222-0.221-0.332-0.487-0.332-0.797v-7.703h-1.273   c-0.31,0-0.574-0.11-0.797-0.331c-0.221-0.222-0.332-0.486-0.332-0.797c0-0.31,0.111-0.576,0.332-0.797   c0.223-0.222,0.487-0.333,0.797-0.333H35.166z"
         fill="#58595B"
         style="fill:#750787;fill-opacity:1;stroke:#000000;stroke-opacity:1;stroke-width:0.5;stroke-miterlimit:4;stroke-dasharray:none" /><path
         id="path155"
         d="M49.642,98.87c1.077,1.077,1.615,2.379,1.615,3.907c0,1.526-0.538,2.828-1.615,3.905   c-1.077,1.078-2.379,1.617-3.907,1.617c-1.526,0-2.829-0.539-3.907-1.617c-1.076-1.077-1.615-2.379-1.615-3.905   c0-1.528,0.539-2.83,1.615-3.907c1.078-1.077,2.381-1.617,3.907-1.617C47.263,97.253,48.565,97.793,49.642,98.87z M45.735,99.49   c-0.907,0-1.683,0.318-2.324,0.957s-0.963,1.41-0.963,2.319c0,0.906,0.321,1.682,0.963,2.322c0.642,0.643,1.417,0.964,2.324,0.964   s1.681-0.321,2.318-0.964c0.639-0.641,0.958-1.416,0.958-2.322c0-0.909-0.319-1.681-0.958-2.319   C47.416,99.809,46.642,99.49,45.735,99.49z"
         fill="#58595B"
         style="fill:#004dff;fill-opacity:1;stroke:#000000;stroke-opacity:1;stroke-width:0.5;stroke-miterlimit:4;stroke-dasharray:none" /><path
         id="path157"
         d="M95.674,107.214c0,0.429-0.107,0.717-0.33,0.864c-0.221,0.148-0.486,0.222-0.797,0.222   s-0.574-0.073-0.797-0.222c-0.221-0.147-0.332-0.428-0.332-0.841c-0.945,0.709-2.033,1.063-3.266,1.063   c-1.527,0-2.83-0.539-3.906-1.617c-1.078-1.077-1.615-2.379-1.615-3.905c0-1.528,0.537-2.83,1.615-3.907   c1.076-1.077,2.379-1.617,3.906-1.617s2.83,0.54,3.908,1.617c1.063,1.063,1.6,2.347,1.613,3.852V107.214z M92.477,100.452   c-0.643-0.642-1.416-0.962-2.324-0.962s-1.682,0.318-2.318,0.957c-0.639,0.639-0.957,1.41-0.957,2.319   c0,0.906,0.318,1.682,0.957,2.322c0.637,0.643,1.41,0.964,2.318,0.964s1.682-0.321,2.324-0.964   c0.547-0.546,0.861-1.187,0.941-1.924v-0.423c0-0.064,0.004-0.132,0.01-0.198C93.385,101.732,93.066,101.035,92.477,100.452z"
         fill="#58595B"
         style="fill:#ffee00;fill-opacity:1;stroke:#000000;stroke-opacity:1;stroke-width:0.5;stroke-miterlimit:4;stroke-dasharray:none" /><path
         id="path159"
         d="M110.107,108.3c-0.311,0-0.576-0.111-0.797-0.333c-0.221-0.221-0.332-0.487-0.332-0.797v-8.854   c0-0.31,0.111-0.575,0.332-0.797c0.221-0.221,0.486-0.33,0.797-0.33c0.309,0,0.576,0.109,0.797,0.33   c0.221,0.222,0.334,0.487,0.334,0.797v8.854c0,0.31-0.113,0.576-0.334,0.797C110.684,108.188,110.416,108.3,110.107,108.3z"
         fill="#58595B"
         style="fill:#e40303;fill-opacity:1;stroke:#000000;stroke-opacity:1;stroke-width:0.5;stroke-miterlimit:4;stroke-dasharray:none" /><path
         id="path161"
         d="M100.191,104.237v2.933c0,0.31-0.109,0.576-0.332,0.797c-0.221,0.222-0.486,0.333-0.797,0.333   c-0.309,0-0.574-0.111-0.797-0.333c-0.221-0.221-0.332-0.487-0.332-0.797v-8.851c0-0.31,0.111-0.576,0.332-0.797   c0.223-0.222,0.488-0.334,0.797-0.334c0.311,0,0.576,0.112,0.797,0.334c0.223,0.221,0.332,0.487,0.332,0.797v2.985l4.793-3.83   c0.197-0.162,0.43-0.242,0.695-0.242c0.311,0,0.574,0.108,0.787,0.325c0.215,0.219,0.32,0.478,0.32,0.781   c0,0.311-0.105,0.571-0.32,0.785c-0.066,0.067-0.137,0.121-0.211,0.166l-4.314,3.452l4.471,3.576l-0.023,0.022   c0.029,0.022,0.057,0.044,0.078,0.066c0.215,0.221,0.32,0.482,0.32,0.786c0,0.31-0.105,0.571-0.32,0.785   c-0.213,0.214-0.477,0.321-0.787,0.321c-0.258,0-0.482-0.078-0.674-0.233l-0.012,0.012L100.191,104.237z"
         fill="#58595B"
         style="fill:#ff8c00;fill-opacity:1;stroke:#000000;stroke-opacity:1;stroke-width:0.5;stroke-miterlimit:4;stroke-dasharray:none" /></g><path
       transform="translate(0,1.0112226)"
       d="m 91.515649,93.944359 a 1.4157116,1.4157116 0 1 1 -2.831423,0 1.4157116,1.4157116 0 1 1 2.831423,0 z"
       sodipodi:ry="1.4157116"
       sodipodi:rx="1.4157116"
       sodipodi:cy="93.944359"
       sodipodi:cx="90.099937"
       id="path3144"
       style="fill:#ffee00;fill-opacity:1;fill-rule:evenodd;stroke:#000000;stroke-opacity:1;stroke-width:0.5;stroke-miterlimit:4;stroke-dasharray:none"
       sodipodi:type="arc" /></g></svg>